<svg width="60" height="60" viewBox="0 0 60 60" fill="none" xmlns="http://www.w3.org/2000/svg">
<rect width="60" height="60" rx="12" fill="url(#paint0_linear_2025_232)"/>
<path d="M30.0407 11.6666C29.7184 11.6566 29.4046 11.7714 29.165 11.9873C29.165 11.9873 22.9085 17.5 15.4167 17.5C15.0851 17.5 14.7672 17.6317 14.5328 17.8661C14.2984 18.1005 14.1667 18.4184 14.1667 18.75V28.9664C14.1667 34.5315 16.7412 43.6886 29.515 49.069C29.6685 49.1336 29.8334 49.1669 30 49.1669C30.1666 49.1669 30.3315 49.1336 30.485 49.069C43.2588 43.6886 45.8333 34.5315 45.8333 28.9664V18.75C45.8333 18.4184 45.7016 18.1005 45.4672 17.8661C45.2328 17.6317 44.9148 17.5 44.5833 17.5C37.0915 17.5 30.8349 11.9873 30.8349 11.9873C30.6162 11.7902 30.3349 11.6766 30.0407 11.6666ZM30 14.5231C31.7191 15.9053 36.7594 19.4476 43.3333 19.8958V28.9664C43.3333 33.7516 41.4945 41.4714 30 46.5218C18.5055 41.4714 16.6667 33.7516 16.6667 28.9664V19.8958C23.2406 19.4476 28.2809 15.9053 30 14.5231ZM30 23.3333C29.1255 23.3333 28.2731 23.6084 27.5637 24.1198C26.8543 24.6311 26.3237 25.3527 26.0471 26.1823C25.7706 27.012 25.7621 27.9076 26.0229 28.7423C26.2836 29.5771 26.8004 30.3086 27.5 30.8333V35C27.5 36.3808 28.6192 37.5 30 37.5C31.3808 37.5 32.5 36.3808 32.5 35V30.8268C33.1969 30.3013 33.7112 29.5701 33.9703 28.7366C34.2293 27.9031 34.2201 27.0093 33.9438 26.1813C33.6676 25.3533 33.1383 24.633 32.4307 24.122C31.7231 23.611 30.8728 23.3351 30 23.3333Z" fill="white"/>
<defs>
<linearGradient id="paint0_linear_2025_232" x1="9" y1="7.875" x2="52.125" y2="49.5" gradientUnits="userSpaceOnUse">
<stop stop-color="#A81B58"/>
<stop offset="1" stop-color="#3C3198"/>
</linearGradient>
</defs>
</svg>
