<svg width="60" height="60" viewBox="0 0 60 60" fill="none" xmlns="http://www.w3.org/2000/svg">
<rect width="60" height="60" rx="12" fill="url(#paint0_linear_2025_244)"/>
<path d="M30 11.6666C29.8389 11.6665 29.678 11.7525 29.5996 11.9238L29.1911 12.8222L27.946 13.0143C27.5901 13.0693 27.4477 13.5056 27.7018 13.7597L28.5449 14.6012L28.3692 15.6526C28.3092 16.0143 28.692 16.285 29.0137 16.11L30 15.5729L30.9863 16.1116C31.308 16.2866 31.6892 16.0143 31.6292 15.6526L31.4551 14.6028L32.2982 13.7597C32.5524 13.5056 32.4099 13.0693 32.0541 13.0143L30.8089 12.8239L30.4004 11.9238C30.3225 11.7521 30.1612 11.6667 30 11.6666ZM22.1387 14.1438C21.9776 14.1437 21.8178 14.2298 21.7399 14.401L21.3314 15.2994L20.0863 15.4915C19.7304 15.5465 19.588 15.9828 19.8421 16.2369L20.682 17.08L20.5078 18.1315C20.4478 18.4931 20.8307 18.7638 21.1524 18.5888L22.1387 18.0501L23.125 18.5888C23.4467 18.7638 23.8295 18.4931 23.7695 18.1315L23.5938 17.08L24.4369 16.2369C24.691 15.9828 24.5486 15.5481 24.1927 15.4931L22.9476 15.3011L22.5391 14.401C22.4612 14.2293 22.2997 14.1439 22.1387 14.1438ZM37.8613 14.1438C37.7001 14.1438 37.5381 14.2293 37.4593 14.401L37.0508 15.3011L35.8057 15.4931C35.4498 15.5481 35.3074 15.9828 35.5615 16.2369L36.4046 17.08L36.2289 18.1315C36.1689 18.4931 36.5517 18.7638 36.8734 18.5888L37.8597 18.0501L38.846 18.5888C39.1677 18.7638 39.5506 18.4931 39.4906 18.1315L39.3164 17.08L40.1579 16.2369C40.4121 15.9828 40.2696 15.5481 39.9137 15.4931L38.6686 15.3011L38.2601 14.401C38.1822 14.2293 38.0226 14.1438 37.8613 14.1438ZM16.3851 19.899C16.2241 19.899 16.063 19.9845 15.9847 20.1562L15.5762 21.0546L14.3311 21.2467C13.9752 21.3017 13.8328 21.738 14.0869 21.9921L14.9284 22.8336L14.7526 23.8851C14.6926 24.2467 15.0755 24.519 15.3971 24.344L16.3835 23.8053L17.3714 24.344C17.6931 24.519 18.0743 24.2467 18.0143 23.8851L17.8402 22.8336L18.6833 21.9921C18.9374 21.738 18.795 21.3017 18.4391 21.2467L17.194 21.0546L16.7855 20.1562C16.7072 19.9845 16.5461 19.899 16.3851 19.899ZM43.6149 19.899C43.4538 19.899 43.2921 19.9845 43.2129 20.1562L42.8044 21.0546L41.5593 21.2467C41.2034 21.3017 41.061 21.738 41.3151 21.9921L42.1582 22.8336L41.9841 23.8851C41.9241 24.2467 42.3053 24.519 42.627 24.344L43.6149 23.8053L44.6012 24.344C44.9229 24.519 45.3058 24.2467 45.2458 23.8851L45.07 22.8336L45.9131 21.9921C46.1673 21.738 46.0248 21.3017 45.669 21.2467L44.4238 21.0546L44.0153 20.1562C43.9374 19.9845 43.7761 19.899 43.6149 19.899ZM30 20C27.2535 20 25 22.2534 25 25V26.8994C23.553 27.4209 22.5 28.7999 22.5 30.4166V34.5833C22.5 36.6395 24.1938 38.3333 26.25 38.3333H33.75C35.8063 38.3333 37.5 36.6395 37.5 34.5833V30.4166C37.5 28.7999 36.447 27.4209 35 26.8994V25C35 22.2534 32.7466 20 30 20ZM30 22.5C31.3951 22.5 32.5 23.6048 32.5 25V26.6666H27.5V25C27.5 23.6048 28.6049 22.5 30 22.5ZM14.279 27.7587C14.1178 27.7586 13.9553 27.8447 13.877 28.0159L13.4684 28.9143L12.2249 29.1064C11.8691 29.1614 11.7266 29.5977 11.9808 29.8518L12.8223 30.6933L12.6481 31.7448C12.5881 32.1064 12.9694 32.3787 13.291 32.2037L14.2774 31.665L15.2637 32.2037C15.5854 32.3787 15.9682 32.108 15.9082 31.7464L15.7341 30.6949L16.5755 29.8518C16.8297 29.5977 16.6872 29.163 16.3314 29.108L15.0863 28.916L14.6777 28.0159C14.5998 27.8442 14.4401 27.7589 14.279 27.7587ZM45.721 27.7587C45.5598 27.7587 45.3994 27.8442 45.3207 28.0159L44.9121 28.916L43.667 29.108C43.3112 29.163 43.1687 29.5977 43.4229 29.8518L44.2643 30.6949L44.0902 31.7464C44.0302 32.108 44.413 32.3787 44.7347 32.2037L45.721 31.665L46.7074 32.2037C47.029 32.3787 47.4119 32.108 47.3519 31.7464L47.1761 30.6949L48.0192 29.8518C48.2734 29.5977 48.1309 29.163 47.7751 29.108L46.53 28.916L46.1214 28.0159C46.0435 27.8442 45.8823 27.7587 45.721 27.7587ZM26.25 29.1666H33.75C34.4554 29.1666 35 29.7112 35 30.4166V34.5833C35 35.2887 34.4554 35.8333 33.75 35.8333H26.25C25.5446 35.8333 25 35.2887 25 34.5833V30.4166C25 29.7112 25.5446 29.1666 26.25 29.1666ZM30 30.8333C29.558 30.8333 29.1341 31.0089 28.8215 31.3214C28.5089 31.634 28.3333 32.0579 28.3333 32.5C28.3333 32.942 28.5089 33.3659 28.8215 33.6785C29.1341 33.991 29.558 34.1666 30 34.1666C30.442 34.1666 30.866 33.991 31.1785 33.6785C31.4911 33.3659 31.6667 32.942 31.6667 32.5C31.6667 32.0579 31.4911 31.634 31.1785 31.3214C30.866 31.0089 30.442 30.8333 30 30.8333ZM16.3851 35.6201C16.224 35.6201 16.0618 35.7056 15.9831 35.8772L15.5746 36.7773L14.3294 36.9677C13.9736 37.0227 13.8311 37.459 14.0853 37.7132L14.9284 38.5563L14.7526 39.6061C14.6926 39.9677 15.0755 40.2401 15.3971 40.0651L16.3835 39.5263L17.3714 40.0651C17.6931 40.2401 18.0743 39.9677 18.0143 39.6061L17.8402 38.5563L18.6833 37.7132C18.9374 37.459 18.795 37.0227 18.4391 36.9677L17.194 36.7773L16.7855 35.8772C16.7072 35.7056 16.5463 35.6201 16.3851 35.6201ZM43.6149 35.6201C43.4538 35.6201 43.2921 35.7056 43.2129 35.8772L42.8044 36.7773L41.5593 36.9677C41.2034 37.0227 41.061 37.459 41.3151 37.7132L42.1582 38.5563L41.9841 39.6061C41.9241 39.9677 42.3053 40.2401 42.627 40.0651L43.6149 39.5263L44.6012 40.0651C44.9229 40.2401 45.3058 39.9677 45.2458 39.6061L45.07 38.5563L45.9131 37.7132C46.1673 37.459 46.0248 37.0227 45.669 36.9677L44.4238 36.7773L44.0153 35.8772C43.9374 35.7056 43.7761 35.6201 43.6149 35.6201ZM22.1387 41.3753C21.9774 41.3753 21.817 41.4608 21.7383 41.6324L21.3298 42.5309L20.0846 42.7229C19.7288 42.7779 19.5863 43.2142 19.8405 43.4684L20.682 44.3115L20.5078 45.3613C20.4478 45.723 20.8307 45.9953 21.1524 45.8203L22.1387 45.2815L23.125 45.8203C23.4467 45.9953 23.8295 45.723 23.7695 45.3613L23.5938 44.3115L24.4369 43.4684C24.691 43.2142 24.5486 42.7779 24.1927 42.7229L22.9476 42.5309L22.5391 41.6324C22.4612 41.4608 22.2999 41.3753 22.1387 41.3753ZM37.8613 41.3753C37.7001 41.3753 37.5381 41.4608 37.4593 41.6324L37.0508 42.5309L35.8057 42.7229C35.4498 42.7779 35.3074 43.2142 35.5615 43.4684L36.4046 44.3115L36.2289 45.3613C36.1689 45.723 36.5517 45.9953 36.8734 45.8203L37.8597 45.2815L38.846 45.8203C39.1677 45.9953 39.5506 45.723 39.4906 45.3613L39.3164 44.3115L40.1579 43.4684C40.4121 43.2142 40.2696 42.7779 39.9137 42.7229L38.6686 42.5309L38.2601 41.6324C38.1822 41.4608 38.0226 41.3753 37.8613 41.3753ZM30 43.4814C29.8389 43.4813 29.678 43.5657 29.5996 43.7369L29.1911 44.637L27.946 44.8291C27.5901 44.8841 27.4477 45.3187 27.7018 45.5729L28.5449 46.416L28.3692 47.4674C28.3092 47.8291 28.692 48.0998 29.0137 47.9248L30 47.386L30.9863 47.9264C31.308 48.1014 31.6892 47.8291 31.6292 47.4674L31.4551 46.416L32.2982 45.5745C32.5524 45.3203 32.4099 44.8841 32.0541 44.8291L30.8089 44.637L30.4004 43.7386C30.3225 43.5669 30.1612 43.4815 30 43.4814Z" fill="white"/>
<defs>
<linearGradient id="paint0_linear_2025_244" x1="9" y1="7.875" x2="52.125" y2="49.5" gradientUnits="userSpaceOnUse">
<stop stop-color="#A81B58"/>
<stop offset="1" stop-color="#3C3198"/>
</linearGradient>
</defs>
</svg>
