<svg width="60" height="60" viewBox="0 0 60 60" fill="none" xmlns="http://www.w3.org/2000/svg">
<g clip-path="url(#clip0_172_438)">
<path d="M34.9267 -3.28608e-05C34.5348 0.0117984 34.1512 0.115634 33.8068 0.303087C33.4624 0.490541 33.167 0.756357 32.9443 1.07907L10.4443 33.5791C10.1853 33.9542 10.0337 34.393 10.0061 34.848C9.97841 35.303 10.0757 35.7569 10.2873 36.1607C10.499 36.5644 10.817 36.9026 11.207 37.1386C11.597 37.3747 12.0441 37.4996 12.5 37.5H22.5V57.5C22.5005 58.0326 22.6711 58.5511 22.987 58.9799C23.3028 59.4088 23.7473 59.7256 24.2557 59.8842C24.7642 60.0427 25.31 60.0348 25.8136 59.8615C26.3172 59.6883 26.7524 59.3587 27.0556 58.9209L49.5556 26.4209C49.8146 26.0457 49.9662 25.6069 49.9938 25.1519C50.0215 24.6969 49.9242 24.243 49.7126 23.8393C49.5009 23.4355 49.1829 23.0973 48.7929 22.8613C48.4029 22.6252 47.9558 22.5003 47.5 22.5H37.5V2.49997C37.5001 2.16542 37.433 1.83425 37.3028 1.52607C37.1726 1.2179 36.9819 0.938994 36.7419 0.705871C36.502 0.472748 36.2177 0.290152 35.9059 0.168898C35.5941 0.0476448 35.2611 -0.00979975 34.9267 -3.28608e-05ZM32.5 10.5029V25C32.5 25.663 32.7634 26.2988 33.2323 26.7677C33.7011 27.2365 34.3369 27.4999 35 27.5H42.7294L27.5 49.497V35C27.4999 34.3369 27.2365 33.7011 26.7676 33.2323C26.2988 32.7634 25.663 32.5 25 32.5H17.2705L32.5 10.5029Z" fill="white"/>
</g>
<defs>
<clipPath id="clip0_172_438">
<rect width="60" height="60" fill="white"/>
</clipPath>
</defs>
</svg>
