<svg width="60" height="60" viewBox="0 0 60 60" fill="none" xmlns="http://www.w3.org/2000/svg">
<path d="M30.0001 2.5C29.7584 2.49984 29.517 2.62887 29.3995 2.88574L28.7867 4.2334L26.919 4.52148C26.3853 4.60398 26.1716 5.2584 26.5528 5.63965L27.8175 6.90186L27.5538 8.479C27.4638 9.0215 28.0381 9.42754 28.5206 9.16504L30.0001 8.35938L31.4796 9.16748C31.9621 9.42998 32.5339 9.0215 32.4439 8.479L32.1827 6.9043L33.4474 5.63965C33.8286 5.2584 33.6149 4.60398 33.0812 4.52148L31.2135 4.23584L30.6007 2.88574C30.4838 2.62824 30.2418 2.50016 30.0001 2.5ZM18.2081 6.21582C17.9665 6.21566 17.7268 6.34469 17.61 6.60156L16.9972 7.94922L15.1295 8.23731C14.5957 8.31981 14.382 8.97422 14.7633 9.35547L16.023 10.6201L15.7618 12.1973C15.6718 12.7398 16.2461 13.1458 16.7286 12.8833L18.2081 12.0752L19.6876 12.8833C20.1701 13.1458 20.7444 12.7398 20.6544 12.1973L20.3907 10.6201L21.6554 9.35547C22.0366 8.97422 21.8229 8.32225 21.2892 8.23975L19.4215 7.95166L18.8087 6.60156C18.6918 6.34406 18.4497 6.21598 18.2081 6.21582ZM41.7921 6.21582C41.5502 6.21582 41.3072 6.34406 41.1891 6.60156L40.5763 7.95166L38.7086 8.23975C38.1748 8.32225 37.9611 8.97422 38.3424 9.35547L39.607 10.6201L39.3434 12.1973C39.2534 12.7398 39.8277 13.1458 40.3102 12.8833L41.7896 12.0752L43.2691 12.8833C43.7516 13.1458 44.3259 12.7398 44.2359 12.1973L43.9747 10.6201L45.2369 9.35547C45.6182 8.97422 45.4044 8.32225 44.8707 8.23975L43.003 7.95166L42.3902 6.60156C42.2734 6.34406 42.034 6.21582 41.7921 6.21582ZM9.57773 14.8486C9.33617 14.8486 9.09465 14.9769 8.97715 15.2344L8.36435 16.582L6.49668 16.8701C5.96293 16.9526 5.74922 17.607 6.13047 17.9883L7.39267 19.2505L7.129 20.8276C7.039 21.3701 7.6133 21.7786 8.0958 21.5161L9.57529 20.708L11.0572 21.5161C11.5397 21.7786 12.1116 21.3701 12.0216 20.8276L11.7603 19.2505L13.025 17.9883C13.4062 17.607 13.1925 16.9526 12.6588 16.8701L10.7911 16.582L10.1783 15.2344C10.0608 14.9769 9.81929 14.8486 9.57773 14.8486ZM50.4225 14.8486C50.1807 14.8486 49.9382 14.9769 49.8194 15.2344L49.2066 16.582L47.339 16.8701C46.8052 16.9526 46.5915 17.607 46.9727 17.9883L48.2374 19.2505L47.9762 20.8276C47.8862 21.3701 48.458 21.7786 48.9405 21.5161L50.4225 20.708L51.9019 21.5161C52.3844 21.7786 52.9587 21.3701 52.8687 20.8276L52.6051 19.2505L53.8697 17.9883C54.251 17.607 54.0373 16.9526 53.5035 16.8701L51.6358 16.582L51.023 15.2344C50.9062 14.9769 50.6642 14.8486 50.4225 14.8486ZM30.0001 15C25.8803 15 22.5001 18.3802 22.5001 22.5V25.3491C20.3295 26.1314 18.7501 28.1999 18.7501 30.625V36.875C18.7501 39.9594 21.2907 42.5 24.3751 42.5H35.6251C38.7095 42.5 41.2501 39.9594 41.2501 36.875V30.625C41.2501 28.1999 39.6706 26.1314 37.5001 25.3491V22.5C37.5001 18.3802 34.1199 15 30.0001 15ZM30.0001 18.75C32.0928 18.75 33.7501 20.4073 33.7501 22.5V25H26.2501V22.5C26.2501 20.4073 27.9074 18.75 30.0001 18.75ZM6.41855 26.6382C6.17683 26.638 5.93303 26.7671 5.81553 27.0239L5.20273 28.3716L3.3375 28.6597C2.80375 28.7422 2.59004 29.3966 2.97129 29.7778L4.23349 31.04L3.97226 32.6172C3.88226 33.1597 4.45412 33.5682 4.93662 33.3057L6.41611 32.4976L7.8956 33.3057C8.3781 33.5682 8.9524 33.1621 8.8624 32.6196L8.60117 31.0425L9.86338 29.7778C10.2446 29.3966 10.0309 28.7446 9.49717 28.6621L7.62949 28.374L7.0167 27.0239C6.89982 26.7664 6.66027 26.6383 6.41855 26.6382ZM53.5816 26.6382C53.3398 26.6382 53.0992 26.7664 52.981 27.0239L52.3683 28.374L50.5006 28.6621C49.9668 28.7446 49.7531 29.3966 50.1344 29.7778L51.3966 31.0425L51.1353 32.6196C51.0453 33.1621 51.6196 33.5682 52.1021 33.3057L53.5816 32.4976L55.0611 33.3057C55.5436 33.5682 56.1179 33.1621 56.0279 32.6196L55.7643 31.0425L57.0289 29.7778C57.4102 29.3966 57.1964 28.7446 56.6627 28.6621L54.795 28.374L54.1822 27.0239C54.0653 26.7664 53.8235 26.6382 53.5816 26.6382ZM24.3751 28.75H35.6251C36.6832 28.75 37.5001 29.5669 37.5001 30.625V36.875C37.5001 37.9331 36.6832 38.75 35.6251 38.75H24.3751C23.317 38.75 22.5001 37.9331 22.5001 36.875V30.625C22.5001 29.5669 23.317 28.75 24.3751 28.75ZM30.0001 31.25C29.3371 31.25 28.7012 31.5134 28.2323 31.9822C27.7635 32.4511 27.5001 33.087 27.5001 33.75C27.5001 34.413 27.7635 35.0489 28.2323 35.5178C28.7012 35.9866 29.3371 36.25 30.0001 36.25C30.6631 36.25 31.299 35.9866 31.7679 35.5178C32.2367 35.0489 32.5001 34.413 32.5001 33.75C32.5001 33.087 32.2367 32.4511 31.7679 31.9822C31.299 31.5134 30.6631 31.25 30.0001 31.25ZM9.57773 38.4302C9.33601 38.4302 9.09283 38.5584 8.97471 38.8159L8.36191 40.166L6.49424 40.4517C5.96049 40.5342 5.74678 41.1886 6.12803 41.5698L7.39267 42.8345L7.129 44.4092C7.039 44.9517 7.6133 45.3602 8.0958 45.0977L9.57529 44.2896L11.0572 45.0977C11.5397 45.3602 12.1116 44.9517 12.0216 44.4092L11.7603 42.8345L13.025 41.5698C13.4062 41.1886 13.1925 40.5342 12.6588 40.4517L10.7911 40.166L10.1783 38.8159C10.0608 38.5584 9.81945 38.4302 9.57773 38.4302ZM50.4225 38.4302C50.1807 38.4302 49.9382 38.5584 49.8194 38.8159L49.2066 40.166L47.339 40.4517C46.8052 40.5342 46.5915 41.1886 46.9727 41.5698L48.2374 42.8345L47.9762 44.4092C47.8862 44.9517 48.458 45.3602 48.9405 45.0977L50.4225 44.2896L51.9019 45.0977C52.3844 45.3602 52.9587 44.9517 52.8687 44.4092L52.6051 42.8345L53.8697 41.5698C54.251 41.1886 54.0373 40.5342 53.5035 40.4517L51.6358 40.166L51.023 38.8159C50.9062 38.5584 50.6642 38.4302 50.4225 38.4302ZM18.2081 47.063C17.9662 47.063 17.7256 47.1912 17.6075 47.4487L16.9947 48.7964L15.127 49.0845C14.5933 49.167 14.3796 49.8214 14.7608 50.2026L16.023 51.4673L15.7618 53.042C15.6718 53.5845 16.2461 53.993 16.7286 53.7305L18.2081 52.9224L19.6876 53.7305C20.1701 53.993 20.7444 53.5845 20.6544 53.042L20.3907 51.4673L21.6554 50.2026C22.0366 49.8214 21.8229 49.167 21.2892 49.0845L19.4215 48.7964L18.8087 47.4487C18.6918 47.1912 18.45 47.063 18.2081 47.063ZM41.7921 47.063C41.5502 47.063 41.3072 47.1912 41.1891 47.4487L40.5763 48.7964L38.7086 49.0845C38.1748 49.167 37.9611 49.8214 38.3424 50.2026L39.607 51.4673L39.3434 53.042C39.2534 53.5845 39.8277 53.993 40.3102 53.7305L41.7896 52.9224L43.2691 53.7305C43.7516 53.993 44.3259 53.5845 44.2359 53.042L43.9747 51.4673L45.2369 50.2026C45.6182 49.8214 45.4044 49.167 44.8707 49.0845L43.003 48.7964L42.3902 47.4487C42.2734 47.1912 42.034 47.063 41.7921 47.063ZM30.0001 50.2222C29.7584 50.222 29.517 50.3486 29.3995 50.6055L28.7867 51.9556L26.919 52.2437C26.3853 52.3262 26.1716 52.9781 26.5528 53.3594L27.8175 54.624L27.5538 56.2012C27.4638 56.7437 28.0381 57.1497 28.5206 56.8872L30.0001 56.0791L31.4796 56.8897C31.9621 57.1522 32.5339 56.7437 32.4439 56.2012L32.1827 54.624L33.4474 53.3618C33.8286 52.9806 33.6149 52.3262 33.0812 52.2437L31.2135 51.9556L30.6007 50.6079C30.4838 50.3504 30.2418 50.2223 30.0001 50.2222Z" fill="white"/>
</svg>
