<svg width="60" height="60" viewBox="0 0 60 60" fill="none" xmlns="http://www.w3.org/2000/svg">
<path d="M30.0439 4.99995C29.5943 4.99151 29.1506 5.10453 28.7598 5.3271C28.7598 5.3271 20.4959 9.99995 10 9.99995C9.33698 10 8.70113 10.2634 8.23231 10.7323C7.76348 11.2011 7.50007 11.8369 7.5 12.5V31.2109C7.5 39.5421 13.2339 45.5122 18.5596 49.2724C23.8852 53.0327 29.1797 54.8632 29.1797 54.8632C29.711 55.0478 30.289 55.0478 30.8203 54.8632C30.8203 54.8632 36.1148 53.0327 41.4404 49.2724C46.7661 45.5122 52.5 39.5421 52.5 31.2109V12.5C52.4999 11.8369 52.2365 11.2011 51.7677 10.7323C51.2989 10.2634 50.663 10 50 9.99995C39.5041 9.99995 31.2402 5.3271 31.2402 5.3271C30.8753 5.11931 30.4639 5.0068 30.0439 4.99995ZM30 10.2099C31.4888 11.0085 37.9913 14.1443 47.5 14.7509V31.2109C47.5 37.2172 43.2339 41.89 38.5596 45.1904C34.2944 48.2018 30.7185 49.4387 30 49.7021C29.2815 49.4387 25.7056 48.2018 21.4404 45.1904C16.7661 41.89 12.5 37.2172 12.5 31.2109V14.7509C22.0087 14.1443 28.5112 11.0085 30 10.2099ZM39.9512 19.9755C39.3017 19.9949 38.6852 20.2663 38.2324 20.7324L27.5 31.4648L24.2676 28.2324C24.0372 27.9924 23.7613 27.8009 23.456 27.6689C23.1507 27.537 22.8221 27.4672 22.4895 27.4639C22.1569 27.4605 21.8269 27.5235 21.519 27.6492C21.211 27.7749 20.9313 27.9608 20.6961 28.196C20.4609 28.4312 20.275 28.711 20.1493 29.0189C20.0235 29.3269 19.9605 29.6568 19.9639 29.9894C19.9673 30.322 20.037 30.6506 20.169 30.9559C20.3009 31.2612 20.4925 31.5372 20.7324 31.7675L25.7324 36.7675C26.2013 37.2362 26.8371 37.4995 27.5 37.4995C28.1629 37.4995 28.7987 37.2362 29.2676 36.7675L41.7676 24.2675C42.1288 23.9164 42.3756 23.4643 42.4755 22.9705C42.5754 22.4767 42.5238 21.9642 42.3274 21.5002C42.1311 21.0363 41.7991 20.6425 41.3751 20.3704C40.9511 20.0983 40.4548 19.9607 39.9512 19.9755Z" fill="white"/>
</svg>
