<svg width="15" height="13" viewBox="0 0 15 13" fill="none" xmlns="http://www.w3.org/2000/svg">
<path d="M8.99704 0.5C8.84794 0.500039 8.70225 0.544506 8.57858 0.627715C8.4549 0.710924 8.35888 0.829095 8.30278 0.967119C8.24667 1.10514 8.23304 1.25675 8.26362 1.40256C8.2942 1.54836 8.36761 1.68175 8.47445 1.78565L12.4414 5.74936H0.760148C0.660834 5.74796 0.562231 5.76629 0.470069 5.8033C0.377908 5.8403 0.294026 5.89524 0.223298 5.96492C0.152571 6.0346 0.0964082 6.11762 0.0580744 6.20918C0.0197405 6.30073 0 6.39899 0 6.49823C0 6.59747 0.0197405 6.69573 0.0580744 6.78728C0.0964082 6.87884 0.152571 6.96186 0.223298 7.03154C0.294026 7.10122 0.377908 7.15616 0.470069 7.19316C0.562231 7.23016 0.660834 7.2485 0.760148 7.24709H12.4414L8.47445 11.2108C8.40252 11.2798 8.3451 11.3625 8.30554 11.4539C8.26597 11.5454 8.24507 11.6438 8.24406 11.7434C8.24304 11.8431 8.26194 11.9419 8.29963 12.0341C8.33732 12.1264 8.39305 12.2102 8.46356 12.2806C8.53407 12.3511 8.61794 12.4068 8.71026 12.4444C8.80258 12.4821 8.90149 12.501 9.0012 12.5C9.10091 12.4989 9.19941 12.4781 9.29095 12.4385C9.38248 12.399 9.4652 12.3416 9.53426 12.2698L14.7806 7.0277C14.9211 6.88726 15 6.69681 15 6.49823C15 6.29965 14.9211 6.1092 14.7806 5.96876L9.53426 0.726707C9.46441 0.65497 9.38089 0.597948 9.28862 0.559009C9.19635 0.520071 9.0972 0.500006 8.99704 0.5Z" fill="white"/>
</svg>
