<?xml version="1.0" encoding="UTF-8"?>
<svg id="Ebene_1" data-name="Ebene 1" xmlns="http://www.w3.org/2000/svg" viewBox="0 0 825 263.4">
  <defs>
    <style>
      .cls-1 {
        fill: #fff;
      }
    </style>
  </defs>
  <g id="text">
    <g>
      <path class="cls-1" d="M314.8,78.5h10.2l2.9,18.1c1.7,1.7,4.4,3.1,8.1,4.4,3.7,1.2,7.7,1.9,12.1,1.9,7.3,0,12.7-1.7,16.4-4.8,3.7-3.1,5.6-7.5,5.6-13.1,0-3.7-1-6.9-3.1-9.4s-4.8-5-8.3-6.9c-3.5-2.1-8.1-4.4-14.4-7.1-5.2-2.3-10-4.8-14.2-7.5s-7.9-6.2-10.8-10.6c-3.1-4.4-4.6-9.4-4.6-15.4,0-5.4,1.5-10.2,4.4-14.6s7.3-7.5,12.7-10,11.9-3.5,19.2-3.5c4.6,0,8.5.4,12.5,1,3.7.8,7.7,1.7,11.9,2.9,2.1.6,4,1,5.2,1.2l-1,24.6h-9.8l-3.1-17.1c-.8-1-2.9-1.9-5.8-2.7s-6.2-1.2-9.6-1.2c-13.1,0-19.8,5.2-19.8,15.6,0,3.5,1,6.7,2.9,9.4s4.6,4.8,7.9,6.9c3.3,1.9,8.1,4.6,14.8,7.5,6.5,3.1,11.7,5.8,15.8,8.5,4.2,2.5,7.7,5.8,10.6,9.8s4.4,8.7,4.4,14.2c0,5.2-1.5,10.2-4.6,15-2.9,4.8-7.5,8.7-13.5,11.9-6,3.1-13.3,4.6-21.9,4.6-5.2,0-10-.4-14.4-1.5-4.4-1-9-2.1-13.5-3.7-3.1-1-5.4-1.7-6.5-1.7l1.3-26.7h0Z"/>
      <path class="cls-1" d="M411,102.8v-59.5l-10.4-2.9v-9.2l21.7-2.9h.4l3.5,2.9v6.2l-.2,3.5c2.3-2.1,5-4.2,8.5-6s7.1-3.5,11-4.8c4-1.2,7.5-1.9,10.6-1.9,5.4,0,9.8.8,12.9,2.7,3.3,1.9,5.8,4.6,7.5,8.3,1.9-1.7,4.6-3.3,7.9-5s6.9-3.1,10.8-4.4c3.7-1.2,7.3-1.7,10.6-1.7,6.2,0,11.2,1.2,14.8,3.5,3.5,2.3,6,5.8,7.5,10.6s2.2,11.5,2.2,19.8v40.8l10.4,1.2v7.7h-35.8v-7.7l8.5-1.2v-40.1c0-5.6-.4-10-1.2-13.1s-2.3-5.6-4.6-7.3c-2.3-1.7-5.6-2.5-9.8-2.5-2.9,0-6.2.6-9.8,2.1-3.5,1.5-6.5,3.1-9.2,5,.8,4.2,1.2,9.4,1.2,16v40l10.6,1.2v7.7h-37.3v-7.7l9.8-1.2v-40.7c0-5.6-.4-10-1-13.1-.6-3.1-2.1-5.6-4.4-7.1s-5.2-2.5-9.4-2.5c-3.3,0-7.1.8-10.8,2.3-3.7,1.5-7.1,3.3-9.8,5.6v55.2l9.8,1.2v7.7h-35.8v-7.7l9.3-1h0Z"/>
      <path class="cls-1" d="M599.4,56.2c0-4-.4-7.1-1.5-9.2-1-2.3-2.5-4-5-5s-5.6-1.7-10-1.7c-8.3,0-16.9,2.1-26,6h0l-3.7-6.7c1.2-1.2,3.7-2.7,7.5-4.6,3.7-1.9,7.9-3.5,12.7-4.8,4.8-1.2,9.4-2.1,13.5-2.1,7.1,0,12.7.8,16.9,2.7,4.2,1.9,7.1,4.8,8.7,9,1.7,4.2,2.7,9.6,2.7,16.4v45.8h9v7.1c-7.1,1.7-12.5,2.5-16,2.5-2.1,0-3.5-.2-4.6-.4-1-.4-1.9-1-2.3-2.1-.4-1-.8-2.7-.8-4.8v-3.5c-2.7,2.5-6,5-10.4,7.5s-9.2,3.5-14.4,3.5c-4.6,0-9-.8-12.7-2.5s-6.9-4.4-9.2-7.9-3.3-8.1-3.3-13.3c0-6.5,2.3-11.9,6.9-16,4.6-4.2,10.4-7.3,17.7-9.4s15.4-2.9,24.6-2.9v-3.5l-.3-.1h0ZM599.4,67.7c-7.1,0-13.1.8-17.7,2.5-4.6,1.7-7.9,3.7-10,6.5-2.1,2.7-3.1,5.8-3.1,9.2,0,5.2,1.2,9,3.7,11.2,2.5,2.3,6,3.5,10.2,3.5,2.3,0,5-.6,8.3-1.9,3.3-1.2,6-2.9,8.5-4.8l.1-26.2h0Z"/>
      <path class="cls-1" d="M646.6,102.6v-59.3l-10.4-2.9v-8.7l21-2.9h.4l3.5,2.9v4.8l-.2,10h.2c.8-1.7,2.5-4,5-6.7s5.8-5.4,9.8-7.7,8.3-3.5,12.9-3.5c1.9,0,3.5.2,4.8.8v18.5c-.8-.6-2.1-1.2-3.7-1.7-1.5-.4-3.1-.6-5-.6-5,0-9.2.6-12.7,1.9s-6.7,2.9-9,4.8v51.2h19.2v8.5h-47.5v-7.9l11.7-1.5Z"/>
      <path class="cls-1" d="M702.2,38.9v-6.9c1.5-.4,2.9-.8,4.8-1.5,1.9-.6,2.9-1.2,3.5-1.5,1.7-1.2,2.9-3.3,4-6,.8-1.7,1.7-4.6,2.9-8.5,1.2-4,2.1-6.9,2.5-8.7h9.6l.2,22.9h24.6v10.4h-24.6v43.1c0,5.8.2,9.8.4,12.1.2,2.3,1,3.7,2.1,4.4,1,.6,2.9,1,5.8,1h0c2.5,0,5.4-.2,8.5-.8,3.1-.6,5.6-1.2,7.5-1.9h0l2.5,7.1c-1.5,1.2-3.7,2.5-6.7,3.7-2.9,1.2-6,2.3-9.4,3.1s-6.5,1.2-9.4,1.2h-.2c-6,0-10.6-1.2-13.7-4-3.1-2.7-4.6-6.9-4.6-13.1v-56.1h-10.3Z"/>
      <g>
        <path class="cls-1" d="M314.4,261.6v-10l12-2v-87.3l-11.9-2.3v-9.8h49.7v9.8l-14.7,2.3v87l30.7-1.5,9.2-27.4,14.3,1.9-4.7,39.3h-84.6Z"/>
        <path class="cls-1" d="M409.5,239.4c0-3.6.6-6.8,1.9-9.6s3.1-5.2,5.3-7.3c2.3-2.1,4.9-3.9,8-5.3,3.1-1.5,6.4-2.7,10-3.6,3.6-1,7.3-1.6,11.1-2.1,3.9-.4,7.7-.7,11.6-.8v-3.5c0-5.6-1.1-9.5-3.4-11.9s-6-3.6-11.2-3.6c-2.6,0-5.3.2-7.9.6-2.7.4-5.2.9-7.6,1.5s-4.7,1.3-6.8,2c-2.1.8-3.8,1.5-5.3,2.2h-.1l-4.3-9.8c1-.8,2.8-1.9,5.2-3.3,2.4-1.3,5.4-2.6,8.8-3.9,3.4-1.3,7.2-2.4,11.3-3.3,4.1-.9,8.4-1.4,12.8-1.4,5.4,0,10,.6,13.8,1.8s6.9,3,9.2,5.4c2.4,2.4,4.1,5.5,5.2,9.3,1.1,3.7,1.6,8.1,1.6,13.2v45.7h9.1v9c-.9.2-2.1.5-3.4.8-1.4.3-2.9.6-4.5.9-1.7.3-3.4.5-5.3.7s-3.9.3-5.9.3c-1.8,0-3.3-.1-4.5-.2s-2.2-.5-3-1-1.3-1.3-1.6-2.3c-.3-1-.5-2.4-.5-4.1v-4.2c-.8,1.1-2,2.4-3.4,3.7-1.5,1.4-3.2,2.7-5.3,3.9-2.1,1.2-4.4,2.2-7.1,3-2.6.8-5.5,1.2-8.7,1.2-3.5,0-6.7-.5-9.7-1.4s-5.7-2.4-7.9-4.3c-2.3-2-4.1-4.4-5.4-7.5-1.5-3.1-2.1-6.7-2.1-10.8ZM444.2,249.2c.9,0,1.9-.1,3-.4,1.1-.2,2.3-.6,3.5-1s2.4-1,3.6-1.6,2.2-1.3,3.1-2.1v-24.2c-4.7,0-8.7.4-11.9,1.3-3.2.9-5.7,2-7.6,3.5s-3.3,3.1-4.1,5.1-1.2,3.9-1.2,6.1c0,4.3,1,7.6,3,9.9,1.9,2.2,4.8,3.4,8.6,3.4Z"/>
        <path class="cls-1" d="M499.5,257.5v-104.9l-11-1.8v-8.6l28.5-3.6h.3l4.6,3v43.6c1.2-1.2,2.5-2.3,4.1-3.4,1.6-1.1,3.3-2,5.2-2.9s3.9-1.5,6.1-2c2.2-.5,4.6-.8,7.1-.8,4.4,0,8.5.7,12.4,2.2s7.3,3.8,10.3,7.1,5.3,7.5,7,12.7,2.6,11.6,2.6,19.1c0,6.5-1,12.5-3,18.1s-4.8,10.5-8.6,14.6c-3.7,4.1-8.3,7.4-13.7,9.8s-11.4,3.5-18.2,3.5c-4.7,0-9.1-.2-13-.7-3.9-.4-7.3-1-10.2-1.6-2.9-.6-5.3-1.3-7.1-1.9s-2.9-1.1-3.4-1.5ZM535.1,189.5c-3,0-5.7.6-7.9,1.7-2.3,1.1-4,2.4-5.2,3.7v55c.6,1.1,2,2,4,2.7s4.3,1,6.8,1c3.3,0,6.2-.9,8.7-2.6,2.5-1.8,4.5-4.2,6.1-7.2s2.8-6.6,3.6-10.7c.8-4.1,1.2-8.4,1.2-13.1s-.3-9.1-1-12.8c-.7-3.8-1.7-7-3.1-9.6-1.4-2.6-3.2-4.6-5.4-6-2.2-1.5-4.8-2.1-7.8-2.1Z"/>
        <path class="cls-1" d="M588.2,256.9v-20.6h13.5l3.8,11.4c.4.6,1.1,1.3,2,1.9.9.6,2,1.2,3.2,1.7s2.6.9,4.2,1.2c1.6.3,3.2.5,4.9.5,2.4,0,4.4-.3,6-.9,1.5-.6,2.8-1.3,3.7-2.2s1.6-1.9,1.9-3.1c.3-1.1.5-2.3.5-3.3,0-2-.5-3.8-1.6-5.3-1-1.5-2.5-2.9-4.5-4.1-1.9-1.2-4.3-2.5-7-3.6-2.7-1.2-5.8-2.4-9.1-3.8-3.4-1.4-6.4-2.9-9.1-4.6-2.7-1.7-5-3.6-6.8-5.7-1.9-2.1-3.3-4.4-4.4-7-1-2.6-1.5-5.5-1.5-8.7,0-3.5.7-6.7,2.2-9.6,1.4-3,3.6-5.5,6.4-7.7,2.8-2.2,6.3-3.9,10.5-5.1,4.2-1.2,9.1-1.9,14.6-1.9,3.2,0,6.1.2,8.6.6,2.5.4,4.8.8,6.8,1.4,2,.5,3.9,1.1,5.6,1.6,1.7.6,3.4,1,5,1.3v20.2l-12.7-.2-3.4-9.7c-.7-1.1-2-2.2-3.9-3.3-1.9-1-4.3-1.6-7.2-1.6-2.2,0-4,.2-5.5.7s-2.7,1.1-3.6,2c-.9.8-1.5,1.7-1.9,2.7s-.6,2-.6,3c0,2.5.7,4.6,2,6.3,1.3,1.6,3,3,5,4.1s4.2,2.1,6.6,3c2.4.9,4.7,1.8,6.8,2.7,3.2,1.4,6.3,2.9,9.2,4.5s5.5,3.4,7.8,5.5,4.1,4.5,5.4,7.3c1.3,2.8,2,6,2,9.8,0,3.6-.7,6.9-2.1,9.9-1.4,3-3.5,5.7-6.3,7.9-2.8,2.2-6.3,4-10.5,5.3s-9.2,1.9-14.8,1.9c-3.9,0-7.4-.3-10.6-.8-3.2-.5-6.1-1.2-8.7-1.9-2.6-.7-4.9-1.4-7-2.1-2.1-.7-3.9-1.2-5.4-1.6Z"/>
        <path class="cls-1" d="M653.1,261.6l-.1-10,9.4-2,35.3-99.8h23.5l35.2,99.8,10.2,2v10h-47.5v-10l11.9-2-5.5-17.9h-39.7l-5.2,17.9,12.1,2v10h-39.6ZM702.7,173.1l-13.6,47.2h32.9l-14.4-47.2-2.6-10.7-2.3,10.7Z"/>
        <path class="cls-1" d="M776.2,261.6v-10l12.9-2v-87.3l-12.9-2.3v-9.8h48.8v9.8l-12.8,2.3v87.3l12.8,2.2v9.9h-48.8v-.1Z"/>
      </g>
    </g>
  </g>
  <g>
    <polygon class="cls-1" points="0 143 70.3 143 70.3 215.8 107.9 181.4 107.9 106.2 34.3 106.2 0 143"/>
    <polygon class="cls-1" points="18.8 98.1 116.9 98.1 116.9 237.8 174.9 188 174.9 57.2 60.5 57.2 18.8 98.1"/>
    <polygon class="cls-1" points="49.9 47.4 183.1 47.4 183.1 263.1 259.1 175.7 259.1 0 100.5 0 49.9 47.4"/>
    <polygon class="cls-1" points="70.3 143 107.9 106.2 107.9 181.4 70.3 143"/>
    <polygon class="cls-1" points="70.3 143 107.9 106.2 34.3 106.2 70.3 143"/>
    <polygon class="cls-1" points="116.9 98.1 174.9 57.2 174.9 188 116.9 98.1"/>
    <polygon class="cls-1" points="116.9 98.1 174.9 57.2 60.5 57.2 116.9 98.1"/>
    <polygon class="cls-1" points="183.1 47.4 259.1 0 259.1 175.7 183.1 47.4"/>
    <polygon class="cls-1" points="183.1 47.4 259.1 0 100.5 0 183.1 47.4"/>
  </g>
</svg>