<?xml version="1.0" encoding="utf-8"?>
<!-- Generator: $$$/GeneralStr/196=Adobe Illustrator 27.6.0, SVG Export Plug-In . SVG Version: 6.00 Build 0)  -->
<svg version="1.1" id="Ebene_1" xmlns="http://www.w3.org/2000/svg" xmlns:xlink="http://www.w3.org/1999/xlink" x="0px" y="0px"
	 viewBox="0 0 825 263.2" style="enable-background:new 0 0 825 263.2;" xml:space="preserve">
<style type="text/css">
	.st0{fill:#1A1449;}
	.st1{font-family:'Merriweather-Bold';}
	.st2{font-size:149.9156px;}
	.st3{letter-spacing:-42;}
	.st4{fill:#901D4F;}
</style>
<text transform="matrix(1 0 0 1 304.6194 261.6293)" class="st0 st1 st2 st3"> </text>
<g id="text">
	<g>
		<path class="st0" d="M314.8,78.5H325l2.9,18.1c1.7,1.7,4.4,3.1,8.1,4.4c3.7,1.2,7.7,1.9,12.1,1.9c7.3,0,12.7-1.7,16.4-4.8
			c3.7-3.1,5.6-7.5,5.6-13.1c0-3.7-1-6.9-3.1-9.4s-4.8-5-8.3-6.9c-3.5-2.1-8.1-4.4-14.4-7.1c-5.2-2.3-10-4.8-14.2-7.5
			s-7.9-6.2-10.8-10.6c-3.1-4.4-4.6-9.4-4.6-15.4c0-5.4,1.5-10.2,4.4-14.6s7.3-7.5,12.7-10S343.7,0,351,0c4.6,0,8.5,0.4,12.5,1
			c3.7,0.8,7.7,1.7,11.9,2.9c2.1,0.6,4,1,5.2,1.2l-1,24.6h-9.8l-3.1-17.1c-0.8-1-2.9-1.9-5.8-2.7s-6.2-1.2-9.6-1.2
			c-13.1,0-19.8,5.2-19.8,15.6c0,3.5,1,6.7,2.9,9.4s4.6,4.8,7.9,6.9c3.3,1.9,8.1,4.6,14.8,7.5c6.5,3.1,11.7,5.8,15.8,8.5
			c4.2,2.5,7.7,5.8,10.6,9.8s4.4,8.7,4.4,14.2c0,5.2-1.5,10.2-4.6,15c-2.9,4.8-7.5,8.7-13.5,11.9c-6,3.1-13.3,4.6-21.9,4.6
			c-5.2,0-10-0.4-14.4-1.5c-4.4-1-9-2.1-13.5-3.7c-3.1-1-5.4-1.7-6.5-1.7L314.8,78.5L314.8,78.5L314.8,78.5z"/>
		<path class="st0" d="M411,102.8V43.3l-10.4-2.9v-9.2l21.7-2.9h0.4l3.5,2.9v6.2l-0.2,3.5c2.3-2.1,5-4.2,8.5-6s7.1-3.5,11-4.8
			c4-1.2,7.5-1.9,10.6-1.9c5.4,0,9.8,0.8,12.9,2.7c3.3,1.9,5.8,4.6,7.5,8.3c1.9-1.7,4.6-3.3,7.9-5s6.9-3.1,10.8-4.4
			c3.7-1.2,7.3-1.7,10.6-1.7c6.2,0,11.2,1.2,14.8,3.5c3.5,2.3,6,5.8,7.5,10.6s2.2,11.5,2.2,19.8v40.8l10.4,1.2v7.7h-35.8V104
			l8.5-1.2V62.7c0-5.6-0.4-10-1.2-13.1s-2.3-5.6-4.6-7.3c-2.3-1.7-5.6-2.5-9.8-2.5c-2.9,0-6.2,0.6-9.8,2.1c-3.5,1.5-6.5,3.1-9.2,5
			c0.8,4.2,1.2,9.4,1.2,16v40l10.6,1.2v7.7h-37.3v-7.7l9.8-1.2V62.2c0-5.6-0.4-10-1-13.1c-0.6-3.1-2.1-5.6-4.4-7.1s-5.2-2.5-9.4-2.5
			c-3.3,0-7.1,0.8-10.8,2.3c-3.7,1.5-7.1,3.3-9.8,5.6v55.2l9.8,1.2v7.7h-35.8v-7.7L411,102.8L411,102.8L411,102.8z"/>
		<path class="st0" d="M599.4,56.2c0-4-0.4-7.1-1.5-9.2c-1-2.3-2.5-4-5-5s-5.6-1.7-10-1.7c-8.3,0-16.9,2.1-26,6l0,0l-3.7-6.7
			c1.2-1.2,3.7-2.7,7.5-4.6c3.7-1.9,7.9-3.5,12.7-4.8c4.8-1.2,9.4-2.1,13.5-2.1c7.1,0,12.7,0.8,16.9,2.7c4.2,1.9,7.1,4.8,8.7,9
			c1.7,4.2,2.7,9.6,2.7,16.4V102h9v7.1c-7.1,1.7-12.5,2.5-16,2.5c-2.1,0-3.5-0.2-4.6-0.4c-1-0.4-1.9-1-2.3-2.1
			c-0.4-1-0.8-2.7-0.8-4.8v-3.5c-2.7,2.5-6,5-10.4,7.5s-9.2,3.5-14.4,3.5c-4.6,0-9-0.8-12.7-2.5s-6.9-4.4-9.2-7.9s-3.3-8.1-3.3-13.3
			c0-6.5,2.3-11.9,6.9-16c4.6-4.2,10.4-7.3,17.7-9.4s15.4-2.9,24.6-2.9v-3.5L599.4,56.2L599.4,56.2L599.4,56.2L599.4,56.2z
			 M599.4,67.7c-7.1,0-13.1,0.8-17.7,2.5c-4.6,1.7-7.9,3.7-10,6.5c-2.1,2.7-3.1,5.8-3.1,9.2c0,5.2,1.2,9,3.7,11.2
			c2.5,2.3,6,3.5,10.2,3.5c2.3,0,5-0.6,8.3-1.9c3.3-1.2,6-2.9,8.5-4.8L599.4,67.7L599.4,67.7L599.4,67.7z"/>
		<path class="st0" d="M646.6,102.6V43.3l-10.4-2.9v-8.7l21-2.9h0.4l3.5,2.9v4.8l-0.2,10h0.2c0.8-1.7,2.5-4,5-6.7s5.8-5.4,9.8-7.7
			s8.3-3.5,12.9-3.5c1.9,0,3.5,0.2,4.8,0.8v18.5c-0.8-0.6-2.1-1.2-3.7-1.7c-1.5-0.4-3.1-0.6-5-0.6c-5,0-9.2,0.6-12.7,1.9
			s-6.7,2.9-9,4.8v51.2h19.2v8.5h-47.5v-7.9L646.6,102.6z"/>
		<path class="st0" d="M702.2,38.9V32c1.5-0.4,2.9-0.8,4.8-1.5c1.9-0.6,2.9-1.2,3.5-1.5c1.7-1.2,2.9-3.3,4-6
			c0.8-1.7,1.7-4.6,2.9-8.5c1.2-4,2.1-6.9,2.5-8.7h9.6l0.2,22.9h24.6v10.4h-24.6v43.1c0,5.8,0.2,9.8,0.4,12.1c0.2,2.3,1,3.7,2.1,4.4
			c1,0.6,2.9,1,5.8,1l0,0c2.5,0,5.4-0.2,8.5-0.8c3.1-0.6,5.6-1.2,7.5-1.9l0,0l2.5,7.1c-1.5,1.2-3.7,2.5-6.7,3.7
			c-2.9,1.2-6,2.3-9.4,3.1s-6.5,1.2-9.4,1.2h-0.2c-6,0-10.6-1.2-13.7-4c-3.1-2.7-4.6-6.9-4.6-13.1V38.9H702.2L702.2,38.9z"/>
		<g>
			<path class="st0" d="M314.4,261.6v-10l12-2v-87.3l-11.9-2.3v-9.8h49.7v9.8l-14.7,2.3v87l30.7-1.5l9.2-27.4l14.3,1.9l-4.7,39.3
				H314.4z"/>
			<path class="st0" d="M409.5,239.4c0-3.6,0.6-6.8,1.9-9.6s3.1-5.2,5.3-7.3c2.3-2.1,4.9-3.9,8-5.3c3.1-1.5,6.4-2.7,10-3.6
				c3.6-1,7.3-1.6,11.1-2.1c3.9-0.4,7.7-0.7,11.6-0.8v-3.5c0-5.6-1.1-9.5-3.4-11.9s-6-3.6-11.2-3.6c-2.6,0-5.3,0.2-7.9,0.6
				c-2.7,0.4-5.2,0.9-7.6,1.5s-4.7,1.3-6.8,2c-2.1,0.8-3.8,1.5-5.3,2.2h-0.1l-4.3-9.8c1-0.8,2.8-1.9,5.2-3.3
				c2.4-1.3,5.4-2.6,8.8-3.9c3.4-1.3,7.2-2.4,11.3-3.3c4.1-0.9,8.4-1.4,12.8-1.4c5.4,0,10,0.6,13.8,1.8s6.9,3,9.2,5.4
				c2.4,2.4,4.1,5.5,5.2,9.3c1.1,3.7,1.6,8.1,1.6,13.2v45.7h9.1v9c-0.9,0.2-2.1,0.5-3.4,0.8c-1.4,0.3-2.9,0.6-4.5,0.9
				c-1.7,0.3-3.4,0.5-5.3,0.7s-3.9,0.3-5.9,0.3c-1.8,0-3.3-0.1-4.5-0.2s-2.2-0.5-3-1s-1.3-1.3-1.6-2.3c-0.3-1-0.5-2.4-0.5-4.1v-4.2
				c-0.8,1.1-2,2.4-3.4,3.7c-1.5,1.4-3.2,2.7-5.3,3.9c-2.1,1.2-4.4,2.2-7.1,3c-2.6,0.8-5.5,1.2-8.7,1.2c-3.5,0-6.7-0.5-9.7-1.4
				s-5.7-2.4-7.9-4.3c-2.3-2-4.1-4.4-5.4-7.5C410.1,247.1,409.5,243.5,409.5,239.4z M444.2,249.2c0.9,0,1.9-0.1,3-0.4
				c1.1-0.2,2.3-0.6,3.5-1s2.4-1,3.6-1.6s2.2-1.3,3.1-2.1v-24.2c-4.7,0-8.7,0.4-11.9,1.3c-3.2,0.9-5.7,2-7.6,3.5s-3.3,3.1-4.1,5.1
				s-1.2,3.9-1.2,6.1c0,4.3,1,7.6,3,9.9C437.5,248,440.4,249.2,444.2,249.2z"/>
			<path class="st0" d="M499.5,257.5V152.6l-11-1.8v-8.6l28.5-3.6h0.3l4.6,3v43.6c1.2-1.2,2.5-2.3,4.1-3.4c1.6-1.1,3.3-2,5.2-2.9
				s3.9-1.5,6.1-2c2.2-0.5,4.6-0.8,7.1-0.8c4.4,0,8.5,0.7,12.4,2.2s7.3,3.8,10.3,7.1s5.3,7.5,7,12.7s2.6,11.6,2.6,19.1
				c0,6.5-1,12.5-3,18.1s-4.8,10.5-8.6,14.6c-3.7,4.1-8.3,7.4-13.7,9.8s-11.4,3.5-18.2,3.5c-4.7,0-9.1-0.2-13-0.7
				c-3.9-0.4-7.3-1-10.2-1.6c-2.9-0.6-5.3-1.3-7.1-1.9S500,257.9,499.5,257.5z M535.1,189.5c-3,0-5.7,0.6-7.9,1.7
				c-2.3,1.1-4,2.4-5.2,3.7v55c0.6,1.1,2,2,4,2.7s4.3,1,6.8,1c3.3,0,6.2-0.9,8.7-2.6c2.5-1.8,4.5-4.2,6.1-7.2s2.8-6.6,3.6-10.7
				c0.8-4.1,1.2-8.4,1.2-13.1c0-4.8-0.3-9.1-1-12.8c-0.7-3.8-1.7-7-3.1-9.6c-1.4-2.6-3.2-4.6-5.4-6
				C540.7,190.1,538.1,189.5,535.1,189.5z"/>
			<path class="st0" d="M588.2,256.9v-20.6h13.5l3.8,11.4c0.4,0.6,1.1,1.3,2,1.9c0.9,0.6,2,1.2,3.2,1.7s2.6,0.9,4.2,1.2
				c1.6,0.3,3.2,0.5,4.9,0.5c2.4,0,4.4-0.3,6-0.9c1.5-0.6,2.8-1.3,3.7-2.2s1.6-1.9,1.9-3.1c0.3-1.1,0.5-2.3,0.5-3.3
				c0-2-0.5-3.8-1.6-5.3c-1-1.5-2.5-2.9-4.5-4.1c-1.9-1.2-4.3-2.5-7-3.6c-2.7-1.2-5.8-2.4-9.1-3.8c-3.4-1.4-6.4-2.9-9.1-4.6
				c-2.7-1.7-5-3.6-6.8-5.7c-1.9-2.1-3.3-4.4-4.4-7c-1-2.6-1.5-5.5-1.5-8.7c0-3.5,0.7-6.7,2.2-9.6c1.4-3,3.6-5.5,6.4-7.7
				c2.8-2.2,6.3-3.9,10.5-5.1c4.2-1.2,9.1-1.9,14.6-1.9c3.2,0,6.1,0.2,8.6,0.6c2.5,0.4,4.8,0.8,6.8,1.4c2,0.5,3.9,1.1,5.6,1.6
				c1.7,0.6,3.4,1,5,1.3v20.2l-12.7-0.2l-3.4-9.7c-0.7-1.1-2-2.2-3.9-3.3c-1.9-1-4.3-1.6-7.2-1.6c-2.2,0-4,0.2-5.5,0.7
				s-2.7,1.1-3.6,2c-0.9,0.8-1.5,1.7-1.9,2.7s-0.6,2-0.6,3c0,2.5,0.7,4.6,2,6.3c1.3,1.6,3,3,5,4.1s4.2,2.1,6.6,3
				c2.4,0.9,4.7,1.8,6.8,2.7c3.2,1.4,6.3,2.9,9.2,4.5s5.5,3.4,7.8,5.5s4.1,4.5,5.4,7.3c1.3,2.8,2,6,2,9.8c0,3.6-0.7,6.9-2.1,9.9
				c-1.4,3-3.5,5.7-6.3,7.9s-6.3,4-10.5,5.3s-9.2,1.9-14.8,1.9c-3.9,0-7.4-0.3-10.6-0.8c-3.2-0.5-6.1-1.2-8.7-1.9
				c-2.6-0.7-4.9-1.4-7-2.1C591.5,257.8,589.7,257.3,588.2,256.9z"/>
			<path class="st0" d="M653.1,261.6l-0.1-10l9.4-2l35.3-99.8h23.5l35.2,99.8l10.2,2v10h-47.5v-10l11.9-2l-5.5-17.9h-39.7l-5.2,17.9
				l12.1,2v10H653.1z M702.7,173.1l-13.6,47.2H722l-14.4-47.2l-2.6-10.7L702.7,173.1z"/>
			<path class="st0" d="M776.2,261.6v-10l12.9-2v-87.3l-12.9-2.3v-9.8H825v9.8l-12.8,2.3v87.3l12.8,2.2v9.9h-48.8V261.6z"/>
		</g>
	</g>
</g>
<g>
	<polygon class="st4" points="0,143 70.3,143 70.3,215.8 107.9,181.4 107.9,106.2 34.3,106.2 	"/>
	<polygon class="st4" points="18.8,98.1 116.9,98.1 116.9,237.8 174.9,188 174.9,57.2 60.5,57.2 	"/>
	<polygon class="st4" points="49.9,47.4 183.1,47.4 183.1,263.1 259.1,175.7 259.1,0 100.5,0 	"/>
	<polygon class="st4" points="70.3,143 107.9,106.2 107.9,181.4 	"/>
	<polygon class="st4" points="70.3,143 107.9,106.2 34.3,106.2 	"/>
	<polygon class="st4" points="116.9,98.1 174.9,57.2 174.9,188 	"/>
	<polygon class="st4" points="116.9,98.1 174.9,57.2 60.5,57.2 	"/>
	<polygon class="st4" points="183.1,47.4 259.1,0 259.1,175.7 	"/>
	<polygon class="st4" points="183.1,47.4 259.1,0 100.5,0 	"/>
</g>
</svg>
