<svg width="80" height="80" viewBox="0 0 80 80" fill="none" xmlns="http://www.w3.org/2000/svg">
<path d="M16.6666 13.3335C11.1834 13.3335 6.66663 17.8503 6.66663 23.3335V56.6668C6.66663 62.1501 11.1834 66.6668 16.6666 66.6668H20V73.3335C20.0001 74.1227 20.2802 74.8862 20.7905 75.4882C21.3007 76.0902 22.008 76.4917 22.7864 76.6213C22.7864 76.6213 25.9902 77.1325 29.6028 75.7684C32.6932 74.6015 36.0122 71.4999 38.457 66.6668H63.3333C68.8165 66.6668 73.3333 62.1501 73.3333 56.6668V23.3335C73.3333 17.8503 68.8165 13.3335 63.3333 13.3335H16.6666ZM16.6666 20.0002H63.3333C65.2167 20.0002 66.6666 21.4501 66.6666 23.3335V56.6668C66.6666 58.5503 65.2167 60.0002 63.3333 60.0002H36.6666C35.9826 60.0004 35.3152 60.2111 34.7551 60.6036C34.1949 60.9961 33.769 61.5514 33.5351 62.1942C31.7177 67.1776 29.2501 68.7747 27.2461 69.5314C26.9008 69.6618 26.9702 69.5453 26.6666 69.6226V63.3335C26.6665 62.4495 26.3153 61.6017 25.6902 60.9766C25.0651 60.3515 24.2173 60.0003 23.3333 60.0002H16.6666C14.7832 60.0002 13.3333 58.5503 13.3333 56.6668V23.3335C13.3333 21.4501 14.7832 20.0002 16.6666 20.0002ZM27.5716 30.3322C25.2849 30.3322 23.4244 32.1893 23.4244 34.4793V45.521C23.4244 47.8077 25.2816 49.6681 27.5716 49.6681H38.6198C40.9098 49.6681 42.7604 47.811 42.7604 45.521V34.4793C42.7604 32.1927 40.9098 30.3322 38.6198 30.3322H27.5716ZM52.5065 30.3322C52.0631 30.3322 51.6348 30.5167 51.3281 30.84L46.0416 36.452C45.845 36.662 45.7356 36.9401 45.7356 37.2267V42.5848C45.7356 42.9948 45.895 43.3884 46.1783 43.6851L51.3346 49.1603C51.6379 49.4837 52.0631 49.6681 52.5065 49.6681H53.7955C54.6855 49.6681 55.4036 48.9501 55.4036 48.0601V31.9403C55.4036 31.0503 54.6855 30.3322 53.7955 30.3322H52.5065Z" fill="url(#paint0_linear_18_545)"/>
<defs>
<linearGradient id="paint0_linear_18_545" x1="6.66663" y1="45.0243" x2="41.1669" y2="58.6239" gradientUnits="userSpaceOnUse">
<stop stop-color="#A81B58"/>
<stop offset="1" stop-color="#3C3198"/>
</linearGradient>
</defs>
</svg>
