<svg width="80" height="80" viewBox="0 0 80 80" fill="none" xmlns="http://www.w3.org/2000/svg">
<path d="M10 13.3335C9.11599 13.3336 8.2682 13.6848 7.6431 14.3099C7.01799 14.935 6.66678 15.7828 6.66669 16.6668V30.0002C6.66678 30.8842 7.01799 31.732 7.6431 32.3571C8.2682 32.9822 9.11599 33.3334 10 33.3335H23.3334C24.2174 33.3334 25.0652 32.9822 25.6903 32.3571C26.3154 31.732 26.6666 30.8842 26.6667 30.0002V16.6668C26.6666 15.7828 26.3154 14.935 25.6903 14.3099C25.0652 13.6848 24.2174 13.3336 23.3334 13.3335H10ZM13.3334 20.0002H20V26.6668H13.3334V20.0002ZM36.6667 20.0002C36.225 19.9939 35.7864 20.0755 35.3765 20.2402C34.9667 20.4049 34.5936 20.6495 34.279 20.9596C33.9644 21.2698 33.7147 21.6394 33.5442 22.0469C33.3737 22.4544 33.2859 22.8917 33.2859 23.3335C33.2859 23.7752 33.3737 24.2126 33.5442 24.6201C33.7147 25.0276 33.9644 25.3972 34.279 25.7074C34.5936 26.0175 34.9667 26.262 35.3765 26.4268C35.7864 26.5915 36.225 26.6731 36.6667 26.6668H70C70.4417 26.6731 70.8803 26.5915 71.2902 26.4268C71.7001 26.262 72.0731 26.0175 72.3877 25.7074C72.7023 25.3972 72.952 25.0276 73.1225 24.6201C73.293 24.2126 73.3808 23.7752 73.3808 23.3335C73.3808 22.8917 73.293 22.4544 73.1225 22.0469C72.952 21.6394 72.7023 21.2698 72.3877 20.9596C72.0731 20.6495 71.7001 20.4049 71.2902 20.2402C70.8803 20.0755 70.4417 19.9939 70 20.0002H36.6667ZM10 46.6668C9.11599 46.6669 8.2682 47.0181 7.6431 47.6432C7.01799 48.2683 6.66678 49.1161 6.66669 50.0002V63.3335C6.66678 64.2175 7.01799 65.0653 7.6431 65.6904C8.2682 66.3155 9.11599 66.6667 10 66.6668H23.3334C24.2174 66.6667 25.0652 66.3155 25.6903 65.6904C26.3154 65.0653 26.6666 64.2175 26.6667 63.3335V50.0002C26.6666 49.1161 26.3154 48.2683 25.6903 47.6432C25.0652 47.0181 24.2174 46.6669 23.3334 46.6668H10ZM13.3334 53.3335H20V60.0002H13.3334V53.3335ZM36.6667 53.3335C36.225 53.3272 35.7864 53.4089 35.3765 53.5736C34.9667 53.7383 34.5936 53.9828 34.279 54.293C33.9644 54.6031 33.7147 54.9727 33.5442 55.3802C33.3737 55.7877 33.2859 56.2251 33.2859 56.6668C33.2859 57.1086 33.3737 57.5459 33.5442 57.9534C33.7147 58.361 33.9644 58.7305 34.279 59.0407C34.5936 59.3508 34.9667 59.5954 35.3765 59.7601C35.7864 59.9248 36.225 60.0064 36.6667 60.0002H70C70.4417 60.0064 70.8803 59.9248 71.2902 59.7601C71.7001 59.5954 72.0731 59.3508 72.3877 59.0407C72.7023 58.7305 72.952 58.361 73.1225 57.9534C73.293 57.5459 73.3808 57.1086 73.3808 56.6668C73.3808 56.2251 73.293 55.7877 73.1225 55.3802C72.952 54.9727 72.7023 54.6031 72.3877 54.293C72.0731 53.9828 71.7001 53.7383 71.2902 53.5736C70.8803 53.4089 70.4417 53.3272 70 53.3335H36.6667Z" fill="url(#paint0_linear_18_537)"/>
<defs>
<linearGradient id="paint0_linear_18_537" x1="6.66669" y1="40.0002" x2="39.3693" y2="55.3308" gradientUnits="userSpaceOnUse">
<stop stop-color="#A81B58"/>
<stop offset="1" stop-color="#3C3198"/>
</linearGradient>
</defs>
</svg>
