<svg width="80" height="80" viewBox="0 0 80 80" fill="none" xmlns="http://www.w3.org/2000/svg">
<path d="M40 3.3335C35.6346 3.3335 31.9633 6.14633 30.599 10.0457C30.4011 10.0126 30.2006 9.9973 30 10.0002H16.6667C13.0231 10.0002 10 13.0233 10 16.6668V63.3335C10 66.977 13.0231 70.0002 16.6667 70.0002H63.3333C66.9769 70.0002 70 66.977 70 63.3335V16.6668C70 13.0233 66.9769 10.0002 63.3333 10.0002H50C49.7992 9.99945 49.5987 10.0169 49.401 10.0522C48.0383 6.14978 44.3676 3.3335 40 3.3335ZM40 10.0002C41.84 10.0002 43.3333 11.4935 43.3333 13.3335C43.3333 15.1735 41.84 16.6668 40 16.6668C38.16 16.6668 36.6667 15.1735 36.6667 13.3335C36.6667 11.4935 38.16 10.0002 40 10.0002ZM16.6667 16.6668H26.6667V20.0002C26.6667 21.8402 28.16 23.3335 30 23.3335H50C51.84 23.3335 53.3333 21.8402 53.3333 20.0002V16.6668H63.3333V63.3335H16.6667V16.6668ZM26.6667 30.0002C26.225 29.9939 25.7864 30.0755 25.3765 30.2402C24.9666 30.4049 24.5936 30.6495 24.279 30.9596C23.9644 31.2698 23.7146 31.6394 23.5441 32.0469C23.3737 32.4544 23.2859 32.8917 23.2859 33.3335C23.2859 33.7752 23.3737 34.2126 23.5441 34.6201C23.7146 35.0276 23.9644 35.3972 24.279 35.7074C24.5936 36.0175 24.9666 36.262 25.3765 36.4268C25.7864 36.5915 26.225 36.6731 26.6667 36.6668H53.3333C53.775 36.6731 54.2136 36.5915 54.6235 36.4268C55.0334 36.262 55.4064 36.0175 55.721 35.7074C56.0356 35.3972 56.2854 35.0276 56.4559 34.6201C56.6263 34.2126 56.7141 33.7752 56.7141 33.3335C56.7141 32.8917 56.6263 32.4544 56.4559 32.0469C56.2854 31.6394 56.0356 31.2698 55.721 30.9596C55.4064 30.6495 55.0334 30.4049 54.6235 30.2402C54.2136 30.0755 53.775 29.9939 53.3333 30.0002H26.6667ZM53.3464 43.314C52.8229 43.3179 52.3077 43.445 51.8424 43.6851L40 49.6095L34.8242 47.0184C34.3613 46.7869 33.8509 46.6664 33.3333 46.6664C32.8158 46.6664 32.3054 46.7869 31.8424 47.0184L25.1758 50.3517C24.385 50.7471 23.7836 51.4405 23.504 52.2793C23.2244 53.1181 23.2895 54.0336 23.6849 54.8244C24.0803 55.6152 24.7737 56.2165 25.6125 56.4961C26.4512 56.7757 27.3667 56.7107 28.1576 56.3153L33.3333 53.7241L38.5091 56.3153C38.972 56.5467 39.4825 56.6672 40 56.6672C40.5175 56.6672 41.028 56.5467 41.4909 56.3153L54.8242 49.6486C55.5057 49.319 56.0547 48.7673 56.3809 48.0842C56.7071 47.4011 56.7912 46.6273 56.6192 45.8901C56.4472 45.1529 56.0294 44.4962 55.4346 44.028C54.8398 43.5598 54.1033 43.308 53.3464 43.314Z" fill="url(#paint0_linear_18_533)"/>
<defs>
<linearGradient id="paint0_linear_18_533" x1="10" y1="36.6668" x2="42.2106" y2="47.5311" gradientUnits="userSpaceOnUse">
<stop stop-color="#A81B58"/>
<stop offset="1" stop-color="#3C3198"/>
</linearGradient>
</defs>
</svg>
