<svg width="80" height="80" viewBox="0 0 80 80" fill="none" xmlns="http://www.w3.org/2000/svg">
<g clip-path="url(#clip0_18_541)">
<path d="M40 7.08643C36.3167 7.08643 33.3333 10.0698 33.3333 13.7531V17.0864C33.3333 20.7698 36.3167 23.7531 40 23.7531C43.6833 23.7531 46.6667 20.7698 46.6667 17.0864V13.7531C46.6667 10.0698 43.6833 7.08643 40 7.08643ZM9.99999 10.4198C6.31666 10.4198 3.33332 13.4031 3.33332 17.0864V20.4198C3.33332 24.1031 6.31666 27.0864 9.99999 27.0864C13.6833 27.0864 16.6667 24.1031 16.6667 20.4198V17.0864C16.6667 13.4031 13.6833 10.4198 9.99999 10.4198ZM70 10.4198C66.3167 10.4198 63.3333 13.4031 63.3333 17.0864V20.4198C63.3333 24.1031 66.3167 27.0864 70 27.0864C73.6833 27.0864 76.6667 24.1031 76.6667 20.4198V17.0864C76.6667 13.4031 73.6833 10.4198 70 10.4198ZM40 30.4198C30.5333 30.4198 26.6667 38.5564 26.6667 40.4198H16.4974C15.7253 36.6157 12.3657 33.7531 8.33332 33.7531C3.72999 33.7531 -1.03898e-05 37.4831 -1.03898e-05 42.0864V52.0864C-1.03898e-05 56.4444 3.35496 59.9795 7.61718 60.3481C7.85261 60.3978 8.09272 60.4218 8.33332 60.4198H23.3333V77.0864C23.3271 77.5281 23.4087 77.9667 23.5734 78.3766C23.7381 78.7865 23.9826 79.1595 24.2928 79.4741C24.6029 79.7887 24.9725 80.0385 25.38 80.2089C25.7876 80.3794 26.2249 80.4672 26.6667 80.4672C27.1084 80.4672 27.5458 80.3794 27.9533 80.2089C28.3608 80.0385 28.7304 79.7887 29.0405 79.4741C29.3507 79.1595 29.5952 78.7865 29.7599 78.3766C29.9246 77.9667 30.0062 77.5281 30 77.0864V57.0864C29.9986 56.3646 29.7631 55.6628 29.3287 55.0864C28.8943 54.5099 28.2846 54.09 27.5911 53.8898L27.6172 53.8768L16.6667 50.8494V47.0864H63.3333V50.8494L52.3828 53.8768L52.4088 53.8898C51.7154 54.09 51.1057 54.5099 50.6713 55.0864C50.2369 55.6628 50.0013 56.3646 50 57.0864V77.0864C49.9937 77.5281 50.0753 77.9667 50.2401 78.3766C50.4048 78.7865 50.6493 79.1595 50.9595 79.4741C51.2696 79.7887 51.6392 80.0385 52.0467 80.2089C52.4542 80.3794 52.8916 80.4672 53.3333 80.4672C53.7751 80.4672 54.2124 80.3794 54.6199 80.2089C55.0275 80.0385 55.397 79.7887 55.7072 79.4741C56.0173 79.1595 56.2619 78.7865 56.4266 78.3766C56.5913 77.9667 56.6729 77.5281 56.6667 77.0864V60.4198H71.6667C71.9094 60.4223 72.1517 60.3983 72.3893 60.3481C76.6484 59.9764 80 56.4422 80 52.0864V42.0864C80 37.4831 76.27 33.7531 71.6667 33.7531C67.6343 33.7531 64.2747 36.6157 63.5026 40.4198H53.3333C53.3333 38.7131 49.4667 30.4198 40 30.4198ZM3.33332 63.7531C2.89162 63.7468 2.45307 63.8284 2.04318 63.9932C1.63329 64.1579 1.26021 64.4024 0.945649 64.7126C0.631084 65.0227 0.381297 65.3923 0.210804 65.7998C0.040312 66.2073 -0.0474854 66.6447 -0.0474854 67.0864C-0.0474854 67.5282 0.040312 67.9655 0.210804 68.373C0.381297 68.7806 0.631084 69.1501 0.945649 69.4603C1.26021 69.7704 1.63329 70.015 2.04318 70.1797C2.45307 70.3444 2.89162 70.426 3.33332 70.4198H13.3333C13.775 70.426 14.2136 70.3444 14.6235 70.1797C15.0334 70.015 15.4064 69.7704 15.721 69.4603C16.0356 69.1501 16.2853 68.7806 16.4558 68.373C16.6263 67.9655 16.7141 67.5282 16.7141 67.0864C16.7141 66.6447 16.6263 66.2073 16.4558 65.7998C16.2853 65.3923 16.0356 65.0227 15.721 64.7126C15.4064 64.4024 15.0334 64.1579 14.6235 63.9932C14.2136 63.8284 13.775 63.7468 13.3333 63.7531H3.33332ZM66.6667 63.7531C66.2249 63.7468 65.7864 63.8284 65.3765 63.9932C64.9666 64.1579 64.5935 64.4024 64.279 64.7126C63.9644 65.0227 63.7146 65.3923 63.5441 65.7998C63.3736 66.2073 63.2858 66.6447 63.2858 67.0864C63.2858 67.5282 63.3736 67.9655 63.5441 68.373C63.7146 68.7806 63.9644 69.1501 64.279 69.4603C64.5935 69.7704 64.9666 70.015 65.3765 70.1797C65.7864 70.3444 66.2249 70.426 66.6667 70.4198H76.6667C77.1084 70.426 77.5469 70.3444 77.9568 70.1797C78.3667 70.015 78.7398 69.7704 79.0543 69.4603C79.3689 69.1501 79.6187 68.7806 79.7892 68.373C79.9597 67.9655 80.0475 67.5282 80.0475 67.0864C80.0475 66.6447 79.9597 66.2073 79.7892 65.7998C79.6187 65.3923 79.3689 65.0227 79.0543 64.7126C78.7398 64.4024 78.3667 64.1579 77.9568 63.9932C77.5469 63.8284 77.1084 63.7468 76.6667 63.7531H66.6667Z" fill="url(#paint0_linear_18_541)"/>
</g>
<defs>
<linearGradient id="paint0_linear_18_541" x1="-0.0474859" y1="43.7768" x2="40.978" y2="60.5585" gradientUnits="userSpaceOnUse">
<stop stop-color="#A81B58"/>
<stop offset="1" stop-color="#3C3198"/>
</linearGradient>
<clipPath id="clip0_18_541">
<rect width="80" height="80" fill="white"/>
</clipPath>
</defs>
</svg>
