<svg width="40" height="40" viewBox="0 0 40 40" fill="none" xmlns="http://www.w3.org/2000/svg">
<path d="M16.6667 3.33325C9.4478 3.33325 3.55226 9.12335 3.35286 16.2955C3.29846 16.5343 3.29735 16.7821 3.3496 17.0214L3.35286 17.0279C3.54715 24.2046 9.44451 29.9999 16.6667 29.9999C19.74 29.9999 22.5683 28.9423 24.8275 27.1842L33.8216 36.1783C33.9752 36.3383 34.1591 36.466 34.3627 36.5539C34.5662 36.6419 34.7853 36.6884 35.007 36.6907C35.2288 36.6929 35.4487 36.6509 35.654 36.5671C35.8593 36.4833 36.0458 36.3593 36.2026 36.2025C36.3594 36.0457 36.4833 35.8592 36.5672 35.6539C36.651 35.4486 36.693 35.2287 36.6907 35.0069C36.6885 34.7852 36.642 34.5662 36.554 34.3626C36.466 34.1591 36.3383 33.9751 36.1784 33.8215L27.1842 24.8274C28.619 22.9837 29.5806 20.7608 29.8861 18.3333H35C35.2208 18.3364 35.4401 18.2956 35.6451 18.2132C35.85 18.1309 36.0365 18.0086 36.1938 17.8535C36.3511 17.6984 36.476 17.5137 36.5613 17.3099C36.6465 17.1061 36.6904 16.8875 36.6904 16.6666C36.6904 16.4457 36.6465 16.227 36.5613 16.0233C36.476 15.8195 36.3511 15.6347 36.1938 15.4797C36.0365 15.3246 35.85 15.2023 35.6451 15.12C35.4401 15.0376 35.2208 14.9968 35 14.9999H28.6133C28.4333 14.9702 28.2496 14.9702 28.0697 14.9999H23.3333C22.8913 15 22.4675 15.1756 22.1549 15.4882L20 17.6432L14.5117 12.1549C14.3539 11.997 14.1659 11.8724 13.9591 11.7885C13.7522 11.7046 13.5305 11.6632 13.3073 11.6666C12.8743 11.6735 12.4611 11.8486 12.1549 12.1549L9.30989 14.9999H6.8164C7.60632 10.2588 11.6936 6.66659 16.6667 6.66659C20.0744 6.66659 23.0554 8.36241 24.8633 10.957C24.9852 11.1438 25.1434 11.3043 25.3285 11.4289C25.5136 11.5535 25.7219 11.6397 25.9409 11.6823C26.1599 11.725 26.3853 11.7232 26.6036 11.6771C26.8219 11.631 27.0288 11.5415 27.2119 11.414C27.395 11.2865 27.5506 11.1235 27.6696 10.9347C27.7885 10.7459 27.8683 10.5352 27.9043 10.3149C27.9403 10.0947 27.9317 9.86953 27.879 9.6527C27.8263 9.43586 27.7307 9.23182 27.5977 9.05265C25.1922 5.60053 21.1856 3.33325 16.6667 3.33325ZM13.3333 15.69L18.8216 21.1783C19.1342 21.4907 19.558 21.6663 20 21.6663C20.4419 21.6663 20.8658 21.4907 21.1784 21.1783L24.0234 18.3333H26.5169C25.727 23.0743 21.6398 26.6666 16.6667 26.6666C11.6936 26.6666 7.60632 23.0743 6.8164 18.3333H10C10.442 18.3332 10.8659 18.1575 11.1784 17.845L13.3333 15.69Z" fill="white"/>
</svg>
