<svg width="40" height="40" viewBox="0 0 40 40" fill="none" xmlns="http://www.w3.org/2000/svg">
<path d="M10.8333 3.33325C8.55157 3.33325 6.66667 5.21815 6.66667 7.49992V32.4999C6.66667 34.7817 8.55157 36.6666 10.8333 36.6666H29.1667C31.4484 36.6666 33.3333 34.7817 33.3333 32.4999V13.3333C33.3333 12.8913 33.1576 12.4674 32.8451 12.1549L24.5117 3.82153C24.1992 3.50897 23.7753 3.33334 23.3333 3.33325H10.8333ZM10.8333 6.66659H21.6667V13.3333C21.6667 13.7753 21.8423 14.1992 22.1549 14.5117C22.4674 14.8243 22.8913 14.9999 23.3333 14.9999H30V32.4999C30 32.9781 29.6449 33.3333 29.1667 33.3333H10.8333C10.3551 33.3333 10 32.9781 10 32.4999V7.49992C10 7.02169 10.3551 6.66659 10.8333 6.66659ZM25 9.02336L27.6432 11.6666H25V9.02336ZM15 16.6666C14.7792 16.6635 14.5599 16.7043 14.3549 16.7866C14.15 16.869 13.9635 16.9912 13.8062 17.1463C13.6489 17.3014 13.524 17.4862 13.4387 17.6899C13.3535 17.8937 13.3096 18.1124 13.3096 18.3333C13.3096 18.5541 13.3535 18.7728 13.4387 18.9766C13.524 19.1803 13.6489 19.3651 13.8062 19.5202C13.9635 19.6753 14.15 19.7975 14.3549 19.8799C14.5599 19.9622 14.7792 20.003 15 19.9999H25C25.2209 20.003 25.4401 19.9622 25.6451 19.8799C25.85 19.7975 26.0366 19.6753 26.1938 19.5202C26.3511 19.3651 26.476 19.1803 26.5613 18.9766C26.6465 18.7728 26.6904 18.5541 26.6904 18.3333C26.6904 18.1124 26.6465 17.8937 26.5613 17.6899C26.476 17.4862 26.3511 17.3014 26.1938 17.1463C26.0366 16.9912 25.85 16.869 25.6451 16.7866C25.4401 16.7043 25.2209 16.6635 25 16.6666H15ZM15 21.6666C14.7792 21.6635 14.5599 21.7043 14.3549 21.7866C14.15 21.869 13.9635 21.9912 13.8062 22.1463C13.6489 22.3014 13.524 22.4862 13.4387 22.6899C13.3535 22.8937 13.3096 23.1124 13.3096 23.3333C13.3096 23.5541 13.3535 23.7728 13.4387 23.9766C13.524 24.1803 13.6489 24.3651 13.8062 24.5202C13.9635 24.6753 14.15 24.7975 14.3549 24.8799C14.5599 24.9622 14.7792 25.003 15 24.9999H25C25.2209 25.003 25.4401 24.9622 25.6451 24.8799C25.85 24.7975 26.0366 24.6753 26.1938 24.5202C26.3511 24.3651 26.476 24.1803 26.5613 23.9766C26.6465 23.7728 26.6904 23.5541 26.6904 23.3333C26.6904 23.1124 26.6465 22.8937 26.5613 22.6899C26.476 22.4862 26.3511 22.3014 26.1938 22.1463C26.0366 21.9912 25.85 21.869 25.6451 21.7866C25.4401 21.7043 25.2209 21.6635 25 21.6666H15ZM15 26.6666C14.7792 26.6635 14.5599 26.7043 14.3549 26.7866C14.15 26.869 13.9635 26.9912 13.8062 27.1463C13.6489 27.3014 13.524 27.4862 13.4387 27.6899C13.3535 27.8937 13.3096 28.1124 13.3096 28.3333C13.3096 28.5541 13.3535 28.7728 13.4387 28.9766C13.524 29.1803 13.6489 29.3651 13.8062 29.5202C13.9635 29.6753 14.15 29.7975 14.3549 29.8799C14.5599 29.9622 14.7792 30.003 15 29.9999H21.6667C21.8875 30.003 22.1068 29.9622 22.3117 29.8799C22.5167 29.7975 22.7032 29.6753 22.8605 29.5202C23.0178 29.3651 23.1427 29.1803 23.2279 28.9766C23.3132 28.7728 23.3571 28.5541 23.3571 28.3333C23.3571 28.1124 23.3132 27.8937 23.2279 27.6899C23.1427 27.4862 23.0178 27.3014 22.8605 27.1463C22.7032 26.9912 22.5167 26.869 22.3117 26.7866C22.1068 26.7043 21.8875 26.6635 21.6667 26.6666H15Z" fill="white"/>
</svg>
