<svg width="40" height="40" viewBox="0 0 40 40" fill="none" xmlns="http://www.w3.org/2000/svg">
<path d="M19.9707 3.31388C19.7516 3.31687 19.5351 3.36305 19.3339 3.44978C19.1326 3.5365 18.9504 3.66207 18.7977 3.8193C18.645 3.97652 18.5248 4.16232 18.444 4.36605C18.3632 4.56978 18.3234 4.78744 18.3268 5.00659V5.33862C11.4533 6.14086 6.13406 11.4631 5.33203 18.3367H4.99674C4.77589 18.3335 4.55661 18.3743 4.35167 18.4567C4.14672 18.5391 3.96019 18.6613 3.8029 18.8164C3.64562 18.9715 3.52073 19.1563 3.43548 19.36C3.35023 19.5638 3.30634 19.7825 3.30634 20.0033C3.30634 20.2242 3.35023 20.4429 3.43548 20.6466C3.52073 20.8504 3.64562 21.0352 3.8029 21.1903C3.96019 21.3453 4.14672 21.4676 4.35167 21.55C4.55661 21.6323 4.77589 21.6731 4.99674 21.67H5.33203C6.13442 28.543 11.4538 33.8624 18.3268 34.6648V35.0001C18.3237 35.2209 18.3645 35.4402 18.4469 35.6451C18.5292 35.8501 18.6515 36.0366 18.8066 36.1939C18.9616 36.3512 19.1464 36.4761 19.3502 36.5613C19.5539 36.6466 19.7726 36.6905 19.9935 36.6905C20.2144 36.6905 20.433 36.6466 20.6368 36.5613C20.8406 36.4761 21.0253 36.3512 21.1804 36.1939C21.3355 36.0366 21.4578 35.8501 21.5401 35.6451C21.6225 35.4402 21.6633 35.2209 21.6602 35.0001V34.6648C28.5336 33.8628 33.8525 28.5433 34.6549 21.67H34.9935C35.2143 21.6731 35.4336 21.6323 35.6386 21.55C35.8435 21.4676 36.03 21.3453 36.1873 21.1903C36.3446 21.0352 36.4695 20.8504 36.5547 20.6466C36.64 20.4429 36.6839 20.2242 36.6839 20.0033C36.6839 19.7825 36.64 19.5638 36.5547 19.36C36.4695 19.1563 36.3446 18.9715 36.1873 18.8164C36.03 18.6613 35.8435 18.5391 35.6386 18.4567C35.4336 18.3743 35.2143 18.3335 34.9935 18.3367H34.6549C33.8529 11.4628 28.5341 6.14048 21.6602 5.33862V5.00659C21.6636 4.78361 21.6223 4.5622 21.5387 4.35547C21.4551 4.14874 21.3308 3.9609 21.1733 3.80306C21.0158 3.64522 20.8281 3.5206 20.6216 3.43657C20.415 3.35255 20.1937 3.31082 19.9707 3.31388ZM18.3268 8.67195V13.532C16.9714 13.8487 15.816 14.5303 14.9967 15.4526C14.251 16.2921 13.791 17.2939 13.5449 18.3367H8.6621C9.41343 13.273 13.2634 9.42388 18.3268 8.67195ZM21.6602 8.67195C26.7241 9.42342 30.5734 13.2728 31.3249 18.3367H26.4453C26.1992 17.2939 25.7392 16.2921 24.9935 15.4526C24.1742 14.5302 23.0167 13.8487 21.6602 13.532V8.67195ZM19.8698 16.6733C19.9521 16.6794 20.0348 16.6794 20.1172 16.6733C21.2855 16.7017 21.991 17.0931 22.5 17.6661C23.0138 18.2445 23.3075 19.0759 23.3236 19.9317C23.3213 19.9816 23.3213 20.0316 23.3236 20.0815C23.3062 20.9347 23.0125 21.7603 22.5 22.3373C21.987 22.9149 21.2763 23.3075 20.0911 23.3302C20.025 23.3262 19.9587 23.3262 19.8926 23.3302C18.71 23.3066 18.0027 22.9142 17.4902 22.3373C16.9764 21.7589 16.6827 20.9305 16.6667 20.0749C16.6689 20.0251 16.6689 19.9751 16.6667 19.9252C16.6841 19.0717 16.9777 18.2431 17.4902 17.6661C17.9992 17.0932 18.702 16.7018 19.8698 16.6733ZM8.6621 21.67H13.5449C13.791 22.7118 14.251 23.7114 14.9967 24.5509C15.816 25.4731 16.9714 26.1547 18.3268 26.4714V31.3347C13.2637 30.5829 9.41388 26.7332 8.6621 21.67ZM26.4453 21.67H31.3249C30.5729 26.7334 26.7238 30.5834 21.6602 31.3347V26.4714C23.0167 26.1548 24.1742 25.4732 24.9935 24.5509C25.7392 23.7114 26.1992 22.7118 26.4453 21.67Z" fill="white"/>
</svg>
