<svg width="60" height="60" viewBox="0 0 60 60" fill="none" xmlns="http://www.w3.org/2000/svg">
<path d="M23.1152 5.02931C22.4985 5.08289 21.863 5.24885 21.2939 5.56153C20.0272 6.25804 19.4044 7.23292 18.8135 8.25196C18.2226 9.27101 17.7341 10.4025 17.2998 11.5674C16.6238 13.3804 16.2176 15.0209 15.835 16.5039C13.3577 17.0404 10.9703 17.6064 9.22852 18.4717C8.15094 19.007 7.21149 19.6084 6.43066 20.4297C5.64984 21.251 5 22.4191 5 23.75C5 25.8287 6.40766 27.2943 7.89551 28.2715C9.38335 29.2487 11.2291 29.9668 13.4229 30.5762C13.91 30.7115 14.4746 30.8151 14.9951 30.9375V33.457L6.38184 37.7637C6.07404 37.9178 5.80139 38.1338 5.58095 38.3982C5.36052 38.6626 5.19705 38.9697 5.10079 39.3001C5.00453 39.6306 4.97755 39.9775 5.02154 40.3189C5.06553 40.6603 5.17955 40.9889 5.35645 41.2842L12.8564 53.7842C13.0189 54.0778 13.2389 54.3356 13.5031 54.5424C13.7674 54.7491 14.0705 54.9006 14.3945 54.9878C14.7185 55.0749 15.0568 55.096 15.3891 55.0496C15.7214 55.0033 16.041 54.8906 16.3289 54.7181C16.6167 54.5457 16.8669 54.3171 17.0645 54.0459C17.2621 53.7748 17.4031 53.4666 17.4792 53.1398C17.5552 52.813 17.5646 52.4742 17.507 52.1437C17.4493 51.8132 17.3257 51.4976 17.1436 51.2158L11.0303 41.0303L15.0732 39.0088C15.8327 46.5847 22.2239 52.5 30 52.5C37.7761 52.5 44.1673 46.5847 44.9268 39.0088L48.9697 41.0303L42.8564 51.2158C42.6743 51.4976 42.5507 51.8132 42.493 52.1437C42.4354 52.4742 42.4448 52.813 42.5208 53.1398C42.5969 53.4666 42.7379 53.7748 42.9355 54.0459C43.1331 54.3171 43.3833 54.5457 43.6712 54.7181C43.959 54.8906 44.2786 55.0033 44.6109 55.0496C44.9432 55.096 45.2815 55.0749 45.6055 54.9878C45.9295 54.9006 46.2326 54.7491 46.4969 54.5424C46.7611 54.3356 46.9811 54.0777 47.1436 53.7842L54.6436 41.2842C54.8204 40.9889 54.9345 40.6603 54.9785 40.3189C55.0224 39.9775 54.9955 39.6306 54.8992 39.3001C54.803 38.9697 54.6395 38.6626 54.4191 38.3982C54.1986 38.1338 53.926 37.9178 53.6182 37.7637L45.0049 33.457V30.9375C45.5255 30.8151 46.09 30.7115 46.5771 30.5762C48.7709 29.9668 50.6166 29.2487 52.1045 28.2715C53.5923 27.2943 55 25.8287 55 23.75C55 22.4191 54.3502 21.251 53.5693 20.4297C52.7885 19.6084 51.8491 19.007 50.7715 18.4717C49.0297 17.6064 46.6423 17.0404 44.165 16.5039C43.7824 15.0209 43.3762 13.3804 42.7002 11.5674C42.2659 10.4025 41.7774 9.27101 41.1865 8.25196C40.5956 7.23292 39.9728 6.25804 38.7061 5.56153C37.568 4.93616 36.1696 4.89811 35.1709 5.17091C34.1722 5.44371 33.4522 5.88928 32.8174 6.26954C31.5478 7.03007 30.6833 7.50001 30 7.50001C29.3167 7.50001 28.4522 7.03007 27.1826 6.26954C26.5478 5.88928 25.8278 5.44371 24.8291 5.17091C24.3297 5.03451 23.7319 4.97572 23.1152 5.02931ZM23.6279 10.0537C23.7903 10.1135 24.1127 10.2562 24.6143 10.5567C25.736 11.2286 27.4958 12.5 30 12.5C32.5042 12.5 34.264 11.2286 35.3857 10.5567C35.8873 10.2562 36.2097 10.1135 36.3721 10.0537C36.3313 10.0526 36.5422 10.2082 36.8604 10.7568C37.2293 11.3932 37.6401 12.3113 38.0127 13.3106C38.4213 14.4064 38.7776 15.5709 39.0869 16.665C37.1783 17.051 34.1838 17.4902 29.9805 17.4902C25.8278 17.4902 22.8313 17.0468 20.9131 16.6602C21.2221 15.5674 21.5794 14.4047 21.9873 13.3106C22.3599 12.3113 22.7707 11.3932 23.1396 10.7568C23.4578 10.2082 23.6687 10.0526 23.6279 10.0537ZM17.7881 21.0742C19.307 21.483 23.6608 22.4902 29.9805 22.4902C36.3407 22.4902 40.674 21.4896 42.2119 21.0742C44.917 21.5936 47.1737 22.268 48.5449 22.9492C49.2005 23.2749 49.6012 23.5792 49.8193 23.7842C49.7635 23.8192 49.6519 23.9003 49.3604 24.0918C48.5712 24.6101 47.117 25.2402 45.2393 25.7617C41.4837 26.8049 36.0262 27.5 30 27.5C23.9738 27.5 18.5163 26.8049 14.7607 25.7617C12.883 25.2402 11.4288 24.6101 10.6396 24.0918C10.3481 23.9003 10.2365 23.8192 10.1807 23.7842C10.3988 23.5792 10.7995 23.2749 11.4551 22.9492C12.8263 22.268 15.083 21.5936 17.7881 21.0742ZM19.9951 31.8506H20V33.75C20 35.82 21.68 37.5 23.75 37.5H26.25C28.32 37.5 30 35.82 30 33.75C30 35.82 31.68 37.5 33.75 37.5H36.25C38.32 37.5 40 35.82 40 33.75V31.8506H40.0098V34.541C39.959 34.8285 39.959 35.1227 40.0098 35.4102V37.4951C40.0073 43.0126 35.5175 47.5 30 47.5C24.4825 47.5 19.9951 43.0126 19.9951 37.4951V35.376C20.0376 35.1124 20.0376 34.8437 19.9951 34.5801V31.8506Z" fill="white"/>
</svg>
