<svg width="60" height="60" viewBox="0 0 60 60" fill="none" xmlns="http://www.w3.org/2000/svg">
<path d="M30 7.5C24.266 7.5 19.0771 8.20435 15.1123 9.44336C13.1298 10.0629 11.45 10.8002 10.0878 11.8066C8.92567 12.6653 7.91395 13.8995 7.6269 15.4443C7.54077 15.7041 7.49788 15.9763 7.49995 16.25V26.25V36.25V46.25C7.49995 48.1939 8.72559 49.6869 10.0878 50.6934C11.4501 51.6998 13.1298 52.4372 15.1123 53.0566C19.0772 54.2956 24.2664 55 30 55C35.7335 55 40.9227 54.2956 44.8876 53.0566C46.8701 52.4372 48.5498 51.6998 49.9121 50.6934C51.2743 49.6869 52.5 48.1939 52.5 46.25V36.25V26.25V16.25C52.5026 15.9747 52.4597 15.7008 52.373 15.4395C52.0847 13.8968 51.073 12.6644 49.9121 11.8066C48.5499 10.8002 46.8701 10.0629 44.8876 9.44336C40.9228 8.20435 35.7339 7.5 30 7.5ZM30 12.5C35.3117 12.5 40.1247 13.1957 43.3984 14.2188C45.0353 14.7303 46.2814 15.341 46.9433 15.8301C47.2372 16.0472 47.3443 16.1693 47.4121 16.25C47.3443 16.3307 47.2372 16.4528 46.9433 16.6699C46.2814 17.159 45.0353 17.7697 43.3984 18.2812C40.1247 19.3043 35.3117 20 30 20C24.6882 20 19.8752 19.3043 16.6015 18.2812C14.9646 17.7697 13.7185 17.159 13.0566 16.6699C12.7627 16.4528 12.6556 16.3307 12.5878 16.25C12.6556 16.1693 12.7627 16.0472 13.0566 15.8301C13.7185 15.341 14.9646 14.7303 16.6015 14.2188C19.8752 13.1957 24.6882 12.5 30 12.5ZM12.4999 22.0703C13.3049 22.4349 14.1686 22.7617 15.1123 23.0566C19.0771 24.2957 24.266 25 30 25C35.7339 25 40.9228 24.2957 44.8876 23.0566C45.8313 22.7617 46.695 22.4349 47.5 22.0703V26.1621C47.4925 26.1533 47.4178 26.3193 46.9433 26.6699C46.2813 27.159 45.0353 27.7698 43.3984 28.2812C40.1246 29.3042 35.3114 30 30 30C24.6885 30 19.8753 29.3042 16.6015 28.2812C14.9646 27.7698 13.7186 27.159 13.0566 26.6699C12.5821 26.3193 12.5073 26.1533 12.4999 26.1621V22.0703ZM12.4999 32.0703C13.3049 32.4349 14.1685 32.7618 15.1123 33.0566C19.0772 34.2956 24.2664 35 30 35C35.7335 35 40.9227 34.2956 44.8876 33.0566C45.8314 32.7618 46.695 32.4349 47.5 32.0703V36.1621C47.4925 36.1533 47.4178 36.3193 46.9433 36.6699C46.2813 37.159 45.0353 37.7698 43.3984 38.2812C40.1246 39.3042 35.3114 40 30 40C24.6885 40 19.8753 39.3042 16.6015 38.2812C14.9646 37.7698 13.7186 37.159 13.0566 36.6699C12.5821 36.3193 12.5073 36.1533 12.4999 36.1621V32.0703ZM12.4999 42.0703C13.3049 42.4349 14.1685 42.7618 15.1123 43.0566C19.0772 44.2956 24.2664 45 30 45C35.7335 45 40.9227 44.2956 44.8876 43.0566C45.8314 42.7618 46.695 42.4349 47.5 42.0703V46.1621C47.4925 46.1533 47.4178 46.3193 46.9433 46.6699C46.2813 47.159 45.0353 47.7698 43.3984 48.2812C40.1246 49.3042 35.3114 50 30 50C24.6885 50 19.8753 49.3042 16.6015 48.2812C14.9646 47.7698 13.7186 47.159 13.0566 46.6699C12.5821 46.3193 12.5073 46.1533 12.4999 46.1621V42.0703Z" fill="white"/>
</svg>
