<svg width="60" height="60" viewBox="0 0 60 60" fill="none" xmlns="http://www.w3.org/2000/svg">
<path d="M30.0439 5.00001C29.5943 4.99157 29.1506 5.10459 28.7598 5.32716C28.7598 5.32716 20.4959 10 10 10C9.33698 10.0001 8.70113 10.2635 8.23231 10.7323C7.76348 11.2011 7.50007 11.837 7.5 12.5V31.211C7.5 39.5422 13.2339 45.5122 18.5596 49.2725C23.8852 53.0327 29.1797 54.8633 29.1797 54.8633C29.711 55.0478 30.289 55.0478 30.8203 54.8633C30.8203 54.8633 36.1148 53.0327 41.4404 49.2725C46.7661 45.5122 52.5 39.5422 52.5 31.211V12.5C52.4999 11.837 52.2365 11.2011 51.7677 10.7323C51.2989 10.2635 50.663 10.0001 50 10C39.5041 10 31.2402 5.32716 31.2402 5.32716C30.8753 5.11937 30.4639 5.00686 30.0439 5.00001ZM30 10.21C31.4888 11.0086 37.9913 14.1443 47.5 14.751V31.211C47.5 37.2172 43.2339 41.8901 38.5596 45.1904C34.2944 48.2019 30.7185 49.4387 30 49.7022C29.2815 49.4387 25.7056 48.2019 21.4404 45.1904C16.7661 41.8901 12.5 37.2172 12.5 31.211V14.751C22.0087 14.1443 28.5112 11.0086 30 10.21Z" fill="white"/>
</svg>
