<svg width="36" height="36" viewBox="0 0 36 36" fill="none" xmlns="http://www.w3.org/2000/svg">
<path d="M0 19.5666H9.63263V29.5278L14.7846 24.8209V14.5312H4.69985L0 19.5666Z" fill="white"/>
<path d="M2.57605 13.423H16.0179V32.5382L23.9651 25.724V7.82666H8.28986L2.57605 13.423Z" fill="white"/>
<path d="M6.83743 6.48575H25.0887V36L35.5024 24.041V0H13.7707L6.83743 6.48575Z" fill="white"/>
<path d="M9.63269 19.5666L14.7847 14.5312V24.8209L9.63269 19.5666Z" fill="white"/>
<path d="M9.63269 19.5666L14.7847 14.5312H4.69991L9.63269 19.5666Z" fill="white"/>
<path d="M16.0179 13.423L23.9652 7.82666V25.724L16.0179 13.423Z" fill="white"/>
<path d="M16.0179 13.423L23.9652 7.82666H8.28989L16.0179 13.423Z" fill="white"/>
<path d="M25.0888 6.48574L35.5024 0V24.041L25.0888 6.48574Z" fill="white"/>
<path d="M25.0887 6.48575L35.5024 0H13.7707L25.0887 6.48575Z" fill="white"/>
</svg>
