<svg width="113" height="36" viewBox="0 0 113 36" fill="none" xmlns="http://www.w3.org/2000/svg">
<g clip-path="url(#clip0_2014_147)">
<path d="M43.118 10.7371H44.5151L44.9123 13.2128C45.1452 13.4453 45.515 13.6368 46.0218 13.8146C46.5285 13.9787 47.0764 14.0745 47.6791 14.0745C48.679 14.0745 49.4186 13.8419 49.9254 13.4179C50.4322 12.9939 50.6924 12.3921 50.6924 11.6261C50.6924 11.1201 50.5555 10.6824 50.2678 10.3404C49.9802 9.99848 49.6104 9.65653 49.131 9.39666C48.6516 9.10942 48.0215 8.79483 47.1586 8.42553C46.4464 8.11094 45.7889 7.769 45.2136 7.39969C44.6384 7.03039 44.1316 6.55167 43.7344 5.94985C43.3098 5.34802 43.1043 4.66413 43.1043 3.84346C43.1043 3.10486 43.3098 2.44833 43.707 1.8465C44.1042 1.24468 44.7068 0.820669 45.4465 0.478723C46.1861 0.136778 47.0764 0 48.0763 0C48.7064 0 49.2405 0.0547112 49.7884 0.136778C50.2952 0.246201 50.8431 0.369301 51.4184 0.533435C51.706 0.615501 51.9662 0.670213 52.1306 0.697568L51.9936 4.06231H50.6513L50.2267 1.7234C50.1172 1.58663 49.8295 1.46353 49.4323 1.3541C49.0351 1.24468 48.5831 1.18997 48.1174 1.18997C46.3231 1.18997 45.4054 1.90122 45.4054 3.32371C45.4054 3.80243 45.5424 4.24012 45.8026 4.60942C46.0628 4.97872 46.4327 5.26596 46.8847 5.55319C47.3367 5.81307 47.9941 6.18237 48.9118 6.57903C49.8021 7.00304 50.5144 7.37234 51.0759 7.74164C51.6512 8.08359 52.1306 8.53495 52.5278 9.08207C52.925 9.62918 53.1305 10.272 53.1305 11.0243C53.1305 11.7356 52.925 12.4195 52.5004 13.076C52.1032 13.7325 51.4732 14.266 50.6513 14.7036C49.8295 15.1277 48.8296 15.3328 47.6517 15.3328C46.9395 15.3328 46.282 15.2781 45.6793 15.1277C45.0767 14.9909 44.4466 14.8404 43.8302 14.6216C43.4056 14.4848 43.0906 14.3891 42.9399 14.3891L43.118 10.7371Z" fill="white"/>
<path d="M56.2945 14.0608V5.92249L54.87 5.52583V4.26748L57.8422 3.87082H57.897L58.3764 4.26748V5.1155L58.349 5.59422C58.6641 5.30699 59.0339 5.01976 59.5133 4.77356C59.9927 4.52735 60.4858 4.29483 61.0199 4.11702C61.5678 3.95289 62.0472 3.85714 62.4718 3.85714C63.2114 3.85714 63.8141 3.96656 64.2387 4.22644C64.6907 4.48632 65.0331 4.85562 65.266 5.3617C65.5262 5.12918 65.8961 4.91033 66.3481 4.67781C66.8001 4.44529 67.2931 4.2538 67.8273 4.07599C68.3341 3.91185 68.8272 3.84346 69.2792 3.84346C70.1284 3.84346 70.8133 4.0076 71.3064 4.32219C71.7857 4.63678 72.1282 5.1155 72.3336 5.77204C72.5391 6.42857 72.635 7.34498 72.635 8.48024V14.0608L74.0595 14.2249V15.2781H69.1559V14.2249L70.3202 14.0608V8.57599C70.3202 7.81003 70.2654 7.2082 70.1558 6.78419C70.0462 6.36018 69.8408 6.01824 69.5258 5.78571C69.2107 5.55319 68.7587 5.44377 68.1834 5.44377C67.7862 5.44377 67.3342 5.52583 66.8411 5.731C66.3618 5.93617 65.9508 6.15501 65.581 6.41489C65.6906 6.98936 65.7454 7.70061 65.7454 8.60334V14.0745L67.1973 14.2386V15.2918H62.0883V14.2386L63.4306 14.0745V8.5076C63.4306 7.74164 63.3758 7.13982 63.2936 6.7158C63.2114 6.29179 63.006 5.94985 62.691 5.74468C62.3759 5.53951 61.9787 5.40273 61.4034 5.40273C60.9514 5.40273 60.431 5.51216 59.9242 5.71732C59.4174 5.92249 58.9517 6.16869 58.5819 6.48328V14.0334L59.9242 14.1976V15.2508H55.0207V14.1976L56.2945 14.0608Z" fill="white"/>
<path d="M82.0996 7.68693C82.0996 7.13982 82.0448 6.7158 81.8941 6.42857C81.7571 6.11398 81.5517 5.88146 81.2093 5.74468C80.8668 5.6079 80.4422 5.51216 79.8396 5.51216C78.7027 5.51216 77.5248 5.79939 76.2783 6.33283L75.7716 5.41641C75.9359 5.25228 76.2783 5.04711 76.7988 4.78723C77.3056 4.52735 77.8809 4.30851 78.5383 4.1307C79.1958 3.96656 79.8259 3.84346 80.3874 3.84346C81.3599 3.84346 82.1269 3.95289 82.7022 4.21276C83.2775 4.47264 83.6747 4.8693 83.8939 5.44377C84.1267 6.01824 84.2637 6.75684 84.2637 7.68693V13.9514H85.4964V14.9225C84.5239 15.155 83.7843 15.2644 83.3049 15.2644C83.0173 15.2644 82.8255 15.2371 82.6748 15.2097C82.5379 15.155 82.4146 15.0729 82.3598 14.9225C82.305 14.7857 82.2502 14.5532 82.2502 14.266V13.7872C81.8804 14.1292 81.4284 14.4711 80.8257 14.8131C80.2231 15.155 79.5656 15.2918 78.8534 15.2918C78.2233 15.2918 77.6206 15.1824 77.1139 14.9498C76.6071 14.7173 76.1688 14.348 75.8537 13.8693C75.5387 13.3906 75.4017 12.7614 75.4017 12.0501C75.4017 11.1611 75.7168 10.4225 76.3468 9.8617C76.9769 9.28723 77.7713 8.86322 78.7712 8.57599C79.7711 8.28875 80.8805 8.17933 82.1406 8.17933V7.70061L82.0996 7.68693ZM82.0996 9.25988C81.1271 9.25988 80.3053 9.3693 79.6752 9.60182C79.0451 9.83434 78.5931 10.1079 78.3055 10.4909C78.0179 10.8602 77.8809 11.2842 77.8809 11.7492C77.8809 12.4605 78.0452 12.9802 78.3877 13.2812C78.7301 13.5957 79.2095 13.7599 79.7848 13.7599C80.0998 13.7599 80.4696 13.6778 80.9216 13.5C81.3736 13.3359 81.7434 13.1033 82.0859 12.8435L82.0996 9.25988Z" fill="white"/>
<path d="M88.5646 14.0334V5.92249L87.1401 5.52584V4.33587L90.0165 3.93921H90.0712L90.5506 4.33587V4.9924L90.5232 6.36018H90.5506C90.6602 6.12766 90.8931 5.81307 91.2355 5.44377C91.5779 5.07447 92.0299 4.70517 92.5778 4.39058C93.1257 4.07599 93.7146 3.91185 94.3447 3.91185C94.6049 3.91185 94.8241 3.93921 95.0022 4.02128V6.55167C94.8926 6.4696 94.7145 6.38754 94.4954 6.31915C94.2899 6.26444 94.0708 6.23708 93.8105 6.23708C93.1257 6.23708 92.5504 6.31915 92.071 6.49696C91.5916 6.67477 91.1533 6.89362 90.8383 7.15349V14.1565H93.4681V15.3191H86.962V14.2386L88.5646 14.0334Z" fill="white"/>
<path d="M96.1801 5.32067V4.3769C96.3855 4.32219 96.5773 4.26748 96.8375 4.17173C97.0977 4.08966 97.2347 4.0076 97.3169 3.96656C97.5497 3.80243 97.7141 3.5152 97.8648 3.1459C97.9744 2.91337 98.0976 2.51672 98.262 1.98328C98.4264 1.43617 98.5496 1.03951 98.6044 0.793312H99.9193L99.9467 3.92553H103.316V5.34802H99.9467V11.2432C99.9467 12.0365 99.9741 12.5836 100.002 12.8982C100.029 13.2128 100.138 13.4043 100.289 13.5C100.426 13.5821 100.686 13.6368 101.084 13.6368C101.426 13.6368 101.823 13.6094 102.248 13.5274C102.672 13.4453 103.015 13.3632 103.275 13.2675L103.618 14.2386C103.412 14.4027 103.111 14.5805 102.7 14.7447C102.303 14.9088 101.878 15.0593 101.412 15.1687C100.947 15.2781 100.522 15.3328 100.125 15.3328H100.097C99.2756 15.3328 98.6455 15.1687 98.2209 14.7857C97.7963 14.4164 97.5908 13.8419 97.5908 12.9939V5.32067H96.1801Z" fill="white"/>
<path d="M43.0632 35.7812V34.4134L44.7069 34.1398V22.1991L43.0769 21.8845V20.5441H49.8843V21.8845L47.8709 22.1991V34.0988L52.0758 33.8936L53.336 30.1459L55.2946 30.4058L54.6509 35.7812H43.0632Z" fill="white"/>
<path d="M56.0891 32.7447C56.0891 32.2523 56.1713 31.8146 56.3494 31.4316C56.5274 31.0486 56.774 30.7204 57.0753 30.4331C57.3903 30.1459 57.7464 29.8997 58.1711 29.7082C58.5957 29.503 59.0477 29.3389 59.5407 29.2158C60.0338 29.079 60.5406 28.997 61.0611 28.9286C61.5953 28.8739 62.1158 28.8328 62.65 28.8191V28.3404C62.65 27.5745 62.4993 27.041 62.1843 26.7128C61.8692 26.3845 61.3624 26.2204 60.6502 26.2204C60.2941 26.2204 59.9243 26.2477 59.5681 26.3024C59.1983 26.3571 58.8559 26.4255 58.5272 26.5076C58.1984 26.5897 57.8834 26.6854 57.5958 26.7812C57.3081 26.8906 57.0753 26.9863 56.8698 27.0821H56.8561L56.2672 25.7416C56.4041 25.6322 56.6507 25.4818 56.9794 25.2903C57.3081 25.1125 57.719 24.9347 58.1847 24.7568C58.6504 24.579 59.1709 24.4286 59.7325 24.3055C60.2941 24.1824 60.883 24.114 61.4857 24.114C62.2254 24.114 62.8554 24.1961 63.3759 24.3602C63.8964 24.5243 64.321 24.7705 64.636 25.0988C64.9647 25.4271 65.1976 25.8511 65.3483 26.3708C65.4989 26.8769 65.5674 27.4787 65.5674 28.1763V34.4271H66.8138V35.6581C66.6906 35.6854 66.5262 35.7264 66.3481 35.7675C66.1564 35.8085 65.9509 35.8495 65.7318 35.8906C65.4989 35.9316 65.2661 35.959 65.0058 35.9863C64.7456 36.0137 64.4717 36.0274 64.1977 36.0274C63.9512 36.0274 63.7457 36.0137 63.5814 36C63.417 35.9863 63.28 35.9316 63.1704 35.8632C63.0609 35.7948 62.9924 35.6854 62.9513 35.5486C62.9102 35.4119 62.8828 35.2204 62.8828 34.9878V34.4134C62.7732 34.5638 62.6089 34.7416 62.4171 34.9195C62.2117 35.1109 61.9788 35.2888 61.6912 35.4529C61.4035 35.617 61.0885 35.7538 60.7187 35.8632C60.3626 35.9726 59.9654 36.0274 59.5271 36.0274C59.0477 36.0274 58.6094 35.959 58.1984 35.8359C57.7875 35.7128 57.4177 35.5076 57.1164 35.2477C56.8014 34.9742 56.5548 34.6459 56.3767 34.2219C56.1713 33.7979 56.0891 33.3055 56.0891 32.7447ZM60.842 34.0851C60.9652 34.0851 61.1022 34.0714 61.2529 34.0304C61.4035 34.003 61.5679 33.9483 61.7323 33.8936C61.8966 33.8389 62.061 33.7568 62.2254 33.6748C62.3897 33.5927 62.5267 33.497 62.65 33.3875V30.0775C62.0062 30.0775 61.4583 30.1322 61.02 30.2553C60.5817 30.3784 60.2393 30.5289 59.979 30.734C59.7188 30.9392 59.527 31.1581 59.4175 31.4316C59.3079 31.7052 59.2531 31.965 59.2531 32.266C59.2531 32.8541 59.3901 33.3055 59.664 33.6201C59.9243 33.921 60.3215 34.0851 60.842 34.0851Z" fill="white"/>
<path d="M68.4163 35.2204V20.8723L66.9097 20.6261V19.4499L70.8133 18.9575H70.8544L71.4845 19.3678V25.3313C71.6488 25.1672 71.8269 25.0167 72.046 24.8663C72.2652 24.7158 72.498 24.5927 72.7583 24.4696C73.0185 24.3465 73.2925 24.2644 73.5938 24.196C73.8951 24.1277 74.2239 24.0866 74.5663 24.0866C75.1689 24.0866 75.7305 24.1824 76.2647 24.3875C76.7989 24.5927 77.2646 24.9073 77.6755 25.3587C78.0864 25.81 78.4014 26.3845 78.6343 27.0957C78.8671 27.807 78.9904 28.6824 78.9904 29.7082C78.9904 30.5973 78.8534 31.4179 78.5795 32.1839C78.3055 32.9498 77.922 33.6201 77.4015 34.1809C76.8948 34.7416 76.2647 35.193 75.5251 35.5213C74.7854 35.8495 73.9636 36 73.0322 36C72.3885 36 71.7858 35.9726 71.2516 35.9043C70.7174 35.8495 70.2517 35.7675 69.8545 35.6854C69.4573 35.6033 69.1286 35.5076 68.882 35.4255C68.6355 35.3435 68.4848 35.2751 68.4163 35.2204ZM73.2925 25.9195C72.8815 25.9195 72.5117 26.0015 72.2104 26.152C71.8954 26.3024 71.6625 26.4802 71.4982 26.6581V34.1809C71.5803 34.3313 71.7721 34.4544 72.046 34.5502C72.32 34.6459 72.635 34.6869 72.9774 34.6869C73.4294 34.6869 73.8266 34.5638 74.1691 34.3313C74.5115 34.0851 74.7854 33.7568 75.0046 33.3465C75.2237 32.9362 75.3881 32.4438 75.4977 31.883C75.6072 31.3222 75.662 30.734 75.662 30.0912C75.662 29.4347 75.6209 28.8465 75.5251 28.3404C75.4292 27.8207 75.2922 27.383 75.1005 27.0274C74.9087 26.6717 74.6622 26.3982 74.3608 26.2067C74.0595 26.0015 73.7034 25.9195 73.2925 25.9195Z" fill="white"/>
<path d="M80.5655 35.1383V32.3207H82.4146L82.9351 33.8799C82.9899 33.962 83.0857 34.0578 83.209 34.1398C83.3323 34.2219 83.483 34.304 83.6473 34.3723C83.8117 34.4407 84.0034 34.4954 84.2226 34.5365C84.4417 34.5775 84.6609 34.6049 84.8937 34.6049C85.2225 34.6049 85.4964 34.5638 85.7156 34.4818C85.921 34.3997 86.0991 34.304 86.2224 34.1809C86.3456 34.0577 86.4415 33.921 86.4826 33.7568C86.5237 33.6064 86.5511 33.4422 86.5511 33.3055C86.5511 33.0319 86.4826 32.7857 86.3319 32.5805C86.195 32.3754 85.9895 32.1839 85.7156 32.0198C85.4553 31.8556 85.1266 31.6778 84.7568 31.5274C84.387 31.3632 83.9624 31.1991 83.5104 31.0076C83.0447 30.8161 82.6337 30.6109 82.2639 30.3784C81.8941 30.1459 81.5791 29.886 81.3325 29.5988C81.0723 29.3115 80.8805 28.997 80.7299 28.6413C80.5929 28.2857 80.5244 27.8891 80.5244 27.4514C80.5244 26.9726 80.6203 26.535 80.8257 26.1383C81.0175 25.728 81.3188 25.386 81.7024 25.0851C82.0859 24.7842 82.5653 24.5517 83.1405 24.3875C83.7158 24.2234 84.387 24.1277 85.1403 24.1277C85.5786 24.1277 85.9758 24.155 86.3182 24.2097C86.6607 24.2644 86.9757 24.3191 87.2496 24.4012C87.5236 24.4696 87.7838 24.5517 88.0167 24.6201C88.2495 24.7021 88.4823 24.7568 88.7015 24.7979V27.5608L86.962 27.5334L86.4963 26.2067C86.4004 26.0562 86.2223 25.9058 85.9621 25.7553C85.7019 25.6185 85.3731 25.5365 84.9759 25.5365C84.6746 25.5365 84.4281 25.5638 84.2226 25.6322C84.0171 25.7006 83.8528 25.7827 83.7295 25.9058C83.6062 26.0152 83.5241 26.1383 83.4693 26.2751C83.4145 26.4119 83.3871 26.5486 83.3871 26.6854C83.3871 27.0274 83.483 27.3146 83.661 27.5471C83.8391 27.766 84.0719 27.9574 84.3459 28.1079C84.6198 28.2584 84.9211 28.3951 85.2499 28.5182C85.5786 28.6413 85.8936 28.7644 86.1813 28.8875C86.6196 29.079 87.0442 29.2842 87.4414 29.503C87.8386 29.7219 88.1947 29.9681 88.5097 30.2553C88.8248 30.5426 89.0713 30.8708 89.2494 31.2538C89.4274 31.6368 89.5233 32.0745 89.5233 32.5942C89.5233 33.0866 89.4274 33.538 89.2357 33.9483C89.0439 34.3587 88.7563 34.728 88.3728 35.0289C87.9893 35.3298 87.5099 35.576 86.9346 35.7538C86.3593 35.9316 85.6745 36.0137 84.9074 36.0137C84.3733 36.0137 83.8939 35.9726 83.4556 35.9043C83.0173 35.8359 82.62 35.7401 82.2639 35.6444C81.9078 35.5486 81.5928 35.4529 81.3051 35.3571C81.0175 35.2614 80.771 35.193 80.5655 35.1383Z" fill="white"/>
<path d="M89.4549 35.7812L89.4412 34.4134L90.7287 34.1398L95.5637 20.4894H98.7825L103.604 34.1398L105.001 34.4134V35.7812H98.4949V34.4134L100.125 34.1398L99.3715 31.6915H93.9338L93.2215 34.1398L94.8789 34.4134V35.7812H89.4549ZM96.2486 23.6763L94.3858 30.1322H98.8921L96.9197 23.6763L96.5636 22.2128L96.2486 23.6763Z" fill="white"/>
<path d="M106.316 35.7812V34.4134L108.083 34.1398V22.1991L106.316 21.8845V20.5441H113V21.8845L111.247 22.1991V34.1398L113 34.4407V35.7948H106.316V35.7812Z" fill="white"/>
<path d="M0 19.5593H9.62897V29.5167L14.779 24.8115V14.5258H4.69806L0 19.5593Z" fill="white"/>
<path d="M2.57507 13.4179H16.0118V32.5258L23.956 25.7143V7.82371H8.28671L2.57507 13.4179Z" fill="white"/>
<path d="M6.83484 6.48328H25.0792V35.9863L35.4889 24.0319V0H13.7655L6.83484 6.48328Z" fill="white"/>
<path d="M9.62903 19.5593L14.7791 14.5258V24.8115L9.62903 19.5593Z" fill="white"/>
<path d="M9.62903 19.5593L14.7791 14.5258H4.69812L9.62903 19.5593Z" fill="white"/>
<path d="M16.0117 13.4179L23.956 7.82371V25.7143L16.0117 13.4179Z" fill="white"/>
<path d="M16.0117 13.4179L23.956 7.82371H8.28662L16.0117 13.4179Z" fill="white"/>
<path d="M25.0791 6.48328L35.4888 0V24.0319L25.0791 6.48328Z" fill="white"/>
<path d="M25.0792 6.48328L35.4889 0H13.7655L25.0792 6.48328Z" fill="white"/>
</g>
<defs>
<clipPath id="clip0_2014_147">
<rect width="113" height="36" fill="white"/>
</clipPath>
</defs>
</svg>
