<svg width="24" height="24" viewBox="0 0 24 24" fill="none" xmlns="http://www.w3.org/2000/svg">
<path d="M12 0C5.38679 0 0 5.3868 0 12C0 18.6132 5.38679 24 12 24C18.6132 24 24 18.6132 24 12C24 5.3868 18.6132 0 12 0ZM12 2.4C17.3162 2.4 21.6 6.68385 21.6 12C21.6 17.3161 17.3162 21.6 12 21.6C6.68385 21.6 2.4 17.3161 2.4 12C2.4 6.68385 6.68385 2.4 12 2.4ZM16.7766 8.38828C16.4648 8.39757 16.1689 8.52787 15.9516 8.75156L10.8 13.9031L9.24844 12.3516C9.13786 12.2364 9.00542 12.1444 8.85887 12.0811C8.71231 12.0178 8.55459 11.9843 8.39494 11.9827C8.2353 11.9811 8.07693 12.0113 7.92911 12.0716C7.7813 12.132 7.64702 12.2212 7.53412 12.3341C7.42123 12.447 7.33199 12.5813 7.27165 12.7291C7.2113 12.8769 7.18105 13.0353 7.18268 13.1949C7.1843 13.3546 7.21776 13.5123 7.28111 13.6589C7.34445 13.8054 7.43639 13.9379 7.55156 14.0484L9.95156 16.4484C10.1766 16.6734 10.4818 16.7998 10.8 16.7998C11.1182 16.7998 11.4234 16.6734 11.6484 16.4484L17.6484 10.4484C17.8218 10.2799 17.9403 10.0629 17.9882 9.82585C18.0362 9.58883 18.0114 9.34285 17.9172 9.12014C17.8229 8.89744 17.6636 8.7084 17.4601 8.57781C17.2565 8.44722 17.0183 8.38115 16.7766 8.38828Z" fill="white"/>
</svg>
