<svg width="26" height="26" viewBox="0 0 26 26" fill="none" xmlns="http://www.w3.org/2000/svg">
<path d="M11.8997 2.15174C11.6563 2.15634 11.4215 2.2428 11.2332 2.39718C11.2068 2.41785 11.1814 2.43974 11.157 2.46277C11.1521 2.46766 11.1471 2.4726 11.1422 2.47758C11.1336 2.48661 11.1251 2.49578 11.1168 2.50509C11.0961 2.52752 11.0763 2.55082 11.0576 2.57491C10.9625 2.69338 10.8934 2.83052 10.8548 2.97742C10.8161 3.12432 10.8088 3.2777 10.8333 3.42762V5.41655C10.8313 5.5601 10.8578 5.70263 10.9113 5.83585C10.9649 5.96906 11.0443 6.09031 11.1451 6.19254C11.2459 6.29478 11.366 6.37596 11.4985 6.43137C11.6309 6.48678 11.7731 6.51531 11.9166 6.51531C12.0602 6.51531 12.2023 6.48678 12.3348 6.43137C12.4672 6.37596 12.5873 6.29478 12.6881 6.19254C12.7889 6.09031 12.8684 5.96906 12.922 5.83585C12.9755 5.70263 13.002 5.5601 13 5.41655V4.42208C13.7728 4.44937 14.5889 4.45373 15.2428 4.62944C15.2435 4.62944 15.2442 4.62944 15.2449 4.62944C19.8763 5.86982 22.6139 10.6113 21.3725 15.2427C20.1311 19.8743 15.3885 22.6117 10.7571 21.3703C6.1257 20.1299 3.38819 15.3884 4.62953 10.757C4.87946 9.82198 5.27225 8.96959 5.77846 8.2074C5.93755 7.96778 5.99493 7.67478 5.93799 7.39285C5.88105 7.11092 5.71445 6.86316 5.47483 6.70406C5.23521 6.54497 4.94221 6.48759 4.66027 6.54453C4.37834 6.60147 4.13058 6.76808 3.97149 7.00769C3.33803 7.9615 2.84816 9.0319 2.53692 10.1963C0.991931 15.9606 4.43215 21.9191 10.1964 23.4629C15.9607 25.0079 21.9202 21.5675 23.4651 15.8034C25.01 10.0398 21.5688 4.08142 15.8056 2.53683H15.8035C14.6863 2.23686 13.4096 2.16844 12.27 2.21098C12.1509 2.16986 12.0256 2.14981 11.8997 2.15174ZM8.60951 8.65808C8.38462 8.66724 8.16817 8.7462 7.99021 8.884C7.81226 9.0218 7.68164 9.21161 7.61649 9.42705C7.55135 9.64249 7.55492 9.87287 7.6267 10.0862C7.69849 10.2995 7.83493 10.4852 8.01706 10.6174L12.3504 13.8674C12.5805 14.0397 12.8696 14.1135 13.1541 14.0726C13.4386 14.0318 13.6952 13.8795 13.8675 13.6495C14.0398 13.4194 14.1136 13.1303 14.0727 12.8458C14.0318 12.5613 13.8796 12.3046 13.6496 12.1324L9.31622 8.88237C9.11436 8.72682 8.86413 8.64741 8.60951 8.65808Z" fill="white"/>
</svg>
