<svg width="60" height="60" viewBox="0 0 60 60" fill="none" xmlns="http://www.w3.org/2000/svg">
<rect width="60" height="60" rx="12" fill="url(#paint0_linear_2025_238)"/>
<path d="M20.4166 15C17.9002 15 15.8333 17.0669 15.8333 19.5833V22.0833C15.8333 23.3917 16.3951 24.5754 17.2851 25.4134C16.3942 26.2502 15.8333 27.4346 15.8333 28.75V31.25C15.8333 32.5633 16.3919 33.7467 17.2803 34.5833C16.3919 35.42 15.8333 36.6033 15.8333 37.9167V40.4167C15.8333 42.9433 17.8891 45 20.4166 45H33.348C32.448 44.3258 31.6905 43.4775 31.1247 42.5H20.4166C19.2683 42.5 18.3333 41.5658 18.3333 40.4167V37.9167C18.3333 36.7675 19.2683 35.8333 20.4166 35.8333H30.3825C30.6691 34.9208 31.1155 34.0808 31.678 33.3333H20.4166C19.2683 33.3333 18.3333 32.3992 18.3333 31.25V28.75C18.3333 27.6008 19.2683 26.6667 20.4166 26.6667H39.5833C40.7316 26.6667 41.6666 27.6008 41.6666 28.75V30.6982C42.5516 31.0849 43.3529 31.6245 44.0462 32.2786C44.1229 31.947 44.1666 31.6042 44.1666 31.25V28.75C44.1666 27.4346 43.6057 26.2502 42.7148 25.4134C43.6049 24.5754 44.1666 23.3917 44.1666 22.0833V19.5833C44.1666 17.0669 42.0998 15 39.5833 15H20.4166ZM20.4166 17.5H39.5833C40.7485 17.5 41.6666 18.4181 41.6666 19.5833V22.0833C41.6666 23.2485 40.7485 24.1667 39.5833 24.1667H20.4166C19.2515 24.1667 18.3333 23.2485 18.3333 22.0833V19.5833C18.3333 18.4181 19.2515 17.5 20.4166 17.5ZM38.3333 31.6667C34.6575 31.6667 31.6666 34.6575 31.6666 38.3333C31.6666 42.0092 34.6575 45 38.3333 45C39.7208 45 41.0085 44.5727 42.0768 43.8444L46.1995 47.9671C46.4437 48.2121 46.7633 48.3333 47.0833 48.3333C47.4033 48.3333 47.7229 48.2113 47.9671 47.9671C48.4546 47.4788 48.4546 46.6879 47.9671 46.1995L43.846 42.0768C44.5735 41.0085 45 39.7208 45 38.3333C45 34.6575 42.0091 31.6667 38.3333 31.6667ZM38.3333 34.1667C40.6308 34.1667 42.5 36.0358 42.5 38.3333C42.5 40.6308 40.6308 42.5 38.3333 42.5C36.0358 42.5 34.1666 40.6308 34.1666 38.3333C34.1666 36.0358 36.0358 34.1667 38.3333 34.1667Z" fill="white"/>
<defs>
<linearGradient id="paint0_linear_2025_238" x1="9" y1="7.875" x2="52.125" y2="49.5" gradientUnits="userSpaceOnUse">
<stop stop-color="#A81B58"/>
<stop offset="1" stop-color="#3C3198"/>
</linearGradient>
</defs>
</svg>
