<svg width="620" height="620" viewBox="0 0 620 620" fill="none" xmlns="http://www.w3.org/2000/svg">
<g clip-path="url(#clip0_2074_23)">
<path d="M309.495 -0.403655C302.644 -0.309937 296.11 2.50163 291.332 7.41255C286.554 12.3235 283.922 18.9315 284.015 25.7829V103.232H282.754C212.441 103.265 154.849 160.838 154.849 231.138V388.862C154.849 459.17 212.446 516.768 282.754 516.768H284.015V594.318C283.967 597.741 284.599 601.14 285.876 604.317C287.152 607.493 289.048 610.385 291.451 612.822C293.855 615.26 296.719 617.196 299.877 618.518C303.036 619.839 306.425 620.519 309.849 620.519C313.272 620.519 316.662 619.839 319.82 618.518C322.978 617.196 325.842 615.26 328.246 612.822C330.65 610.385 332.545 607.493 333.821 604.317C335.098 601.14 335.73 597.741 335.682 594.318V516.768H337.044C407.352 516.768 464.899 459.17 464.899 388.862V231.138C464.899 160.83 407.352 103.232 337.044 103.232H335.682V25.7829C335.729 22.331 335.084 18.9046 333.785 15.7062C332.485 12.5078 330.558 9.6022 328.117 7.1611C325.676 4.71999 322.771 2.79288 319.572 1.49358C316.374 0.194289 312.947 -0.450826 309.495 -0.403655ZM282.754 154.899H284.015V232.651C283.967 236.075 284.599 239.473 285.876 242.65C287.152 245.827 289.048 248.718 291.451 251.156C293.855 253.594 296.719 255.53 299.877 256.851C303.036 258.172 306.425 258.853 309.849 258.853C313.272 258.853 316.662 258.172 319.82 256.851C322.978 255.53 325.842 253.594 328.246 251.156C330.65 248.718 332.545 245.827 333.821 242.65C335.098 239.473 335.73 236.075 335.682 232.651V154.899H337.044C379.37 154.899 413.232 188.812 413.232 231.138V388.862C413.232 431.188 379.37 465.101 337.044 465.101H335.682V387.45C335.73 384.026 335.098 380.628 333.821 377.451C332.545 374.274 330.65 371.383 328.246 368.945C325.842 366.507 322.978 364.571 319.82 363.25C316.662 361.929 313.272 361.248 309.849 361.248C306.425 361.248 303.036 361.929 299.877 363.25C296.719 364.571 293.855 366.507 291.451 368.945C289.048 371.383 287.152 374.274 285.876 377.451C284.599 380.628 283.967 384.026 284.015 387.45V465.101H282.754C240.428 465.101 206.515 431.188 206.515 388.862V231.138C206.515 188.821 240.405 154.946 282.754 154.899Z" fill="white" fill-opacity="0.1"/>
</g>
<defs>
<clipPath id="clip0_2074_23">
<rect width="620" height="620" fill="white"/>
</clipPath>
</defs>
</svg>
