<svg width="60" height="60" viewBox="0 0 60 60" fill="none" xmlns="http://www.w3.org/2000/svg">
<rect width="60" height="60" rx="12" fill="url(#paint0_linear_154_1311)"/>
<g clip-path="url(#clip0_154_1311)">
<path d="M20.8333 13.3334C18.5516 13.3334 16.6667 15.2183 16.6667 17.5V40.8334C16.6667 43.1151 18.5516 45 20.8333 45H29.1667C29.3875 45.0032 29.6068 44.9624 29.8117 44.88C30.0167 44.7976 30.2032 44.6754 30.3605 44.5203C30.5178 44.3652 30.6427 44.1804 30.7279 43.9767C30.8132 43.7729 30.8571 43.5542 30.8571 43.3334C30.8571 43.1125 30.8132 42.8938 30.7279 42.6901C30.6427 42.4863 30.5178 42.3015 30.3605 42.1464C30.2032 41.9914 30.0167 41.8691 29.8117 41.7867C29.6068 41.7044 29.3875 41.6636 29.1667 41.6667H20.8333C20.3551 41.6667 20 41.3116 20 40.8334V17.5C20 17.0218 20.3551 16.6667 20.8333 16.6667H39.1667C39.6449 16.6667 40 17.0218 40 17.5V26.6667C39.9969 26.8876 40.0377 27.1068 40.12 27.3118C40.2024 27.5167 40.3247 27.7033 40.4797 27.8605C40.6348 28.0178 40.8196 28.1427 41.0234 28.228C41.2271 28.3132 41.4458 28.3571 41.6667 28.3571C41.8875 28.3571 42.1062 28.3132 42.31 28.228C42.5137 28.1427 42.6985 28.0178 42.8536 27.8605C43.0087 27.7033 43.1309 27.5167 43.2133 27.3118C43.2957 27.1068 43.3365 26.8876 43.3333 26.6667V17.5C43.3333 15.2183 41.4484 13.3334 39.1667 13.3334H20.8333ZM25 20C24.7791 19.9969 24.5599 20.0377 24.3549 20.1201C24.15 20.2024 23.9634 20.3247 23.8062 20.4798C23.6489 20.6348 23.524 20.8196 23.4387 21.0234C23.3535 21.2272 23.3096 21.4458 23.3096 21.6667C23.3096 21.8876 23.3535 22.1063 23.4387 22.31C23.524 22.5138 23.6489 22.6986 23.8062 22.8536C23.9634 23.0087 24.15 23.131 24.3549 23.2133C24.5599 23.2957 24.7791 23.3365 25 23.3334H35C35.2208 23.3365 35.4401 23.2957 35.6451 23.2133C35.85 23.131 36.0366 23.0087 36.1938 22.8536C36.3511 22.6986 36.476 22.5138 36.5613 22.31C36.6465 22.1063 36.6904 21.8876 36.6904 21.6667C36.6904 21.4458 36.6465 21.2272 36.5613 21.0234C36.476 20.8196 36.3511 20.6348 36.1938 20.4798C36.0366 20.3247 35.85 20.2024 35.6451 20.1201C35.4401 20.0377 35.2208 19.9969 35 20H25ZM25 26.6667C24.7791 26.6636 24.5599 26.7044 24.3549 26.7867C24.15 26.8691 23.9634 26.9914 23.8062 27.1464C23.6489 27.3015 23.524 27.4863 23.4387 27.6901C23.3535 27.8938 23.3096 28.1125 23.3096 28.3334C23.3096 28.5542 23.3535 28.7729 23.4387 28.9767C23.524 29.1804 23.6489 29.3652 23.8062 29.5203C23.9634 29.6754 24.15 29.7976 24.3549 29.88C24.5599 29.9624 24.7791 30.0032 25 30H35C35.2208 30.0032 35.4401 29.9624 35.6451 29.88C35.85 29.7976 36.0366 29.6754 36.1938 29.5203C36.3511 29.3652 36.476 29.1804 36.5613 28.9767C36.6465 28.7729 36.6904 28.5542 36.6904 28.3334C36.6904 28.1125 36.6465 27.8938 36.5613 27.6901C36.476 27.4863 36.3511 27.3015 36.1938 27.1464C36.0366 26.9914 35.85 26.8691 35.6451 26.7867C35.4401 26.7044 35.2208 26.6636 35 26.6667H25ZM41.6667 31.6667C39.5833 31.6667 37.8087 32.508 36.6699 33.7891C35.5311 35.0702 35 36.713 35 38.3334C35 39.7101 35.4102 41.0889 36.224 42.2624L32.054 47.2657C31.9073 47.4328 31.7955 47.6276 31.7252 47.8386C31.655 48.0496 31.6276 48.2725 31.6448 48.4942C31.662 48.716 31.7234 48.932 31.8254 49.1297C31.9274 49.3273 32.0679 49.5025 32.2386 49.645C32.4094 49.7875 32.6069 49.8944 32.8196 49.9594C33.0323 50.0244 33.2558 50.0462 33.477 50.0234C33.6983 50.0007 33.9127 49.9339 34.1077 49.827C34.3028 49.7202 34.4744 49.5753 34.6126 49.4011L38.7825 44.4011C39.6375 44.7813 40.6104 45 41.6667 45C43.75 45 45.5246 44.1588 46.6634 42.8776C47.8022 41.5965 48.3333 39.9537 48.3333 38.3334C48.3333 36.713 47.8022 35.0702 46.6634 33.7891C45.5246 32.508 43.75 31.6667 41.6667 31.6667ZM25 33.3334C24.7791 33.3302 24.5599 33.3711 24.3549 33.4534C24.15 33.5358 23.9634 33.658 23.8062 33.8131C23.6489 33.9682 23.524 34.153 23.4387 34.3567C23.3535 34.5605 23.3096 34.7792 23.3096 35C23.3096 35.2209 23.3535 35.4396 23.4387 35.6434C23.524 35.8471 23.6489 36.0319 23.8062 36.187C23.9634 36.342 24.15 36.4643 24.3549 36.5467C24.5599 36.629 24.7791 36.6698 25 36.6667H30.8333C31.0542 36.6698 31.2735 36.629 31.4784 36.5467C31.6833 36.4643 31.8699 36.342 32.0272 36.187C32.1845 36.0319 32.3093 35.8471 32.3946 35.6434C32.4798 35.4396 32.5237 35.2209 32.5237 35C32.5237 34.7792 32.4798 34.5605 32.3946 34.3567C32.3093 34.153 32.1845 33.9682 32.0272 33.8131C31.8699 33.658 31.6833 33.5358 31.4784 33.4534C31.2735 33.3711 31.0542 33.3302 30.8333 33.3334H25ZM41.6667 35C42.9167 35 43.642 35.4088 44.1699 36.0026C44.6978 36.5965 45 37.4537 45 38.3334C45 39.213 44.6978 40.0702 44.1699 40.6641C43.642 41.258 42.9167 41.6667 41.6667 41.6667C40.4167 41.6667 39.6913 41.258 39.1634 40.6641C38.6355 40.0702 38.3333 39.213 38.3333 38.3334C38.3333 37.4537 38.6355 36.5965 39.1634 36.0026C39.6913 35.4088 40.4167 35 41.6667 35Z" fill="white"/>
</g>
<defs>
<linearGradient id="paint0_linear_154_1311" x1="9" y1="7.875" x2="52.125" y2="49.5" gradientUnits="userSpaceOnUse">
<stop stop-color="#A81B58"/>
<stop offset="1" stop-color="#3C3198"/>
</linearGradient>
<clipPath id="clip0_154_1311">
<rect width="40" height="40" fill="white" transform="translate(10 10)"/>
</clipPath>
</defs>
</svg>
