<svg width="518" height="518" viewBox="0 0 518 518" fill="none" xmlns="http://www.w3.org/2000/svg">
<path d="M207.333 0.666687C95.4407 0.666687 4.05986 90.4133 0.969179 201.581C0.12595 205.283 0.108724 209.124 0.918723 212.833L0.969179 212.934C3.98064 324.172 95.3898 414 207.333 414C254.97 414 298.808 397.607 333.826 370.356L473.235 509.765C475.615 512.244 478.466 514.224 481.621 515.587C484.776 516.951 488.172 517.671 491.609 517.706C495.046 517.741 498.455 517.09 501.637 515.791C504.819 514.492 507.71 512.571 510.14 510.141C512.571 507.71 514.492 504.819 515.791 501.637C517.09 498.455 517.741 495.046 517.706 491.609C517.671 488.172 516.951 484.777 515.587 481.622C514.224 478.467 512.244 475.615 509.765 473.235L370.356 333.826C392.595 305.248 407.499 270.794 412.234 233.167H491.5C494.923 233.215 498.322 232.583 501.498 231.306C504.675 230.03 507.566 228.134 510.004 225.731C512.442 223.327 514.378 220.463 515.699 217.305C517.021 214.146 517.701 210.757 517.701 207.333C517.701 203.91 517.021 200.52 515.699 197.362C514.378 194.204 512.442 191.34 510.004 188.936C507.566 186.532 504.675 184.637 501.498 183.361C498.322 182.084 494.923 181.452 491.5 181.5H392.506C389.716 181.039 386.869 181.039 384.08 181.5H310.666C303.815 181.501 297.246 184.224 292.401 189.068L259 222.47L173.931 137.402C171.485 134.954 168.572 133.023 165.365 131.723C162.158 130.423 158.723 129.78 155.263 129.833C148.552 129.94 142.146 132.655 137.401 137.402L93.3032 181.5H54.6541C66.8979 108.013 130.25 52.3334 207.333 52.3334C260.154 52.3334 306.358 78.6186 334.381 118.834C336.27 121.731 338.723 124.218 341.592 126.15C344.461 128.081 347.689 129.417 351.084 130.077C354.479 130.738 357.972 130.711 361.356 129.996C364.74 129.282 367.946 127.895 370.784 125.918C373.622 123.942 376.035 121.416 377.878 118.489C379.722 115.563 380.959 112.296 381.517 108.883C382.074 105.47 381.941 101.979 381.125 98.6181C380.308 95.2572 378.825 92.0945 376.763 89.3174C339.479 35.8095 277.376 0.666687 207.333 0.666687ZM155.666 192.197L240.735 277.265C245.58 282.108 252.15 284.828 259 284.828C265.85 284.828 272.42 282.108 277.265 277.265L321.363 233.167H360.012C347.768 306.653 284.416 362.333 207.333 362.333C130.25 362.333 66.8979 306.653 54.6541 233.167H104C110.851 233.165 117.421 230.443 122.265 225.598L155.666 192.197Z" fill="white" fill-opacity="0.1"/>
</svg>
