<svg width="120" height="120" viewBox="0 0 120 120" fill="none" xmlns="http://www.w3.org/2000/svg">
<g clip-path="url(#clip0_19_765)">
<path d="M32.5 10C25.6547 10 20 15.6547 20 22.5V92.5C20 99.3453 25.6547 105 32.5 105H57.5C58.1626 105.009 58.8204 104.887 59.4352 104.64C60.0501 104.393 60.6097 104.026 61.0815 103.561C61.5534 103.096 61.928 102.541 62.1838 101.93C62.4395 101.319 62.5712 100.663 62.5712 100C62.5712 99.3374 62.4395 98.6814 62.1838 98.0701C61.928 97.4588 61.5534 96.9044 61.0815 96.4392C60.6097 95.974 60.0501 95.6072 59.4352 95.3601C58.8204 95.113 58.1626 94.9906 57.5 95H32.5C31.0653 95 30 93.9347 30 92.5V22.5C30 21.0653 31.0653 20 32.5 20H87.5C88.9347 20 90 21.0653 90 22.5V50C89.9906 50.6626 90.113 51.3204 90.3601 51.9352C90.6072 52.5501 90.974 53.1097 91.4392 53.5815C91.9044 54.0534 92.4588 54.428 93.0701 54.6838C93.6814 54.9395 94.3374 55.0712 95 55.0712C95.6626 55.0712 96.3186 54.9395 96.9299 54.6838C97.5412 54.428 98.0956 54.0534 98.5608 53.5815C99.026 53.1097 99.3928 52.5501 99.6399 51.9352C99.887 51.3204 100.009 50.6626 100 50V22.5C100 15.6547 94.3453 10 87.5 10H32.5ZM45 30C44.3374 29.9906 43.6796 30.113 43.0648 30.3601C42.4499 30.6072 41.8903 30.974 41.4185 31.4392C40.9466 31.9044 40.572 32.4588 40.3162 33.0701C40.0605 33.6814 39.9288 34.3374 39.9288 35C39.9288 35.6626 40.0605 36.3186 40.3162 36.9299C40.572 37.5412 40.9466 38.0956 41.4185 38.5608C41.8903 39.026 42.4499 39.3928 43.0648 39.6399C43.6796 39.887 44.3374 40.0094 45 40H75C75.6626 40.0094 76.3204 39.887 76.9352 39.6399C77.5501 39.3928 78.1097 39.026 78.5815 38.5608C79.0534 38.0956 79.428 37.5412 79.6838 36.9299C79.9395 36.3186 80.0712 35.6626 80.0712 35C80.0712 34.3374 79.9395 33.6814 79.6838 33.0701C79.428 32.4588 79.0534 31.9044 78.5815 31.4392C78.1097 30.974 77.5501 30.6072 76.9352 30.3601C76.3204 30.113 75.6626 29.9906 75 30H45ZM45 50C44.3374 49.9906 43.6796 50.113 43.0648 50.3601C42.4499 50.6072 41.8903 50.974 41.4185 51.4392C40.9466 51.9044 40.572 52.4588 40.3162 53.0701C40.0605 53.6814 39.9288 54.3374 39.9288 55C39.9288 55.6626 40.0605 56.3186 40.3162 56.9299C40.572 57.5412 40.9466 58.0956 41.4185 58.5608C41.8903 59.026 42.4499 59.3928 43.0648 59.6399C43.6796 59.887 44.3374 60.0094 45 60H75C75.6626 60.0094 76.3204 59.887 76.9352 59.6399C77.5501 59.3928 78.1097 59.026 78.5815 58.5608C79.0534 58.0956 79.428 57.5412 79.6838 56.9299C79.9395 56.3186 80.0712 55.6626 80.0712 55C80.0712 54.3374 79.9395 53.6814 79.6838 53.0701C79.428 52.4588 79.0534 51.9044 78.5815 51.4392C78.1097 50.974 77.5501 50.6072 76.9352 50.3601C76.3204 50.113 75.6626 49.9906 75 50H45ZM95 65C88.75 65 83.4261 67.5238 80.0098 71.3672C76.5934 75.2106 75 80.1389 75 85C75 89.1301 76.2307 93.2666 78.6719 96.7871L66.1621 111.797C65.7219 112.298 65.3866 112.883 65.1757 113.516C64.9649 114.149 64.8829 114.817 64.9345 115.483C64.9861 116.148 65.1703 116.796 65.4762 117.389C65.7822 117.982 66.2036 118.507 66.7159 118.935C67.2281 119.362 67.8207 119.683 68.4588 119.878C69.0968 120.073 69.7674 120.138 70.4311 120.07C71.0948 120.002 71.7382 119.802 72.3232 119.481C72.9083 119.16 73.4233 118.726 73.8379 118.203L86.3477 103.203C88.9124 104.344 91.8313 105 95 105C101.25 105 106.574 102.476 109.99 98.6328C113.407 94.7894 115 89.8611 115 85C115 80.1389 113.407 75.2106 109.99 71.3672C106.574 67.5238 101.25 65 95 65ZM45 70C44.3374 69.9906 43.6796 70.113 43.0648 70.3601C42.4499 70.6072 41.8903 70.974 41.4185 71.4392C40.9466 71.9044 40.572 72.4588 40.3162 73.0701C40.0605 73.6814 39.9288 74.3374 39.9288 75C39.9288 75.6626 40.0605 76.3186 40.3162 76.9299C40.572 77.5412 40.9466 78.0956 41.4185 78.5608C41.8903 79.026 42.4499 79.3928 43.0648 79.6399C43.6796 79.887 44.3374 80.0094 45 80H62.5C63.1626 80.0094 63.8204 79.887 64.4352 79.6399C65.0501 79.3928 65.6097 79.026 66.0815 78.5608C66.5534 78.0956 66.928 77.5412 67.1838 76.9299C67.4395 76.3186 67.5712 75.6626 67.5712 75C67.5712 74.3374 67.4395 73.6814 67.1838 73.0701C66.928 72.4588 66.5534 71.9044 66.0815 71.4392C65.6097 70.974 65.0501 70.6072 64.4352 70.3601C63.8204 70.113 63.1626 69.9906 62.5 70H45ZM95 75C98.75 75 100.926 76.2262 102.51 78.0078C104.093 79.7894 105 82.3611 105 85C105 87.6389 104.093 90.2106 102.51 91.9922C100.926 93.7738 98.75 95 95 95C91.25 95 89.0739 93.7738 87.4902 91.9922C85.9066 90.2106 85 87.6389 85 85C85 82.3611 85.9066 79.7894 87.4902 78.0078C89.0739 76.2262 91.25 75 95 75Z" fill="url(#paint0_linear_19_765)"/>
</g>
<defs>
<linearGradient id="paint0_linear_19_765" x1="19.9903" y1="10.4441" x2="124.234" y2="109.533" gradientUnits="userSpaceOnUse">
<stop stop-color="#A81B58"/>
<stop offset="1" stop-color="#3C3198"/>
</linearGradient>
<clipPath id="clip0_19_765">
<rect width="120" height="120" fill="white"/>
</clipPath>
</defs>
</svg>
