<svg width="120" height="120" viewBox="0 0 120 120" fill="none" xmlns="http://www.w3.org/2000/svg">
<path d="M59.746 10.0097C58.9135 10.0507 58.1045 10.2991 57.3925 10.7324L12.3925 38.2324C11.4431 38.7926 10.7055 39.6509 10.2943 40.6737C9.88305 41.6965 9.82135 42.8265 10.1187 43.888C10.4161 44.9495 11.056 45.883 11.9387 46.5432C12.8215 47.2035 13.8977 47.5536 14.9999 47.539V95C14.3374 94.9906 13.6795 95.113 13.0647 95.3601C12.4499 95.6071 11.8903 95.9739 11.4184 96.4392C10.9466 96.9044 10.5719 97.4587 10.3161 98.07C10.0604 98.6813 9.92871 99.3373 9.92871 100C9.92871 100.663 10.0604 101.319 10.3161 101.93C10.5719 102.541 10.9466 103.096 11.4184 103.561C11.8903 104.026 12.4499 104.393 13.0647 104.64C13.6795 104.887 14.3374 105.009 14.9999 105H19.1601C19.7 105.089 20.251 105.089 20.7909 105H99.1601C99.7 105.089 100.251 105.089 100.791 105H105C105.662 105.009 106.32 104.887 106.935 104.64C107.55 104.393 108.11 104.026 108.581 103.561C109.053 103.096 109.428 102.541 109.684 101.93C109.939 101.319 110.071 100.663 110.071 100C110.071 99.3373 109.939 98.6813 109.684 98.07C109.428 97.4587 109.053 96.9044 108.581 96.4392C108.11 95.9739 107.55 95.6071 106.935 95.3601C106.32 95.113 105.662 94.9906 105 95V47.5293C106.099 47.5401 107.171 47.1884 108.051 46.5287C108.93 45.8689 109.567 44.9378 109.864 43.8794C110.161 42.8209 110.101 41.6942 109.693 40.6734C109.285 39.6527 108.552 38.7947 107.607 38.2324L62.6073 10.7324C61.748 10.2091 60.7508 9.95728 59.746 10.0097ZM59.9999 20.8593L94.9999 42.2461V95H24.9999V42.2461L59.9999 20.8593ZM59.9218 39.9316C58.5974 39.9523 57.3354 40.4976 56.4126 41.4478C55.4898 42.398 54.9818 43.6756 54.9999 45V46.1621C53.4633 46.4866 51.9305 46.3139 50.4394 47.2168C47.313 49.1097 44.9999 53.1174 44.9999 57.4023C44.9999 61.8054 47.6267 65.8463 50.703 67.5488C53.7794 69.2513 56.7573 69.5279 59.2577 69.9023C61.7581 70.2768 63.7791 70.7407 64.453 71.1133C65.127 71.4858 64.9999 70.8542 64.9999 72.5C64.9999 73.1873 64.9032 73.419 64.2577 73.916C63.6464 74.3867 62.2424 74.8842 60.2245 74.9414C60.0911 74.936 59.9576 74.936 59.8241 74.9414C55.9072 74.8231 53.4863 72.666 53.4863 72.666C53.018 72.1967 52.4611 71.8252 51.8479 71.5731C51.2348 71.321 50.5776 71.1934 49.9147 71.1976C49.2518 71.2018 48.5963 71.3378 47.9864 71.5976C47.3765 71.8575 46.8243 72.236 46.3621 72.7113C45.8998 73.1865 45.5367 73.7488 45.2938 74.3657C45.0508 74.9825 44.933 75.6415 44.9471 76.3043C44.9612 76.9671 45.107 77.6205 45.3759 78.2264C45.6448 78.8324 46.0315 79.3788 46.5136 79.834C46.5136 79.834 50.1113 82.2192 54.9999 83.6816V85C54.9906 85.6625 55.113 86.3203 55.36 86.9352C55.6071 87.55 55.9739 88.1096 56.4391 88.5815C56.9043 89.0533 57.4587 89.428 58.07 89.6837C58.6813 89.9395 59.3373 90.0712 59.9999 90.0712C60.6625 90.0712 61.3186 89.9395 61.9299 89.6837C62.5411 89.428 63.0955 89.0533 63.5607 88.5815C64.0259 88.1096 64.3927 87.55 64.6398 86.9352C64.8869 86.3203 65.0093 85.6625 64.9999 85V83.4765C66.8166 82.9584 68.9033 82.9586 70.3613 81.8359C73.1783 79.6666 74.9999 76.1477 74.9999 72.5C74.9999 68.0982 72.3729 64.0636 69.2968 62.3633C66.2207 60.6629 63.2417 60.384 60.7421 60.0097C58.2425 59.6354 56.2205 59.1716 55.5468 58.7988C54.8731 58.426 54.9999 59.0517 54.9999 57.4023C54.9999 55.8022 55.0565 56.1097 55.6152 55.7715C56.1353 55.4565 57.7602 55.1022 59.6972 55.0488C59.8792 55.062 60.0617 55.0653 60.2441 55.0586C61.5029 55.1633 64.8534 56.1523 64.8534 56.1523C65.4698 56.4145 66.1326 56.5502 66.8025 56.5514C67.4724 56.5525 68.1356 56.419 68.7529 56.1589C69.3702 55.8987 69.9289 55.5172 70.3959 55.037C70.8629 54.5568 71.2286 53.9876 71.4714 53.3633C71.7142 52.739 71.8291 52.0722 71.8092 51.4027C71.7894 50.7331 71.6352 50.0744 71.3558 49.4655C71.0765 48.8567 70.6777 48.3102 70.1831 47.8585C69.6884 47.4068 69.1081 47.059 68.4765 46.8359C68.4765 46.8359 66.0885 46.4484 64.9999 46.084V45C65.0091 44.331 64.8839 43.667 64.6318 43.0473C64.3798 42.4276 64.0059 41.8648 63.5324 41.3922C63.0589 40.9196 62.4953 40.5468 61.8751 40.2959C61.255 40.045 60.5907 39.9212 59.9218 39.9316Z" fill="url(#paint0_linear_12_725)"/>
<defs>
<linearGradient id="paint0_linear_12_725" x1="9.91847" y1="10.3864" x2="99.0556" y2="113.826" gradientUnits="userSpaceOnUse">
<stop stop-color="#A81B58"/>
<stop offset="1" stop-color="#3C3198"/>
</linearGradient>
</defs>
</svg>
