<svg width="518" height="466" viewBox="0 0 518 466" fill="none" xmlns="http://www.w3.org/2000/svg">
<path d="M78.1667 0.5C54.4862 0.5 33.4379 10.3104 20.0922 25.3242C6.74655 40.3381 0.666748 59.3426 0.666748 78C0.666748 96.6574 6.74655 115.662 20.0922 130.676C33.4379 145.69 54.4862 155.5 78.1667 155.5C101.847 155.5 122.896 145.69 136.241 130.676C143.369 122.657 148.316 113.468 151.479 103.833H362.333C391.181 103.833 414 126.653 414 155.5C414 184.347 391.181 207.167 362.333 207.167H155.667C98.9023 207.167 52.3334 253.736 52.3334 310.5C52.3334 367.264 98.9023 413.833 155.667 413.833H366.521C369.685 423.468 374.631 432.657 381.759 440.676C395.105 455.69 416.153 465.5 439.833 465.5C463.514 465.5 484.562 455.69 497.908 440.676C511.254 425.662 517.333 406.657 517.333 388C517.333 369.343 511.254 350.338 497.908 335.324C484.562 320.31 463.514 310.5 439.833 310.5C416.153 310.5 395.105 320.31 381.759 335.324C374.631 343.343 369.685 352.532 366.521 362.167H155.667C126.82 362.167 104 339.347 104 310.5C104 281.653 126.82 258.833 155.667 258.833H362.333C419.098 258.833 465.667 212.264 465.667 155.5C465.667 98.7355 419.098 52.1667 362.333 52.1667H151.479C148.316 42.5316 143.369 33.3433 136.241 25.3242C122.896 10.3104 101.847 0.5 78.1667 0.5ZM78.1667 52.1667C88.9306 52.1667 93.7156 55.273 97.5922 59.6341C101.164 63.6524 103.388 69.8359 103.748 76.3854C103.664 77.4597 103.647 78.5382 103.697 79.6146C103.336 86.1608 101.162 92.3494 97.5922 96.3659C93.7156 100.727 88.9306 103.833 78.1667 103.833C67.4029 103.833 62.6179 100.727 58.7413 96.3659C54.8647 92.0048 52.3334 85.1759 52.3334 78C52.3334 70.8241 54.8647 63.9953 58.7413 59.6341C62.6179 55.273 67.4029 52.1667 78.1667 52.1667ZM439.833 362.167C450.597 362.167 455.382 365.273 459.259 369.634C463.135 373.995 465.667 380.824 465.667 388C465.667 395.176 463.135 402.005 459.259 406.366C455.382 410.727 450.597 413.833 439.833 413.833C429.07 413.833 424.285 410.727 420.408 406.366C416.836 402.348 414.612 396.164 414.252 389.615C414.337 388.54 414.353 387.462 414.303 386.385C414.664 379.839 416.838 373.651 420.408 369.634C424.285 365.273 429.07 362.167 439.833 362.167Z" fill="white" fill-opacity="0.1"/>
</svg>
