<svg width="102" height="96" viewBox="0 0 102 96" fill="none" xmlns="http://www.w3.org/2000/svg">
<path d="M50.746 0.00973257C49.9135 0.0507127 49.1045 0.299127 48.3925 0.732389L3.3925 28.2324C2.46266 28.801 1.74405 29.6579 1.34602 30.6726C0.947985 31.6872 0.892332 32.8041 1.18752 33.8533C1.48272 34.9026 2.11259 35.8266 2.9813 36.4849C3.85001 37.1431 4.90998 37.4996 5.99992 37.5V85C5.33736 84.9906 4.67955 85.113 4.06471 85.3601C3.44987 85.6071 2.89026 85.974 2.41841 86.4392C1.94656 86.9044 1.57188 87.4588 1.31615 88.07C1.06041 88.6813 0.928711 89.3373 0.928711 90C0.928711 90.6626 1.06041 91.3186 1.31615 91.9299C1.57188 92.5412 1.94656 93.0955 2.41841 93.5608C2.89026 94.026 3.44987 94.3928 4.06471 94.6399C4.67955 94.8869 5.33736 95.0093 5.99992 95H10.1601C10.7 95.0892 11.251 95.0892 11.7909 95H30.1601C30.7 95.0892 31.251 95.0892 31.7909 95H50.1601C50.7 95.0892 51.251 95.0892 51.7909 95H70.1601C70.7 95.0892 71.251 95.0892 71.7909 95H90.1601C90.7 95.0892 91.251 95.0892 91.7909 95H95.9999C96.6625 95.0093 97.3203 94.8869 97.9351 94.6399C98.55 94.3928 99.1096 94.026 99.5814 93.5608C100.053 93.0955 100.428 92.5412 100.684 91.9299C100.939 91.3186 101.071 90.6626 101.071 90C101.071 89.3373 100.939 88.6813 100.684 88.07C100.428 87.4588 100.053 86.9044 99.5814 86.4392C99.1096 85.974 98.55 85.6071 97.9351 85.3601C97.3203 85.113 96.6625 84.9906 95.9999 85V37.5C97.0899 37.4996 98.1498 37.1431 99.0185 36.4849C99.8873 35.8266 100.517 34.9026 100.812 33.8533C101.108 32.8041 101.052 31.6872 100.654 30.6726C100.256 29.6579 99.5372 28.801 98.6073 28.2324L53.6073 0.732389C52.748 0.209132 51.7508 -0.0427237 50.746 0.00973257ZM50.9999 10.8593L85.9999 32.2461V85H75.9999V50C76.0093 49.3374 75.8869 48.6796 75.6398 48.0648C75.3927 47.4499 75.0259 46.8903 74.5607 46.4185C74.0955 45.9466 73.5411 45.5719 72.9299 45.3162C72.3186 45.0605 71.6625 44.9288 70.9999 44.9288C70.3373 44.9288 69.6813 45.0605 69.07 45.3162C68.4587 45.5719 67.9043 45.9466 67.4391 46.4185C66.9739 46.8903 66.6071 47.4499 66.36 48.0648C66.113 48.6796 65.9906 49.3374 65.9999 50V85H55.9999V50C56.0093 49.3374 55.8869 48.6796 55.6398 48.0648C55.3928 47.4499 55.0259 46.8903 54.5607 46.4185C54.0955 45.9466 53.5411 45.5719 52.9299 45.3162C52.3186 45.0605 51.6625 44.9288 50.9999 44.9288C50.3373 44.9288 49.6813 45.0605 49.07 45.3162C48.4587 45.5719 47.9043 45.9466 47.4391 46.4185C46.9739 46.8903 46.6071 47.4499 46.36 48.0648C46.113 48.6796 45.9906 49.3374 45.9999 50V85H35.9999V50C36.0093 49.3374 35.8869 48.6796 35.6398 48.0648C35.3928 47.4499 35.0259 46.8903 34.5607 46.4185C34.0955 45.9466 33.5411 45.5719 32.9299 45.3162C32.3186 45.0605 31.6625 44.9288 30.9999 44.9288C30.3373 44.9288 29.6813 45.0605 29.07 45.3162C28.4587 45.5719 27.9043 45.9466 27.4391 46.4185C26.9739 46.8903 26.6071 47.4499 26.36 48.0648C26.113 48.6796 25.9906 49.3374 25.9999 50V85H15.9999V32.2461L50.9999 10.8593ZM50.9999 25C49.6738 25 48.4021 25.5268 47.4644 26.4644C46.5267 27.4021 45.9999 28.6739 45.9999 30C45.9999 31.3261 46.5267 32.5978 47.4644 33.5355C48.4021 34.4732 49.6738 35 50.9999 35C52.326 35 53.5978 34.4732 54.5355 33.5355C55.4731 32.5978 55.9999 31.3261 55.9999 30C55.9999 28.6739 55.4731 27.4021 54.5355 26.4644C53.5978 25.5268 52.326 25 50.9999 25Z" fill="url(#paint0_linear_19_742)"/>
<defs>
<linearGradient id="paint0_linear_19_742" x1="0.918469" y1="0.386352" x2="90.0556" y2="103.826" gradientUnits="userSpaceOnUse">
<stop stop-color="#A81B58"/>
<stop offset="1" stop-color="#3C3198"/>
</linearGradient>
</defs>
</svg>
