<svg width="60" height="60" viewBox="0 0 60 60" fill="none" xmlns="http://www.w3.org/2000/svg">
<path d="M30.0439 4.99995C29.5943 4.99151 29.1506 5.10453 28.7598 5.3271C28.7598 5.3271 20.4959 9.99995 10 9.99995C9.33698 10 8.70113 10.2634 8.23231 10.7323C7.76348 11.2011 7.50007 11.8369 7.5 12.5V31.2109C7.5 39.5421 13.2339 45.5122 18.5596 49.2724C23.8852 53.0327 29.1797 54.8632 29.1797 54.8632C29.711 55.0478 30.289 55.0478 30.8203 54.8632C30.8203 54.8632 36.1148 53.0327 41.4404 49.2724C46.7661 45.5122 52.5 39.5421 52.5 31.2109V12.5C52.4999 11.8369 52.2365 11.2011 51.7677 10.7323C51.2989 10.2634 50.663 10 50 9.99995C39.5041 9.99995 31.2402 5.3271 31.2402 5.3271C30.8753 5.11931 30.4639 5.0068 30.0439 4.99995ZM30 10.2099C31.4888 11.0085 37.9913 14.1443 47.5 14.7509V31.2109C47.5 37.2172 43.2339 41.89 38.5596 45.1904C34.2944 48.2018 30.7185 49.4387 30 49.7021C29.2815 49.4387 25.7056 48.2018 21.4404 45.1904C16.7661 41.89 12.5 37.2172 12.5 31.2109V14.7509C22.0087 14.1443 28.5112 11.0085 30 10.2099Z" fill="white"/>
</svg>
