<svg width="491" height="516" viewBox="0 0 491 516" fill="none" xmlns="http://www.w3.org/2000/svg">
<path d="M234.917 0.171204C105.787 0.171204 0.550537 105.408 0.550537 234.538C0.550537 243.189 1.77485 252.723 2.92196 262.44C3.49551 267.299 4.06221 271.82 4.53654 275.357C4.77369 277.125 4.96611 278.638 5.14201 279.847C5.29933 280.929 5.31614 281.156 5.74748 283.228C17.3765 344.447 47.0446 426.236 109.384 505.485C111.457 508.225 114.056 510.524 117.029 512.247C120.002 513.97 123.289 515.082 126.697 515.52C130.105 515.957 133.566 515.71 136.877 514.793C140.189 513.877 143.284 512.309 145.982 510.181C148.68 508.054 150.927 505.409 152.59 502.403C154.254 499.396 155.301 496.088 155.671 492.672C156.04 489.256 155.725 485.8 154.742 482.508C153.76 479.215 152.131 476.152 149.95 473.496C93.3262 401.512 66.5581 326.95 56.405 273.339L56.3546 273.036L56.3041 272.683C56.8462 275.189 56.439 273.359 56.3041 272.43C56.1693 271.503 55.9672 270.121 55.7491 268.495C55.3128 265.242 54.7727 260.886 54.2354 256.335C53.1609 247.232 52.2172 235.91 52.2172 234.538C52.2172 133.339 133.718 51.8379 234.917 51.8379C296.225 51.8379 334.148 71.8734 360.502 96.8948C362.96 99.2343 365.855 101.067 369.021 102.287C372.187 103.508 375.563 104.093 378.956 104.009C382.348 103.925 385.691 103.173 388.793 101.797C391.895 100.421 394.695 98.4475 397.034 95.9891C399.373 93.5306 401.205 90.6355 402.426 87.469C403.646 84.3025 404.23 80.9266 404.146 77.5342C404.061 74.1418 403.309 70.7993 401.933 67.6975C400.556 64.5958 398.582 61.7955 396.123 59.4567C361.149 26.2498 308.046 0.171206 234.917 0.171204ZM230.376 104.514C226.056 104.689 221.725 105.101 217.359 105.725H217.308C147.545 115.737 92.8485 182.723 105.751 261.784C106.855 268.549 110.601 274.597 116.164 278.6C121.728 282.603 128.654 284.231 135.419 283.127C142.183 282.023 148.232 278.277 152.235 272.713C156.237 267.149 157.865 260.223 156.761 253.459C148.225 201.15 182.446 162.964 224.624 156.887C266.979 150.842 306.08 179.726 312.821 222.126L312.872 222.53L312.972 222.933C315.25 234.824 337.468 328.032 452.281 391.304C455.255 392.987 458.535 394.064 461.928 394.471C465.322 394.878 468.763 394.608 472.051 393.676C475.34 392.743 478.41 391.168 481.086 389.041C483.761 386.913 485.987 384.276 487.636 381.282C489.285 378.288 490.324 374.997 490.691 371.599C491.059 368.201 490.749 364.763 489.779 361.486C488.809 358.208 487.198 355.156 485.04 352.506C482.881 349.855 480.219 347.659 477.206 346.045C378.636 291.724 363.986 214.84 363.68 213.246C352.933 148.314 294.912 101.901 230.376 104.514ZM425.539 130.196C421.498 130.168 417.506 131.089 413.885 132.885C410.264 134.68 407.115 137.3 404.69 140.534C402.266 143.768 400.635 147.526 399.927 151.505C399.219 155.484 399.454 159.574 400.614 163.446C408.085 189.596 414.61 225.079 439.162 250.179C441.518 252.672 444.347 254.67 447.484 256.058C450.621 257.446 454.002 258.195 457.431 258.262C460.861 258.33 464.269 257.713 467.458 256.449C470.646 255.186 473.551 253.299 476.003 250.901C478.455 248.503 480.405 245.64 481.739 242.48C483.073 239.32 483.765 235.926 483.773 232.496C483.782 229.066 483.107 225.669 481.789 222.503C480.471 219.336 478.536 216.464 476.096 214.053C470.578 208.412 457.825 175.56 450.313 149.268C448.835 143.819 445.612 139.003 441.138 135.559C436.664 132.115 431.185 130.231 425.539 130.196ZM233.404 208.352C229.803 208.561 226.286 209.523 223.08 211.174C219.873 212.825 217.048 215.129 214.786 217.938C212.523 220.747 210.874 223.998 209.944 227.483C209.015 230.968 208.825 234.608 209.387 238.171C209.387 238.171 231.616 382.387 388.706 475.212C394.608 478.698 401.652 479.697 408.29 477.989C414.928 476.281 420.615 472.006 424.101 466.105C427.587 460.203 428.586 453.159 426.878 446.521C425.17 439.883 420.895 434.196 414.994 430.71C275.673 348.385 260.498 230.855 260.498 230.855C259.666 224.372 256.408 218.446 251.38 214.271C246.352 210.095 239.929 207.98 233.404 208.352ZM160.546 315.62C156.286 315.859 152.152 317.148 148.512 319.373C144.872 321.599 141.84 324.691 139.687 328.374C137.533 332.056 136.325 336.215 136.17 340.478C136.015 344.742 136.918 348.977 138.799 352.806C158.757 395.021 190.502 445.541 240.468 493.325C242.919 495.672 245.809 497.513 248.971 498.742C252.134 499.972 255.508 500.566 258.901 500.492C262.294 500.417 265.638 499.675 268.744 498.307C271.85 496.94 274.656 494.974 277.002 492.522C279.348 490.07 281.188 487.18 282.417 484.017C283.645 480.854 284.239 477.48 284.164 474.087C284.088 470.695 283.345 467.35 281.977 464.245C280.609 461.139 278.643 458.334 276.19 455.988C231.45 413.201 203.178 368.213 185.471 330.757C183.503 326.419 180.374 322.709 176.429 320.037C172.484 317.366 167.878 315.837 163.119 315.62C162.262 315.578 161.403 315.578 160.546 315.62Z" fill="white" fill-opacity="0.1"/>
</svg>
