<svg width="120" height="120" viewBox="0 0 120 120" fill="none" xmlns="http://www.w3.org/2000/svg">
<path d="M60.3711 10.0977C35.3781 10.0977 15.0098 30.466 15.0098 55.459C15.0098 57.1334 15.2467 58.9787 15.4688 60.8594C15.5798 61.7997 15.6894 62.6749 15.7812 63.3594C15.8271 63.7016 15.8644 63.9944 15.8984 64.2285C15.9289 64.4379 15.9321 64.4819 16.0156 64.8828C18.2664 76.7317 24.0086 92.5618 36.0742 107.9C36.4756 108.431 36.9786 108.876 37.554 109.209C38.1294 109.543 38.7655 109.758 39.4251 109.843C40.0848 109.927 40.7547 109.879 41.3956 109.702C42.0365 109.525 42.6356 109.221 43.1578 108.809C43.68 108.397 44.1149 107.886 44.4368 107.304C44.7588 106.722 44.9615 106.082 45.033 105.42C45.1045 104.759 45.0434 104.09 44.8533 103.453C44.6632 102.816 44.3479 102.223 43.9258 101.709C32.9663 87.7766 27.7854 73.3451 25.8203 62.9688L25.8105 62.9102L25.8008 62.8418C25.9057 63.327 25.8269 62.9727 25.8008 62.793C25.7747 62.6134 25.7356 62.346 25.6934 62.0312C25.6089 61.4017 25.5044 60.5586 25.4004 59.6777C25.1924 57.9159 25.0098 55.7245 25.0098 55.459C25.0098 35.872 40.7841 20.0977 60.3711 20.0977C72.2371 20.0977 79.577 23.9755 84.6777 28.8184C85.1535 29.2712 85.7138 29.6258 86.3266 29.8621C86.9395 30.0983 87.5929 30.2115 88.2495 30.1953C88.9061 30.179 89.553 30.0335 90.1534 29.7672C90.7538 29.5009 91.2958 29.1189 91.7485 28.6431C92.2013 28.1672 92.5559 27.6069 92.792 26.994C93.0282 26.3811 93.1413 25.7277 93.125 25.0711C93.1086 24.4146 92.963 23.7676 92.6966 23.1673C92.4302 22.5669 92.0482 22.0249 91.5723 21.5723C84.803 15.1451 74.5251 10.0977 60.3711 10.0977ZM59.4922 30.293C58.656 30.3268 57.8178 30.4067 56.9727 30.5273H56.9629C43.4604 32.4652 32.8739 45.4303 35.3711 60.7324C35.5848 62.0417 36.3098 63.2124 37.3867 63.9871C38.4635 64.7618 39.804 65.077 41.1133 64.8633C42.4225 64.6496 43.5933 63.9246 44.368 62.8477C45.1426 61.7709 45.4578 60.4303 45.2441 59.1211C43.5919 48.9968 50.2154 41.6059 58.3789 40.4297C66.5766 39.2597 74.1445 44.8503 75.4492 53.0566L75.459 53.1348L75.4785 53.2129C75.9194 55.5143 80.2195 73.5545 102.441 85.8008C103.017 86.1266 103.652 86.335 104.309 86.4137C104.966 86.4925 105.631 86.4402 106.268 86.2598C106.904 86.0794 107.499 85.7745 108.017 85.3627C108.534 84.951 108.965 84.4406 109.284 83.8611C109.604 83.2816 109.805 82.6446 109.876 81.9869C109.947 81.3292 109.887 80.6639 109.699 80.0295C109.511 79.3952 109.2 78.8044 108.782 78.2914C108.364 77.7784 107.849 77.3534 107.266 77.041C88.1875 66.5273 85.3521 51.6465 85.293 51.3379C83.2128 38.7704 71.9829 29.7873 59.4922 30.293ZM97.2656 35.2637C96.4834 35.2583 95.7108 35.4366 95.01 35.7841C94.3091 36.1317 93.6996 36.6388 93.2304 37.2647C92.7612 37.8907 92.4454 38.6179 92.3083 39.3881C92.1713 40.1583 92.2169 40.9499 92.4414 41.6992C93.8875 46.7605 95.1503 53.6281 99.9023 58.4863C100.358 58.9688 100.906 59.3556 101.513 59.6242C102.12 59.8928 102.775 60.0378 103.438 60.0508C104.102 60.0638 104.762 59.9445 105.379 59.6999C105.996 59.4553 106.558 59.0902 107.033 58.626C107.507 58.1618 107.885 57.6077 108.143 56.9962C108.401 56.3846 108.535 55.7277 108.537 55.0638C108.538 54.4 108.408 53.7424 108.153 53.1295C107.898 52.5167 107.523 51.9607 107.051 51.4941C105.983 50.4023 103.514 44.0438 102.061 38.9551C101.774 37.9004 101.151 36.9684 100.285 36.3018C99.4189 35.6351 98.3584 35.2705 97.2656 35.2637ZM60.0781 50.3906C59.3812 50.4312 58.7006 50.6173 58.08 50.9369C57.4594 51.2564 56.9125 51.7024 56.4746 52.246C56.0368 52.7897 55.7176 53.419 55.5376 54.0935C55.3576 54.7679 55.3209 55.4726 55.4297 56.1621C55.4297 56.1621 59.732 84.0749 90.1367 102.041C91.2789 102.716 92.6423 102.909 93.9271 102.578C95.2118 102.248 96.3126 101.421 96.9873 100.278C97.662 99.1361 97.8553 97.7727 97.5248 96.488C97.1942 95.2032 96.3668 94.1024 95.2246 93.4277C68.2593 77.4939 65.3223 54.7461 65.3223 54.7461C65.1611 53.4914 64.5305 52.3445 63.5574 51.5363C62.5843 50.7281 61.341 50.3187 60.0781 50.3906ZM45.9766 71.1523C45.1521 71.1985 44.352 71.448 43.6475 71.8787C42.943 72.3095 42.3562 72.9079 41.9393 73.6207C41.5225 74.3335 41.2886 75.1384 41.2587 75.9636C41.2287 76.7887 41.4035 77.6085 41.7676 78.3496C45.6303 86.5202 51.7746 96.2982 61.4453 105.547C61.9198 106.001 62.4791 106.357 63.0912 106.595C63.7034 106.833 64.3564 106.948 65.0131 106.934C65.6697 106.919 66.3171 106.776 66.9182 106.511C67.5193 106.246 68.0624 105.866 68.5165 105.391C68.9705 104.917 69.3266 104.357 69.5645 103.745C69.8023 103.133 69.9172 102.48 69.9026 101.823C69.888 101.167 69.7443 100.519 69.4795 99.9183C69.2147 99.3173 68.8341 98.7743 68.3594 98.3203C59.7001 90.0389 54.228 81.3315 50.8008 74.082C50.4199 73.2423 49.8142 72.5243 49.0508 72.0072C48.2873 71.4902 47.3957 71.1943 46.4746 71.1523C46.3087 71.1441 46.1425 71.1441 45.9766 71.1523Z" fill="white"/>
</svg>
