<svg width="120" height="120" viewBox="0 0 120 120" fill="none" xmlns="http://www.w3.org/2000/svg">
<path d="M60 10C37.97 10 20 27.97 20 50C20 62.975 25.0577 71.9284 30.3027 77.7734C32.9227 80.6984 35.5591 82.9139 37.5391 84.6289C39.5191 86.3439 40.7243 87.7865 40.6543 87.6465C41.6893 89.7115 43.3626 96.1021 44.2676 100.537C45.3776 106.022 50.2794 110 55.8594 110H64.1406C69.7256 110 74.6224 106.017 75.7324 100.527C76.6274 96.0973 78.3057 89.7165 79.3457 87.6465C79.2757 87.7915 80.4809 86.3439 82.4609 84.6289C84.4409 82.9139 87.0773 80.6934 89.6973 77.7734C94.9423 71.9334 100 62.975 100 50C100 27.97 82.03 10 60 10ZM60 20C76.63 20 90 33.37 90 50C90 60.515 86.3859 66.4985 82.2559 71.1035C80.1909 73.4035 77.973 75.2855 75.918 77.0605C74.788 78.0355 73.681 78.93 72.666 80H67.6172C70.9469 72.5253 70.0667 64.4919 67.8711 58.418C65.8109 52.7186 63.2979 49.011 61.5723 46.6992C60.6755 45.2717 60 44.3066 60 44.3066C68.41 50.7466 72.1784 57.3395 73.8184 61.2695C74.5584 59.5295 75 57.5525 75 55.3125C75 39.4275 62.0402 32.7537 54.7852 30.2637C52.1302 29.3537 49.277 30.8585 48.457 33.6035C46.987 38.5185 45 46.6611 45 54.7461C45 65.2876 52.5399 70.01 60.0586 69.834C60.046 73.246 58.8848 76.6571 55.7812 80H47.334C46.314 78.93 45.212 78.0406 44.082 77.0605C42.032 75.2855 39.8091 73.4035 37.7441 71.1035C33.6141 66.4985 30 60.515 30 50C30 33.37 43.37 20 60 20ZM52.0801 90H67.9199C67.0999 92.95 66.4575 95.9649 65.9375 98.5449C65.7525 99.4349 65.0656 100 64.1406 100H55.8594C54.9444 100 54.2425 99.4299 54.0625 98.5449V98.5352C53.5325 95.9552 52.9001 92.945 52.0801 90Z" fill="url(#paint0_linear_12_727)"/>
<defs>
<linearGradient id="paint0_linear_12_727" x1="19.9918" y1="10.4033" x2="114.045" y2="93.2916" gradientUnits="userSpaceOnUse">
<stop stop-color="#A81B58"/>
<stop offset="1" stop-color="#3C3198"/>
</linearGradient>
</defs>
</svg>
