<svg width="120" height="120" viewBox="0 0 120 120" fill="none" xmlns="http://www.w3.org/2000/svg">
<path d="M42.4999 15C32.3525 15 23.9575 18.9904 18.3886 25.1172C12.8197 31.244 9.99992 39.325 9.99992 47.5C9.99992 50.0483 10.3082 52.5528 10.8398 55H9.99992C9.33736 54.9906 8.67955 55.113 8.06471 55.3601C7.44987 55.6072 6.89026 55.974 6.41841 56.4392C5.94656 56.9044 5.57188 57.4588 5.31615 58.0701C5.06041 58.6814 4.92871 59.3374 4.92871 60C4.92871 60.6626 5.06041 61.3186 5.31615 61.9299C5.57188 62.5412 5.94656 63.0956 6.41841 63.5608C6.89026 64.026 7.44987 64.3928 8.06471 64.6399C8.67955 64.887 9.33736 65.0094 9.99992 65H17.4999H34.9999C35.823 64.9999 36.6334 64.7967 37.3591 64.4083C38.0849 64.0199 38.7035 63.4583 39.1601 62.7734L43.4863 56.2793L50.2538 76.582C50.5663 77.5209 51.1502 78.346 51.9318 78.9528C52.7134 79.5596 53.6575 79.921 54.6445 79.991C55.6315 80.0611 56.6171 79.8367 57.4766 79.3463C58.336 78.856 59.0307 78.1217 59.4726 77.2363L68.0859 60H74.4042C75.1083 60.7872 75.9708 61.4168 76.9351 61.8477C77.8993 62.2785 78.9438 62.5008 79.9999 62.5C81.989 62.5 83.8967 61.7098 85.3032 60.3033C86.7097 58.8968 87.4999 56.9891 87.4999 55C87.4999 53.0109 86.7097 51.1032 85.3032 49.6967C83.8967 48.2902 81.989 47.5 79.9999 47.5C78.9471 47.502 77.9064 47.7256 76.9457 48.1563C75.9849 48.5871 75.1257 49.2152 74.4238 50H64.9999C64.0713 49.9999 63.161 50.2584 62.3711 50.7466C61.5811 51.2347 60.9426 51.9332 60.5273 52.7637L55.9277 61.9629L49.746 43.418C49.3995 42.3816 48.723 41.4872 47.82 40.8717C46.9171 40.2562 45.8374 39.9535 44.746 40.0098C43.9671 40.0491 43.2083 40.27 42.53 40.6549C41.8517 41.0398 41.2729 41.578 40.8398 42.2266L32.3241 55H21.2597C20.5231 52.4135 19.9999 49.8785 19.9999 47.5C19.9999 41.635 22.0523 35.9589 25.7909 31.8457C29.5295 27.7325 34.8774 25 42.4999 25C50.7664 25 56.0644 31.5527 56.0644 31.5527C56.5322 32.1495 57.1296 32.6321 57.8114 32.964C58.4932 33.2959 59.2416 33.4684 59.9999 33.4684C60.7582 33.4684 61.5066 33.2959 62.1884 32.964C62.8702 32.6321 63.4677 32.1495 63.9355 31.5527C63.9355 31.5527 69.2335 25 77.4999 25C85.1225 25 90.4703 27.7325 94.2089 31.8457C97.9475 35.9589 99.9999 41.635 99.9999 47.5C99.9999 58.9607 90.8653 72.7032 80.6054 83.1641C75.4754 88.3945 70.1679 92.8309 65.9765 95.8789C63.8808 97.4029 62.0454 98.5862 60.7519 99.3164C60.4144 99.507 60.2595 99.5728 60.0097 99.6973C59.5797 99.4811 59.1335 99.2575 58.457 98.8477C56.6797 97.7709 54.2386 96.0905 51.5136 93.9648C46.0635 89.7135 39.4099 83.6493 33.662 76.7871C33.2402 76.2836 32.7232 75.8681 32.1408 75.5643C31.5583 75.2606 30.9217 75.0746 30.2673 75.0169C29.613 74.9592 28.9536 75.031 28.327 75.2282C27.7004 75.4254 27.1188 75.744 26.6153 76.166C26.1119 76.588 25.6965 77.1051 25.3929 77.6876C25.0893 78.2701 24.9035 78.9068 24.846 79.5612C24.7885 80.2156 24.8604 80.8749 25.0577 81.5014C25.2551 82.128 25.5739 82.7096 25.996 83.2129C32.3182 90.7607 39.4148 97.1996 45.371 101.846C48.3491 104.169 51.0279 106.033 53.2714 107.393C54.3932 108.072 55.3943 108.631 56.3671 109.072C57.34 109.514 58.0061 110 59.9999 110C61.6667 110 62.3323 109.618 63.1542 109.277C63.9762 108.937 64.7851 108.529 65.6738 108.027C67.451 107.024 69.5233 105.661 71.8554 103.965C76.5196 100.573 82.1815 95.8375 87.7441 90.166C98.8691 78.8231 110 63.8243 110 47.5C110 39.325 107.18 31.244 101.611 25.1172C96.0424 18.9904 87.6473 15 77.4999 15C68.7158 15 63.4201 18.704 59.9999 21.7773C56.5797 18.704 51.284 15 42.4999 15Z" fill="url(#paint0_linear_12_723)"/>
<defs>
<linearGradient id="paint0_linear_12_723" x1="4.91797" y1="15.3832" x2="93.2542" y2="123.012" gradientUnits="userSpaceOnUse">
<stop stop-color="#A81B58"/>
<stop offset="1" stop-color="#3C3198"/>
</linearGradient>
</defs>
</svg>
