<svg width="620" height="620" viewBox="0 0 620 620" fill="none" xmlns="http://www.w3.org/2000/svg">
<path d="M258.283 77.5C158.765 77.5 77.4494 158.628 77.4494 258.333C77.4494 264.175 78.3286 269.509 78.9126 275.034C47.7408 303.354 25.7827 342.191 25.7827 387.5C25.7827 472.777 95.5053 542.5 180.783 542.5H439.116C524.414 542.5 594.116 472.771 594.116 387.5C594.116 331.509 561.331 285.937 516.566 258.737C516.567 258.551 516.616 258.525 516.616 258.333C516.616 201.638 470.089 155 413.283 155C409.48 155 406.242 156.074 402.637 156.514C369.84 110.348 318.943 77.5 258.283 77.5ZM258.283 129.167C307.208 129.167 349.483 156.174 371.455 196.071C374.265 201.168 378.713 205.166 384.08 207.419C389.446 209.672 395.416 210.047 401.022 208.483C405.383 207.266 409.252 206.667 413.283 206.667C442.088 206.667 464.949 229.623 464.949 258.333C464.949 258.791 464.676 261.219 464.142 265.397C463.432 270.983 464.565 276.647 467.371 281.529C470.176 286.411 474.499 290.243 479.682 292.441C516.533 308.114 542.449 344.542 542.449 387.5C542.449 444.829 496.469 490.833 439.116 490.833H180.783C123.46 490.833 77.4494 444.823 77.4494 387.5C77.4494 352.98 94.5823 322.488 120.589 303.743C124.495 300.931 127.537 297.084 129.373 292.636C131.21 288.187 131.767 283.314 130.983 278.566C129.846 271.721 129.116 264.824 129.116 258.333C129.116 186.505 186.629 129.167 258.283 129.167ZM310.05 206.667C267.6 206.667 232.55 241.614 232.55 284.167V310H232.348C218.166 310 206.616 321.367 206.616 335.833V413.333C206.616 427.464 218.166 439.167 232.348 439.167H387.601C401.783 439.167 413.333 427.464 413.333 413.333V335.833C413.333 321.367 401.783 310 387.601 310H387.55L387.601 284.217V284.167C387.601 241.614 352.501 206.667 310.05 206.667ZM310.05 258.333C324.64 258.333 335.934 269.524 335.934 284.167L335.884 310H284.217V284.167C284.217 269.524 295.461 258.333 310.05 258.333Z" fill="white" fill-opacity="0.1"/>
</svg>
