<svg width="60" height="60" viewBox="0 0 60 60" fill="none" xmlns="http://www.w3.org/2000/svg">
<path d="M30 47.5H12.8575C12.66 47.5 12.5 47.34 12.5 47.1425V22.5H47.5V27.5C47.5 28.88 48.62 30 50 30C51.38 30 52.5 28.88 52.5 27.5V12.8575C52.5 9.9025 50.0975 7.5 47.1425 7.5H12.8575C9.9025 7.5 7.5 9.9025 7.5 12.8575V47.1425C7.5 50.0975 9.9025 52.5 12.8575 52.5H30C31.38 52.5 32.5 51.38 32.5 50C32.5 48.62 31.38 47.5 30 47.5ZM12.8575 12.5H47.1425C47.34 12.5 47.5 12.66 47.5 12.8575V17.5H12.5V12.8575C12.5 12.66 12.66 12.5 12.8575 12.5ZM40 27.5C41.38 27.5 42.5 28.62 42.5 30C42.5 31.38 41.38 32.5 40 32.5H27.5C26.12 32.5 25 31.38 25 30C25 28.62 26.12 27.5 27.5 27.5H40ZM22.5 30C22.5 30.65 22.225 31.3 21.775 31.775C21.3 32.225 20.65 32.5 20 32.5C19.35 32.5 18.7 32.225 18.225 31.775C17.775 31.3 17.5 30.65 17.5 30C17.5 29.675 17.575 29.35 17.7 29.05C17.825 28.725 18 28.45 18.225 28.225C19.175 27.3 20.825 27.3 21.775 28.225C22.225 28.7 22.5 29.35 22.5 30ZM60 36.4075C60 37.4075 59.6275 38.4075 58.8775 39.1575L57.0525 40.9825L51.55 35.48L53.375 33.655C54.875 32.155 57.3525 32.155 58.8775 33.655C59.6275 34.4025 60 35.4075 60 36.4075ZM48.9025 38.13L54.4 43.6275L42.955 55.055C42.33 55.68 41.56 56.13 40.71 56.355L36.585 57.4575C35.66 57.7075 34.8075 56.855 35.0575 55.93L36.16 51.805C36.385 50.955 36.835 50.185 37.46 49.56L48.9025 38.13ZM35 42.5H27.5C26.12 42.5 25 41.38 25 40C25 38.62 26.12 37.5 27.5 37.5H35C36.38 37.5 37.5 38.62 37.5 40C37.5 41.38 36.38 42.5 35 42.5ZM21.775 38.225C22.225 38.7 22.5 39.35 22.5 40C22.5 40.65 22.225 41.3 21.775 41.775C21.525 42 21.275 42.175 20.95 42.3C20.65 42.425 20.325 42.5 20 42.5C19.675 42.5 19.35 42.425 19.05 42.3C18.75 42.175 18.475 42 18.225 41.775C17.775 41.3 17.5 40.65 17.5 40C17.5 39.35 17.775 38.7 18.225 38.225C19.175 37.3 20.825 37.3 21.775 38.225Z" fill="white"/>
</svg>
