<svg width="60" height="60" viewBox="0 0 60 60" fill="none" xmlns="http://www.w3.org/2000/svg">
<rect width="60" height="60" rx="12" fill="url(#paint0_linear_154_1323)"/>
<path d="M38.3334 13.3334C34.6517 13.3334 31.6667 16.3184 31.6667 20C31.6667 21.4522 32.1446 22.7853 32.933 23.8802L29.2188 28.3334H24.7624C24.0189 25.463 21.4361 23.3334 18.3334 23.3334C14.6517 23.3334 11.6667 26.3184 11.6667 30C11.6667 33.6817 14.6517 36.6667 18.3334 36.6667C21.4361 36.6667 24.0189 34.5371 24.7624 31.6667H29.2188L32.933 36.1198C32.1446 37.2148 31.6667 38.5479 31.6667 40C31.6667 43.6817 34.6517 46.6667 38.3334 46.6667C42.015 46.6667 45 43.6817 45 40C45 36.3184 42.015 33.3334 38.3334 33.3334C37.3136 33.3334 36.359 33.5815 35.4948 33.9909L32.168 30L35.4948 26.0092C36.359 26.4185 37.3136 26.6667 38.3334 26.6667C42.015 26.6667 45 23.6817 45 20C45 16.3184 42.015 13.3334 38.3334 13.3334ZM38.3334 16.6667C40.1717 16.6667 41.6667 18.1617 41.6667 20C41.6667 21.8384 40.1717 23.3334 38.3334 23.3334C36.495 23.3334 35 21.8384 35 20C35 18.1617 36.495 16.6667 38.3334 16.6667ZM18.3334 26.6667C20.1717 26.6667 21.6667 28.1617 21.6667 30C21.6667 31.8384 20.1717 33.3334 18.3334 33.3334C16.495 33.3334 15 31.8384 15 30C15 28.1617 16.495 26.6667 18.3334 26.6667ZM38.3334 36.6667C40.1717 36.6667 41.6667 38.1617 41.6667 40C41.6667 41.8384 40.1717 43.3334 38.3334 43.3334C36.495 43.3334 35 41.8384 35 40C35 38.1617 36.495 36.6667 38.3334 36.6667Z" fill="white"/>
<defs>
<linearGradient id="paint0_linear_154_1323" x1="9" y1="7.875" x2="52.125" y2="49.5" gradientUnits="userSpaceOnUse">
<stop stop-color="#A81B58"/>
<stop offset="1" stop-color="#3C3198"/>
</linearGradient>
</defs>
</svg>
