<svg width="60" height="60" viewBox="0 0 60 60" fill="none" xmlns="http://www.w3.org/2000/svg">
<path d="M10.625 7.5C7.54734 7.5 5 10.0473 5 13.125V44.375C5 47.4527 7.54734 50 10.625 50H49.375C52.4527 50 55 47.4527 55 44.375V18.125C55 15.0473 52.4527 12.5 49.375 12.5H26.5527C26.2194 12.5 25.9038 12.3687 25.6689 12.1338L22.8662 9.33105C21.6961 8.16092 20.1039 7.5 18.4473 7.5H10.625ZM10.625 12.5H18.4473C18.7806 12.5 19.0962 12.6313 19.3311 12.8662L22.1338 15.6689C23.3039 16.8391 24.8961 17.5 26.5527 17.5H49.375C49.7473 17.5 50 17.7527 50 18.125V44.375C50 44.7473 49.7473 45 49.375 45H10.625C10.2527 45 10 44.7473 10 44.375V13.125C10 12.7527 10.2527 12.5 10.625 12.5ZM20.6006 22.4756C20.1033 22.4757 19.6173 22.6242 19.2047 22.9019C18.7922 23.1797 18.4719 23.5742 18.2848 24.035C18.0976 24.4958 18.0521 25.0019 18.1542 25.4887C18.2562 25.9754 18.501 26.4207 18.8574 26.7676L23.3398 31.25L18.8574 35.7324C18.6175 35.9628 18.4259 36.2387 18.294 36.544C18.162 36.8494 18.0923 37.1779 18.0889 37.5105C18.0855 37.8431 18.1485 38.1731 18.2743 38.481C18.4 38.789 18.5859 39.0687 18.8211 39.3039C19.0563 39.5391 19.336 39.725 19.644 39.8507C19.9519 39.9765 20.2819 40.0395 20.6145 40.0361C20.9471 40.0327 21.2757 39.963 21.581 39.831C21.8863 39.6991 22.1622 39.5075 22.3926 39.2676L28.6426 33.0176C29.1112 32.5487 29.3745 31.9129 29.3745 31.25C29.3745 30.5871 29.1112 29.9513 28.6426 29.4824L22.3926 23.2324C22.1596 22.9929 21.881 22.8026 21.5732 22.6726C21.2654 22.5426 20.9347 22.4756 20.6006 22.4756ZM32.5 35C32.1687 34.9953 31.8398 35.0565 31.5324 35.1801C31.225 35.3036 30.9452 35.487 30.7092 35.7196C30.4733 35.9522 30.286 36.2294 30.1581 36.535C30.0302 36.8407 29.9644 37.1687 29.9644 37.5C29.9644 37.8313 30.0302 38.1593 30.1581 38.465C30.286 38.7706 30.4733 39.0478 30.7092 39.2804C30.9452 39.513 31.225 39.6964 31.5324 39.82C31.8398 39.9435 32.1687 40.0047 32.5 40H40C40.3313 40.0047 40.6602 39.9435 40.9676 39.82C41.275 39.6964 41.5548 39.513 41.7908 39.2804C42.0267 39.0478 42.214 38.7706 42.3419 38.465C42.4698 38.1593 42.5356 37.8313 42.5356 37.5C42.5356 37.1687 42.4698 36.8407 42.3419 36.535C42.214 36.2294 42.0267 35.9522 41.7908 35.7196C41.5548 35.487 41.275 35.3036 40.9676 35.1801C40.6602 35.0565 40.3313 34.9953 40 35H32.5Z" fill="white"/>
</svg>
