<svg width="60" height="60" viewBox="0 0 60 60" fill="none" xmlns="http://www.w3.org/2000/svg">
<path d="M10.625 7.5C7.54734 7.5 5 10.0473 5 13.125V44.375C5 47.4527 7.54734 50 10.625 50H49.375C52.4527 50 55 47.4527 55 44.375V18.125C55 15.0473 52.4527 12.5 49.375 12.5H26.5527C26.2194 12.5 25.9038 12.3687 25.6689 12.1338L22.8662 9.33105C21.6961 8.16092 20.1039 7.5 18.4473 7.5H10.625ZM10.625 12.5H18.4473C18.7806 12.5 19.0962 12.6313 19.3311 12.8662L22.1338 15.6689C23.3039 16.8391 24.8961 17.5 26.5527 17.5H35V22.5H40V17.5H49.375C49.7473 17.5 50 17.7527 50 18.125V44.375C50 44.7473 49.7473 45 49.375 45H35V42.5H30V45H10.625C10.2527 45 10 44.7473 10 44.375V13.125C10 12.7527 10.2527 12.5 10.625 12.5ZM35 42.5H40V37.5H35V42.5ZM35 37.5V32.5H30V37.5H35ZM35 32.5H40V27.5H35V32.5ZM35 27.5V22.5H30V27.5H35Z" fill="white"/>
</svg>
