<svg width="60" height="60" viewBox="0 0 60 60" fill="none" xmlns="http://www.w3.org/2000/svg">
<rect width="60" height="60" rx="12" fill="url(#paint0_linear_154_1317)"/>
<path d="M16.6667 15C16.2247 15 15.8008 15.1757 15.4882 15.4882C15.1757 15.8008 15 16.2247 15 16.6667V20C14.9999 20.3975 15.1419 20.782 15.4004 21.084L25 32.2819V41.6667C25 41.9762 25.0862 42.2796 25.2489 42.543C25.4116 42.8063 25.6444 43.0191 25.9212 43.1576L32.5879 46.4909C32.842 46.6179 33.1244 46.6779 33.4082 46.6651C33.692 46.6523 33.9679 46.5672 34.2095 46.4178C34.4512 46.2684 34.6507 46.0598 34.789 45.8116C34.9274 45.5635 35 45.2841 35 45V32.2819L44.5996 21.084C44.8581 20.782 45.0001 20.3975 45 20V16.6667C45 16.2247 44.8243 15.8008 44.5118 15.4882C44.1992 15.1757 43.7753 15 43.3333 15H16.6667ZM18.3333 18.3333H41.6667V19.3848L32.0671 30.5827C31.8086 30.8847 31.6666 31.2692 31.6667 31.6667V42.3047L28.3333 40.638V31.6667C28.3334 31.2692 28.1914 30.8847 27.9329 30.5827L18.3333 19.3848V18.3333Z" fill="white"/>
<defs>
<linearGradient id="paint0_linear_154_1317" x1="9" y1="7.875" x2="52.125" y2="49.5" gradientUnits="userSpaceOnUse">
<stop stop-color="#A81B58"/>
<stop offset="1" stop-color="#3C3198"/>
</linearGradient>
</defs>
</svg>
