<svg width="120" height="120" viewBox="0 0 120 120" fill="none" xmlns="http://www.w3.org/2000/svg">
<path d="M60 15C30.2231 15 5 34.5322 5 60C5 69.5339 8.98949 78.1567 15 85.3027V104.932C15.0014 106.12 15.4257 107.268 16.1969 108.172C16.9682 109.076 18.0359 109.675 19.209 109.863C19.209 109.863 31.7354 111.331 43.291 102.5C48.6005 103.908 54.1126 105 60 105C89.7769 105 115 85.4678 115 60C115 34.5322 89.7769 15 60 15ZM60 25C85.4531 25 105 41.2878 105 60C105 78.7122 85.4531 95 60 95C54.2322 95 48.7334 94.1178 43.6523 92.5586C42.8263 92.3049 41.9486 92.2696 41.1048 92.4562C40.261 92.6427 39.48 93.0447 38.8379 93.623C33.2443 98.6754 28.4585 99.6565 25 99.8633V83.9258C25.0008 82.6567 24.519 81.4349 23.6523 80.5078C18.1278 74.6076 15 67.5938 15 60C15 41.2878 34.5469 25 60 25ZM40 55C38.6739 55 37.4021 55.5268 36.4645 56.4645C35.5268 57.4021 35 58.6739 35 60C35 61.3261 35.5268 62.5979 36.4645 63.5355C37.4021 64.4732 38.6739 65 40 65C41.3261 65 42.5979 64.4732 43.5355 63.5355C44.4732 62.5979 45 61.3261 45 60C45 58.6739 44.4732 57.4021 43.5355 56.4645C42.5979 55.5268 41.3261 55 40 55ZM60 55C58.6739 55 57.4021 55.5268 56.4645 56.4645C55.5268 57.4021 55 58.6739 55 60C55 61.3261 55.5268 62.5979 56.4645 63.5355C57.4021 64.4732 58.6739 65 60 65C61.3261 65 62.5979 64.4732 63.5355 63.5355C64.4732 62.5979 65 61.3261 65 60C65 58.6739 64.4732 57.4021 63.5355 56.4645C62.5979 55.5268 61.3261 55 60 55ZM80 55C78.6739 55 77.4021 55.5268 76.4645 56.4645C75.5268 57.4021 75 58.6739 75 60C75 61.3261 75.5268 62.5979 76.4645 63.5355C77.4021 64.4732 78.6739 65 80 65C81.3261 65 82.5979 64.4732 83.5355 63.5355C84.4732 62.5979 85 61.3261 85 60C85 58.6739 84.4732 57.4021 83.5355 56.4645C82.5979 55.5268 81.3261 55 80 55Z" fill="url(#paint0_linear_19_769)"/>
<defs>
<linearGradient id="paint0_linear_19_769" x1="4.98875" y1="15.383" x2="92.3993" y2="126.933" gradientUnits="userSpaceOnUse">
<stop stop-color="#A81B58"/>
<stop offset="1" stop-color="#3C3198"/>
</linearGradient>
</defs>
</svg>
