<svg width="60" height="60" viewBox="0 0 60 60" fill="none" xmlns="http://www.w3.org/2000/svg">
<rect width="60" height="60" rx="12" fill="url(#paint0_linear_154_1305)"/>
<path d="M30 15C20.0744 15 11.6667 21.5107 11.6667 30C11.6667 33.178 12.9965 36.0522 15 38.4342V44.9772C15.0005 45.3732 15.1419 45.7561 15.399 46.0573C15.6561 46.3586 16.012 46.5584 16.403 46.6211C16.403 46.6211 20.5785 47.1105 24.4303 44.1667C26.2002 44.6359 28.0375 45 30 45C39.9256 45 48.3333 38.4893 48.3333 30C48.3333 21.5107 39.9256 15 30 15ZM30 18.3333C38.4844 18.3333 45 23.7626 45 30C45 36.2374 38.4844 41.6667 30 41.6667C28.0774 41.6667 26.2444 41.3726 24.5508 40.8529C24.2754 40.7683 23.9829 40.7565 23.7016 40.8187C23.4203 40.8809 23.16 41.0149 22.946 41.2077C21.0814 42.8918 19.4862 43.2188 18.3333 43.2878V37.9753C18.3336 37.5522 18.173 37.145 17.8841 36.8359C16.0426 34.8692 15 32.5313 15 30C15 23.7626 21.5156 18.3333 30 18.3333ZM23.3333 28.3333C22.8913 28.3333 22.4674 28.5089 22.1548 28.8215C21.8423 29.134 21.6667 29.558 21.6667 30C21.6667 30.442 21.8423 30.8659 22.1548 31.1785C22.4674 31.4911 22.8913 31.6667 23.3333 31.6667C23.7754 31.6667 24.1993 31.4911 24.5118 31.1785C24.8244 30.8659 25 30.442 25 30C25 29.558 24.8244 29.134 24.5118 28.8215C24.1993 28.5089 23.7754 28.3333 23.3333 28.3333ZM30 28.3333C29.558 28.3333 29.134 28.5089 28.8215 28.8215C28.5089 29.134 28.3333 29.558 28.3333 30C28.3333 30.442 28.5089 30.8659 28.8215 31.1785C29.134 31.4911 29.558 31.6667 30 31.6667C30.442 31.6667 30.8659 31.4911 31.1785 31.1785C31.4911 30.8659 31.6667 30.442 31.6667 30C31.6667 29.558 31.4911 29.134 31.1785 28.8215C30.8659 28.5089 30.442 28.3333 30 28.3333ZM36.6667 28.3333C36.2246 28.3333 35.8007 28.5089 35.4882 28.8215C35.1756 29.134 35 29.558 35 30C35 30.442 35.1756 30.8659 35.4882 31.1785C35.8007 31.4911 36.2246 31.6667 36.6667 31.6667C37.1087 31.6667 37.5326 31.4911 37.8452 31.1785C38.1577 30.8659 38.3333 30.442 38.3333 30C38.3333 29.558 38.1577 29.134 37.8452 28.8215C37.5326 28.5089 37.1087 28.3333 36.6667 28.3333Z" fill="white"/>
<defs>
<linearGradient id="paint0_linear_154_1305" x1="9" y1="7.875" x2="52.125" y2="49.5" gradientUnits="userSpaceOnUse">
<stop stop-color="#A81B58"/>
<stop offset="1" stop-color="#3C3198"/>
</linearGradient>
</defs>
</svg>
