<svg width="466" height="518" viewBox="0 0 466 518" fill="none" xmlns="http://www.w3.org/2000/svg">
<path d="M233.454 0.666662C228.807 0.579429 224.223 1.7473 220.184 4.0472C220.184 4.0472 134.791 52.3333 26.3333 52.3333C19.4821 52.334 12.9117 55.056 8.06716 59.9005C3.22262 64.745 0.500685 71.3154 0.5 78.1667V271.513C0.5 357.602 59.7504 419.293 114.782 458.149C169.814 497.005 224.523 515.921 224.523 515.921C230.014 517.827 235.986 517.827 241.477 515.921C241.477 515.921 296.186 497.005 351.218 458.149C406.25 419.293 465.5 357.602 465.5 271.513V78.1667C465.499 71.3154 462.777 64.745 457.933 59.9005C453.088 55.056 446.518 52.334 439.667 52.3333C331.209 52.3333 245.816 4.0472 245.816 4.0472C242.045 1.90004 237.793 0.737431 233.454 0.666662ZM233 54.5029C248.385 62.7554 315.576 95.158 413.833 101.427V271.513C413.833 311.414 395.532 345.534 369.685 373.938C336.605 335.345 287.692 310.667 233 310.667C178.308 310.667 129.395 335.345 96.3154 373.938C70.4684 345.534 52.1667 311.414 52.1667 271.513V101.427C150.424 95.158 217.615 62.7554 233 54.5029ZM233 129.833C204.454 129.833 181.333 152.954 181.333 181.5V207.333C181.333 235.879 204.454 259 233 259C261.546 259 284.667 235.879 284.667 207.333V181.5C284.667 152.954 261.546 129.833 233 129.833ZM233 362.333C272.775 362.333 307.814 380.285 331.389 408.45C328.08 410.962 324.812 413.593 321.449 415.968C277.376 447.086 240.424 459.867 233 462.589C225.576 459.867 188.624 447.086 144.551 415.968C141.188 413.593 137.92 410.962 134.611 408.45C158.186 380.285 193.225 362.333 233 362.333Z" fill="white" fill-opacity="0.1"/>
</svg>
