<svg width="120" height="120" viewBox="0 0 120 120" fill="none" xmlns="http://www.w3.org/2000/svg">
<path d="M30.1269 4.99999C29.4491 4.98312 28.7749 5.10428 28.1453 5.3561C27.5158 5.60792 26.944 5.98514 26.4648 6.46484C17.978 14.9517 17.8858 23.9372 18.4961 29.8535C15.7267 29.691 12.1801 29.2096 9.01364 27.8906C8.10154 27.5124 7.09789 27.4128 6.12922 27.6041C5.16055 27.7955 4.27022 28.2694 3.57046 28.966C2.8707 29.6626 2.39284 30.5508 2.19712 31.5186C2.0014 32.4864 2.09659 33.4905 2.47067 34.4043C5.92395 42.794 10.7313 48.1315 14.7754 51.2988C14.9348 51.4237 14.9199 51.3558 15.0781 51.4746C12.3426 52.9919 9.77536 54.0723 9.77536 54.0723C8.89198 54.2977 8.08705 54.7604 7.44761 55.4102C6.80817 56.0601 6.35856 56.8723 6.14739 57.7592C5.93622 58.6461 5.97154 59.5739 6.24953 60.4422C6.52751 61.3104 7.03758 62.0862 7.72457 62.6855C18.946 72.433 28.7093 77.372 31.0937 78.5449C31.6046 79.5695 31.8674 80.1829 32.3437 81.1426C30.1374 81.6032 28.1276 82.1995 26.3672 82.6758C23.1296 83.5516 20.8518 83.8608 19.4922 83.4863C18.1325 83.1118 16.6182 82.2401 14.5117 77.8418C14.0898 76.9251 13.4005 76.1574 12.5342 75.6398C11.668 75.1221 10.6654 74.8787 9.65817 74.9414C8.83444 74.9922 8.0361 75.2461 7.33434 75.6805C6.63259 76.1148 6.04926 76.7161 5.63636 77.4307C5.22347 78.1453 4.99386 78.9509 4.96802 79.7758C4.94217 80.6007 5.1209 81.4192 5.48825 82.1582C8.32676 88.0849 12.2816 91.8803 16.8359 93.1348C21.3902 94.3892 25.4688 93.285 28.9843 92.334C31.883 91.5498 34.5084 90.8183 36.8847 90.5664C39.1252 95.44 40.8945 99.739 41.8261 103.535C43.4627 110.215 49.4904 115 56.3965 115H60H63.6035C70.5096 115 76.5372 110.215 78.1738 103.535C79.1054 99.739 80.8748 95.44 83.1152 90.5664C85.4915 90.8183 88.1169 91.5498 91.0156 92.334C94.5312 93.285 98.6097 94.3892 103.164 93.1348C107.718 91.8803 111.673 88.0849 114.512 82.1582C114.883 81.4076 115.06 80.5757 115.027 79.7388C114.993 78.9019 114.75 78.0868 114.319 77.3685C113.889 76.6501 113.284 76.0514 112.562 75.6273C111.84 75.2032 111.023 74.9674 110.186 74.9414C109.204 74.9104 108.236 75.1689 107.4 75.6846C106.565 76.2004 105.9 76.9506 105.488 77.8418C103.382 82.2401 101.867 83.1118 100.508 83.4863C99.1482 83.8608 96.8704 83.5516 93.6328 82.6758C91.8723 82.1995 89.8626 81.6032 87.6562 81.1426C88.1326 80.1829 88.3953 79.5695 88.9062 78.5449C91.2908 77.3718 101.054 72.4378 112.275 62.6855C112.965 62.0866 113.478 61.3103 113.757 60.4407C114.037 59.5711 114.073 58.6416 113.862 57.7529C113.65 56.8643 113.199 56.0505 112.558 55.3999C111.917 54.7493 111.11 54.2868 110.225 54.0625C110.225 54.0625 107.665 52.9797 104.932 51.4648C105.084 51.3504 105.071 51.4188 105.225 51.2988C109.27 48.1317 114.088 42.7974 117.539 34.4043C117.918 33.489 118.016 32.4819 117.821 31.5108C117.627 30.5396 117.148 29.6481 116.446 28.9493C115.744 28.2505 114.851 27.7759 113.879 27.5857C112.906 27.3955 111.9 27.4982 110.986 27.8809C107.82 29.2017 104.273 29.6904 101.504 29.8535C102.114 23.9372 102.022 14.9516 93.5351 6.46484C92.9094 5.83871 92.1286 5.38992 91.2726 5.16431C90.4166 4.9387 89.5161 4.94437 88.663 5.18073C87.8099 5.41709 87.0349 5.87567 86.4171 6.50962C85.7992 7.14357 85.3608 7.93017 85.1465 8.78906C82.8074 18.1452 79.3812 24.0154 76.6699 27.5195C74.5393 30.273 73.8165 30.5992 73.3007 30.957C69.4976 30.3046 65.0093 30.37 59.9804 31.9824C54.9645 30.3796 50.4912 30.3056 46.6992 30.957C46.1834 30.5992 45.4606 30.273 43.33 27.5195C40.6187 24.0154 37.1925 18.1452 34.8535 8.78906C34.5887 7.72733 33.983 6.78176 33.1293 6.09733C32.2755 5.41291 31.2208 5.02743 30.1269 4.99999ZM29.0429 22.1582C31.1141 26.9038 33.3173 30.9154 35.4199 33.6328C38.9586 38.2062 42.3828 40.4102 42.3828 40.4102C42.9652 40.7687 43.6149 41.0039 44.2918 41.1013C44.9688 41.1988 45.6585 41.1563 46.3183 40.9766C49.3564 40.1433 53.4285 39.751 58.1445 41.6406C59.3357 42.1166 60.6642 42.1166 61.8554 41.6406C66.5747 39.7537 70.6474 40.1443 73.6816 40.9766C74.3415 41.1563 75.0312 41.1988 75.7081 41.1013C76.385 41.0039 77.0348 40.7687 77.6172 40.4102C77.6172 40.4102 81.0414 38.2062 84.58 33.6328C86.6826 30.9154 88.8858 26.9038 90.957 22.1582C92.3838 28.0838 91.3183 33.5742 91.3183 33.5742C91.1391 34.2678 91.111 34.9918 91.2359 35.6972C91.3608 36.4026 91.6359 37.073 92.0424 37.6628C92.4489 38.2527 92.9774 38.7483 93.5922 39.1162C94.2069 39.484 94.8935 39.7155 95.6054 39.7949C95.6054 39.7949 98.6119 39.9872 102.715 39.707C101.452 41.1683 100.169 42.5437 99.0527 43.418C96.2245 45.6321 94.6093 46.0547 94.6093 46.0547C93.8435 46.284 93.1438 46.6936 92.569 47.2492C91.9941 47.8047 91.5608 48.49 91.3054 49.2476C91.05 50.0051 90.98 50.8128 91.1012 51.603C91.2224 52.3932 91.5312 53.1429 92.0019 53.7891C94.152 56.7423 96.8759 58.1731 99.4433 59.6875C90.6299 66.1949 82.8808 70.4688 82.8808 70.4688C81.8601 70.9466 81.0308 71.7553 80.5273 72.7637C78.9911 75.8374 77.602 78.6164 76.3476 81.1914C73.123 82.0043 69.8137 83.5336 66.7187 86.2207C65.9287 86.9083 65.3743 87.8264 65.1336 88.8458C64.8929 89.8651 64.978 90.9343 65.377 91.9027C65.776 92.8711 66.4688 93.6899 67.3577 94.2438C68.2466 94.7977 69.2869 95.0587 70.332 94.9902C69.5985 97.0545 68.9747 99.0827 68.4668 101.152C67.9033 103.452 65.9474 105 63.6035 105H60H56.3965C54.0525 105 52.0966 103.452 51.5332 101.152C51.0252 99.0827 50.4014 97.0545 49.6679 94.9902C50.7131 95.0587 51.7533 94.7977 52.6422 94.2438C53.5312 93.6899 54.2239 92.8711 54.6229 91.9027C55.0219 90.9343 55.1071 89.8651 54.8664 88.8458C54.6257 87.8264 54.0713 86.9083 53.2812 86.2207C50.1862 83.5336 46.877 82.0043 43.6523 81.1914C42.3979 78.6164 41.0089 75.8374 39.4726 72.7637C38.9692 71.7553 38.1398 70.9466 37.1191 70.4688C37.1191 70.4688 29.3704 66.1926 20.5566 59.6875C23.123 58.1733 25.849 56.7409 27.998 53.7891C28.4666 53.143 28.7738 52.3942 28.8938 51.6052C29.0139 50.8162 28.9433 50.0099 28.6881 49.2538C28.4328 48.4976 28.0003 47.8135 27.4266 47.2587C26.853 46.7038 26.1548 46.2943 25.3906 46.0644C25.3906 46.0644 23.7756 45.6429 20.9472 43.4277C19.8304 42.553 18.558 41.1686 17.2949 39.707C21.3969 39.9862 24.3945 39.7949 24.3945 39.7949C25.1065 39.7155 25.793 39.484 26.4078 39.1162C27.0225 38.7483 27.551 38.2527 27.9575 37.6628C28.3641 37.073 28.6391 36.4026 28.764 35.6972C28.8889 34.9918 28.8608 34.2678 28.6816 33.5742C28.6816 33.5742 27.6162 28.0838 29.0429 22.1582ZM40.957 52.9492C40.957 52.9492 36.3965 54.6806 36.3965 57.8906C36.3965 63.9456 48.4765 63.7988 48.4765 63.7988L50.0683 61.5234L40.957 52.9492ZM79.0429 52.9492L69.9316 61.5234L71.5234 63.7988C71.5234 63.7988 83.6035 63.9456 83.6035 57.8906C83.6035 54.6806 79.0429 52.9492 79.0429 52.9492Z" fill="white"/>
</svg>
