<?xml version="1.0" encoding="UTF-8"?>
<svg width="60" height="60" fill="none" version="1.1" viewBox="0 0 60 60" xml:space="preserve" xmlns="http://www.w3.org/2000/svg"><path d="m30.041 11.667c-0.3223-0.01-0.6361 0.1048-0.8757 0.3207 0 0-6.2565 5.5127-13.748 5.5127-0.3316 0-0.6495 0.1317-0.8839 0.3661s-0.3661 0.5523-0.3661 0.8839v10.216c0 5.5651 2.5745 14.722 15.348 20.103 0.1535 0.0646 0.3184 0.0979 0.485 0.0979s0.3315-0.0333 0.485-0.0979c12.774-5.3804 15.348-14.538 15.348-20.103v-10.216c0-0.3316-0.1317-0.6495-0.3661-0.8839s-0.5524-0.3661-0.8839-0.3661c-7.4918 0-13.748-5.5127-13.748-5.5127-0.2187-0.1971-0.5-0.3107-0.7942-0.3207zm-0.0407 2.8565c1.7191 1.3822 6.7594 4.9245 13.333 5.3727v9.0706c0 4.7852-1.8388 12.505-13.333 17.555-11.494-5.0504-13.333-12.77-13.333-17.555v-9.0706c6.5739-0.4482 11.614-3.9905 13.333-5.3727zm0 8.8102c-0.8745 0-1.7269 0.2751-2.4363 0.7865-0.7094 0.5113-1.24 1.2329-1.5166 2.0625-0.2765 0.8297-0.285 1.7253-0.0242 2.56 0.2607 0.8348 0.7775 1.5663 1.4771 2.091v4.1667c0 1.3808 1.1192 2.5 2.5 2.5s2.5-1.1192 2.5-2.5v-4.1732c0.6969-0.5255 1.2112-1.2567 1.4703-2.0902 0.259-0.8335 0.2498-1.7273-0.0265-2.5553-0.2762-0.828-0.8055-1.5483-1.5131-2.0593s-1.5579-0.7869-2.4307-0.7887z" fill="#fff"/><defs><filter id="filter0_d_2025_249" x="0" y="0" width="80" height="80" color-interpolation-filters="sRGB" filterUnits="userSpaceOnUse"><feFlood flood-opacity="0" result="BackgroundImageFix"/><feColorMatrix in="SourceAlpha" result="hardAlpha" values="0 0 0 0 0 0 0 0 0 0 0 0 0 0 0 0 0 0 127 0"/><feOffset dx="5" dy="5"/><feGaussianBlur stdDeviation="5"/><feComposite in2="hardAlpha" operator="out"/><feColorMatrix values="0 0 0 0 0 0 0 0 0 0 0 0 0 0 0 0 0 0 0.05 0"/><feBlend in2="BackgroundImageFix" result="effect1_dropShadow_2025_249"/><feBlend in="SourceGraphic" in2="effect1_dropShadow_2025_249" result="shape"/></filter></defs><g transform="translate(-5,-5)" fill="none"><g filter="url(#filter0_d_2025_249)"><rect x="5" y="5" width="60" height="60" rx="12" fill="#fff"/><g fill="#901d4f"><path d="m14 39.567h9.6326v9.9613l5.152-4.707v-10.29h-10.085z"/><path d="m16.576 33.423h13.442v19.115l7.9473-6.8142v-17.897h-15.675z"/><path d="m20.837 26.486h18.251v29.514l10.414-11.959v-24.041h-21.732z"/><path d="m23.633 39.567 5.152-5.0353v10.29z"/><path d="m23.633 39.567 5.152-5.0353h-10.085z"/><path d="m30.018 33.423 7.9473-5.5963v17.897z"/><path d="m30.018 33.423 7.9472-5.5963h-15.675z"/><path d="m39.089 26.486 10.414-6.4857v24.041z"/><path d="m39.089 26.486 10.414-6.4857h-21.732z"/></g></g></g></svg>
