<svg width="80" height="80" viewBox="0 0 80 80" fill="none" xmlns="http://www.w3.org/2000/svg">
<g filter="url(#filter0_d_2025_249)">
<rect x="5" y="5" width="60" height="60" rx="12" fill="white"/>
<path d="M14 39.5667H23.6326V49.528L28.7846 44.821V34.5314H18.6998L14 39.5667Z" fill="#901D4F"/>
<path d="M16.576 33.423H30.0178V52.5382L37.9651 45.724V27.8267H22.2898L16.576 33.423Z" fill="#901D4F"/>
<path d="M20.8374 26.4857H39.0887V56L49.5023 44.041V20H27.7707L20.8374 26.4857Z" fill="#901D4F"/>
<path d="M23.6326 39.5667L28.7846 34.5314V44.821L23.6326 39.5667Z" fill="#901D4F"/>
<path d="M23.6326 39.5667L28.7846 34.5314H18.6998L23.6326 39.5667Z" fill="#901D4F"/>
<path d="M30.0178 33.423L37.9651 27.8267V45.724L30.0178 33.423Z" fill="#901D4F"/>
<path d="M30.0179 33.423L37.9651 27.8267H22.2899L30.0179 33.423Z" fill="#901D4F"/>
<path d="M39.0887 26.4857L49.5023 20V44.041L39.0887 26.4857Z" fill="#901D4F"/>
<path d="M39.0886 26.4857L49.5023 20H27.7706L39.0886 26.4857Z" fill="#901D4F"/>
</g>
<defs>
<filter id="filter0_d_2025_249" x="0" y="0" width="80" height="80" filterUnits="userSpaceOnUse" color-interpolation-filters="sRGB">
<feFlood flood-opacity="0" result="BackgroundImageFix"/>
<feColorMatrix in="SourceAlpha" type="matrix" values="0 0 0 0 0 0 0 0 0 0 0 0 0 0 0 0 0 0 127 0" result="hardAlpha"/>
<feOffset dx="5" dy="5"/>
<feGaussianBlur stdDeviation="5"/>
<feComposite in2="hardAlpha" operator="out"/>
<feColorMatrix type="matrix" values="0 0 0 0 0 0 0 0 0 0 0 0 0 0 0 0 0 0 0.05 0"/>
<feBlend mode="normal" in2="BackgroundImageFix" result="effect1_dropShadow_2025_249"/>
<feBlend mode="normal" in="SourceGraphic" in2="effect1_dropShadow_2025_249" result="shape"/>
</filter>
</defs>
</svg>
