<svg width="120" height="120" viewBox="0 0 120 120" fill="none" xmlns="http://www.w3.org/2000/svg">
<path d="M60 10C32.4433 10 10 32.4433 10 60V80V82.5C10 86.64 13.36 90 17.5 90H22.5C26.64 90 30 86.64 30 82.5V67.5C30 63.36 26.64 60 22.5 60H20C20 37.8467 37.8467 20 60 20C82.1533 20 100 37.8467 100 60H97.5C93.36 60 90 63.36 90 67.5V82.5C90 86.64 93.36 90 97.5 90H100C100 95.5833 95.5833 100 90 100H68.6621C67.7843 98.4795 66.5216 97.217 65.0011 96.3393C63.4805 95.4616 61.7557 94.9997 60 95C57.3478 95 54.8043 96.0536 52.9289 97.9289C51.0536 99.8043 50 102.348 50 105C50 107.652 51.0536 110.196 52.9289 112.071C54.8043 113.946 57.3478 115 60 115C61.7524 114.997 63.4732 114.533 64.99 113.656C66.5068 112.778 67.7664 111.518 68.6426 110H90C100.987 110 110 100.987 110 90V82.5V60C110 32.4433 87.5567 10 60 10Z" fill="url(#paint0_linear_19_745)"/>
<defs>
<linearGradient id="paint0_linear_19_745" x1="9.98977" y1="10.4235" x2="109.421" y2="114.742" gradientUnits="userSpaceOnUse">
<stop stop-color="#A81B58"/>
<stop offset="1" stop-color="#3C3198"/>
</linearGradient>
</defs>
</svg>
