<svg width="120" height="120" viewBox="0 0 120 120" fill="none" xmlns="http://www.w3.org/2000/svg">
<g clip-path="url(#clip0_19_743)">
<path d="M34.9902 35.01C34.9902 29.485 30.5152 25.01 24.9902 25.01C19.4652 25.01 14.9902 29.485 14.9902 35.01C14.9902 35.875 14.9902 39.135 14.9902 40.01C14.9902 45.535 19.4652 50.01 24.9902 50.01C30.5152 50.01 34.9902 45.535 34.9902 40.01C34.9902 39.135 34.9902 35.875 34.9902 35.01ZM-0.00976562 75.01V73.635C-0.00976562 72.415 0.435234 71.24 1.24523 70.33C1.54523 69.985 8.84024 61.815 19.1602 60.075C19.4402 60.035 19.7152 60.01 19.9952 60.01H29.9952C30.2752 60.01 30.5502 60.035 30.8302 60.075C34.7952 60.75 38.3152 62.37 41.1702 64.135C38.9902 65.28 37.1052 66.515 35.5452 67.655C31.6402 70.51 29.1902 73.2 28.7202 73.75C27.1402 75.535 26.0202 77.69 25.4402 80.01H4.99023C2.23023 80.01 -0.00976562 77.77 -0.00976562 75.01ZM91.2202 73.71C90.7802 73.21 88.3552 70.525 84.4252 67.655C82.8602 66.515 80.9702 65.28 78.8002 64.135C81.6452 62.375 85.1752 60.75 89.1552 60.075C89.4352 60.035 89.7102 60.01 89.9902 60.01H99.9902C100.27 60.01 100.545 60.035 100.825 60.075C111.14 61.815 118.43 69.98 118.74 70.33C119.545 71.245 119.995 72.415 119.995 73.635V75.01C119.995 77.77 117.755 80.01 114.995 80.01H94.5402C93.9552 77.69 92.8202 75.525 91.2202 73.71ZM104.99 35.01C104.99 29.485 100.515 25.01 94.9902 25.01C89.4652 25.01 84.9902 29.485 84.9902 35.01C84.9902 35.875 84.9902 39.135 84.9902 40.01C84.9902 45.535 89.4652 50.01 94.9902 50.01C100.515 50.01 104.99 45.535 104.99 40.01C104.99 39.135 104.99 35.875 104.99 35.01ZM83.7352 80.33C83.4302 79.985 76.1352 71.815 65.8202 70.075C65.5402 70.035 65.2652 70.01 64.9852 70.01H54.9852C54.7052 70.01 54.4302 70.035 54.1502 70.075C43.8302 71.815 36.5352 79.98 36.2352 80.33C35.4302 81.245 34.9802 82.415 34.9802 83.635V90.01C34.9802 92.77 37.2202 95.01 39.9802 95.01H79.9802C82.7402 95.01 84.9802 92.77 84.9802 90.01V83.635C84.9902 82.415 84.5402 81.245 83.7352 80.33ZM69.9902 45.01C69.9902 39.485 65.5152 35.01 59.9902 35.01C54.4652 35.01 49.9902 39.485 49.9902 45.01C49.9902 45.875 49.9902 49.135 49.9902 50.01C49.9902 55.535 54.4652 60.01 59.9902 60.01C65.5152 60.01 69.9902 55.535 69.9902 50.01C69.9902 49.135 69.9902 45.875 69.9902 45.01Z" fill="url(#paint0_linear_19_743)"/>
</g>
<defs>
<linearGradient id="paint0_linear_19_743" x1="-0.0220385" y1="25.2923" x2="54.8682" y2="128.955" gradientUnits="userSpaceOnUse">
<stop stop-color="#A81B58"/>
<stop offset="1" stop-color="#3C3198"/>
</linearGradient>
<clipPath id="clip0_19_743">
<rect width="120" height="120" fill="white"/>
</clipPath>
</defs>
</svg>
