<svg width="60" height="60" viewBox="0 0 60 60" fill="none" xmlns="http://www.w3.org/2000/svg">
<rect width="60" height="60" rx="12" fill="url(#paint0_linear_154_1329)"/>
<path d="M26.6666 16.6667C19.3226 16.6667 13.3333 22.656 13.3333 30.0001C13.3333 37.3441 19.3226 43.3334 26.6666 43.3334C27.8293 43.3334 28.9529 43.1693 30.0293 42.8875C31.0864 43.1598 32.1872 43.3334 33.3333 43.3334C40.6774 43.3334 46.6666 37.3441 46.6666 30.0001C46.6666 22.656 40.6774 16.6667 33.3333 16.6667C32.1872 16.6667 31.0864 16.8404 30.0293 17.1127C28.9529 16.8309 27.8293 16.6667 26.6666 16.6667ZM26.6666 20.0001C27.5556 20.0001 28.4126 20.1265 29.2317 20.3419C29.4048 20.4253 29.5909 20.4781 29.7819 20.4981C33.7874 21.8014 36.6666 25.5471 36.6666 30.0001C36.6666 34.4556 33.7845 38.204 29.7754 39.5053C29.5857 39.5246 29.4007 39.5764 29.2285 39.6583C28.4102 39.8732 27.5545 40.0001 26.6666 40.0001C21.1241 40.0001 16.6666 35.5427 16.6666 30.0001C16.6666 24.4575 21.1241 20.0001 26.6666 20.0001ZM35.7975 20.3158C40.1376 21.4086 43.3333 25.31 43.3333 30.0001C43.3333 34.6902 40.1376 38.5915 35.7975 39.6843C38.3771 37.2504 40 33.8125 40 30.0001C40 26.1877 38.3771 22.7497 35.7975 20.3158ZM26.6406 21.644C26.1991 21.6509 25.7785 21.8326 25.4709 22.1494C25.1633 22.4661 24.9939 22.8919 25 23.3334V23.7208C24.4878 23.8289 23.9768 23.7714 23.4798 24.0723C22.4377 24.7033 21.6666 26.0392 21.6666 27.4675C21.6666 28.9352 22.5422 30.2822 23.5677 30.8497C24.5931 31.4172 25.5858 31.5094 26.4193 31.6342C27.2527 31.759 27.9264 31.9137 28.151 32.0378C28.3757 32.162 28.3333 31.9515 28.3333 32.5001C28.3333 32.7292 28.3011 32.8064 28.0859 32.9721C27.8821 33.129 27.4141 33.2948 26.7415 33.3139C26.697 33.3121 26.6525 33.3121 26.6081 33.3139C25.3024 33.2745 24.4954 32.5554 24.4954 32.5554C24.3393 32.399 24.1537 32.2752 23.9493 32.1911C23.7449 32.1071 23.5259 32.0645 23.3049 32.0659C23.0839 32.0673 22.8654 32.1127 22.6621 32.1993C22.4588 32.2859 22.2748 32.4121 22.1207 32.5705C21.9666 32.7289 21.8455 32.9164 21.7646 33.122C21.6836 33.3276 21.6443 33.5473 21.649 33.7682C21.6537 33.9891 21.7023 34.2069 21.792 34.4089C21.8816 34.6109 22.0105 34.793 22.1712 34.9447C22.1712 34.9447 23.3704 35.7398 25 36.2273V36.6667C24.9969 36.8876 25.0377 37.1069 25.12 37.3118C25.2024 37.5168 25.3246 37.7033 25.4797 37.8606C25.6348 38.0179 25.8196 38.1428 26.0233 38.228C26.2271 38.3133 26.4458 38.3572 26.6666 38.3572C26.8875 38.3572 27.1062 38.3133 27.31 38.228C27.5137 38.1428 27.6985 38.0179 27.8536 37.8606C28.0087 37.7033 28.1309 37.5168 28.2133 37.3118C28.2956 37.1069 28.3364 36.8876 28.3333 36.6667V36.1589C28.9389 35.9862 29.6344 35.9863 30.1204 35.6121C31.0595 34.889 31.6666 33.716 31.6666 32.5001C31.6666 31.0328 30.791 29.6879 29.7656 29.1212C28.7402 28.5544 27.7472 28.4614 26.914 28.3367C26.0808 28.2119 25.4068 28.0573 25.1823 27.933C24.9577 27.8087 25 28.0173 25 27.4675C25 26.9342 25.0188 27.0367 25.2051 26.9239C25.3785 26.8189 25.9201 26.7008 26.5657 26.683C26.6264 26.6874 26.6872 26.6885 26.748 26.6863C27.1676 26.7212 28.2845 27.0509 28.2845 27.0509C28.49 27.1383 28.7109 27.1835 28.9342 27.1839C29.1575 27.1843 29.3785 27.1398 29.5843 27.0531C29.7901 26.9663 29.9763 26.8392 30.132 26.6791C30.2876 26.519 30.4095 26.3293 30.4905 26.1212C30.5714 25.9131 30.6097 25.6908 30.6031 25.4677C30.5965 25.2445 30.5451 25.0249 30.452 24.8219C30.3588 24.619 30.2259 24.4368 30.061 24.2863C29.8961 24.1357 29.7027 24.0198 29.4922 23.9454C29.4922 23.9454 28.6962 23.8162 28.3333 23.6947V23.3334C28.3364 23.1104 28.2946 22.8891 28.2106 22.6825C28.1266 22.476 28.002 22.2884 27.8441 22.1308C27.6863 21.9733 27.4984 21.849 27.2917 21.7654C27.085 21.6818 26.8636 21.6405 26.6406 21.644Z" fill="white"/>
<defs>
<linearGradient id="paint0_linear_154_1329" x1="9" y1="7.875" x2="52.125" y2="49.5" gradientUnits="userSpaceOnUse">
<stop stop-color="#A81B58"/>
<stop offset="1" stop-color="#3C3198"/>
</linearGradient>
</defs>
</svg>
