<svg width="532" height="478" viewBox="0 0 532 478" fill="none" xmlns="http://www.w3.org/2000/svg">
<path d="M266 0.289734C244.122 0.289734 222.245 10.811 210.146 31.7741L8.62545 380.776C-15.5705 422.699 16.0871 477.5 64.4799 477.5H467.52C515.923 477.5 547.571 422.699 523.375 380.776L321.855 31.7741C309.756 10.811 287.878 0.289734 266 0.289734ZM266 50.3418C270.162 50.3418 274.319 52.7384 277.1 57.557L478.621 406.61C484.132 416.232 478.617 425.833 467.52 425.833H64.4799C53.4254 425.833 47.8683 416.232 53.3797 406.61V406.559L254.9 57.557C257.681 52.7384 261.838 50.3418 266 50.3418ZM265.596 167.147C258.754 167.254 252.233 170.071 247.466 174.981C242.698 179.89 240.073 186.491 240.167 193.333V270.833C240.118 274.257 240.751 277.655 242.027 280.832C243.304 284.009 245.199 286.9 247.603 289.338C250.006 291.776 252.87 293.712 256.029 295.033C259.187 296.354 262.577 297.035 266 297.035C269.424 297.035 272.813 296.354 275.971 295.033C279.13 293.712 281.994 291.776 284.398 289.338C286.801 286.9 288.696 284.009 289.973 280.832C291.249 277.655 291.882 274.257 291.833 270.833V193.333C291.881 189.877 291.234 186.447 289.932 183.245C288.629 180.043 286.698 177.135 284.251 174.693C281.805 172.251 278.893 170.325 275.689 169.029C272.484 167.733 269.053 167.093 265.596 167.147ZM266 322.5C259.149 322.5 252.578 325.222 247.733 330.066C242.888 334.911 240.167 341.482 240.167 348.333C240.167 355.185 242.888 361.756 247.733 366.6C252.578 371.445 259.149 374.167 266 374.167C272.852 374.167 279.422 371.445 284.267 366.6C289.112 361.756 291.833 355.185 291.833 348.333C291.833 341.482 289.112 334.911 284.267 330.066C279.422 325.222 272.852 322.5 266 322.5Z" fill="white" fill-opacity="0.1"/>
</svg>
