<svg width="60" height="60" viewBox="0 0 60 60" fill="none" xmlns="http://www.w3.org/2000/svg">
<rect width="60" height="60" rx="12" fill="url(#paint0_linear_154_1335)"/>
<path d="M30 17.5C25.873 17.5 22.5 20.873 22.5 25V26.25H21.875C20.1637 26.25 18.75 27.6637 18.75 29.375V39.375C18.75 41.0863 20.1637 42.5 21.875 42.5H38.125C39.8363 42.5 41.25 41.0863 41.25 39.375V29.375C41.25 27.6637 39.8363 26.25 38.125 26.25H37.5V25C37.5 20.873 34.127 17.5 30 17.5ZM30 20C32.7755 20 35 22.2245 35 25V26.25H25V25C25 22.2245 27.2245 20 30 20ZM21.875 28.75H23.54C23.675 28.7723 23.8128 28.7723 23.9478 28.75H36.04C36.175 28.7723 36.3128 28.7723 36.4478 28.75H38.125C38.4837 28.75 38.75 29.0163 38.75 29.375V39.375C38.75 39.7337 38.4837 40 38.125 40H21.875C21.5163 40 21.25 39.7337 21.25 39.375V29.375C21.25 29.0163 21.5163 28.75 21.875 28.75ZM25 33.75C24.6685 33.75 24.3505 33.8817 24.1161 34.1161C23.8817 34.3505 23.75 34.6685 23.75 35C23.75 35.3315 23.8817 35.6495 24.1161 35.8839C24.3505 36.1183 24.6685 36.25 25 36.25C25.3315 36.25 25.6495 36.1183 25.8839 35.8839C26.1183 35.6495 26.25 35.3315 26.25 35C26.25 34.6685 26.1183 34.3505 25.8839 34.1161C25.6495 33.8817 25.3315 33.75 25 33.75ZM30 33.75C29.6685 33.75 29.3505 33.8817 29.1161 34.1161C28.8817 34.3505 28.75 34.6685 28.75 35C28.75 35.3315 28.8817 35.6495 29.1161 35.8839C29.3505 36.1183 29.6685 36.25 30 36.25C30.3315 36.25 30.6495 36.1183 30.8839 35.8839C31.1183 35.6495 31.25 35.3315 31.25 35C31.25 34.6685 31.1183 34.3505 30.8839 34.1161C30.6495 33.8817 30.3315 33.75 30 33.75ZM35 33.75C34.6685 33.75 34.3505 33.8817 34.1161 34.1161C33.8817 34.3505 33.75 34.6685 33.75 35C33.75 35.3315 33.8817 35.6495 34.1161 35.8839C34.3505 36.1183 34.6685 36.25 35 36.25C35.3315 36.25 35.6495 36.1183 35.8839 35.8839C36.1183 35.6495 36.25 35.3315 36.25 35C36.25 34.6685 36.1183 34.3505 35.8839 34.1161C35.6495 33.8817 35.3315 33.75 35 33.75Z" fill="white"/>
<defs>
<linearGradient id="paint0_linear_154_1335" x1="9" y1="7.875" x2="52.125" y2="49.5" gradientUnits="userSpaceOnUse">
<stop stop-color="#A81B58"/>
<stop offset="1" stop-color="#3C3198"/>
</linearGradient>
</defs>
</svg>
