<svg width="60" height="60" viewBox="0 0 60 60" fill="none" xmlns="http://www.w3.org/2000/svg">
<path d="M13.75 4.99024C13.1993 4.98252 12.6614 5.15686 12.2199 5.4862C11.7785 5.81553 11.4581 6.28143 11.3086 6.81152L0.878907 28.833C0.839244 28.9076 0.803391 28.9842 0.771485 29.0625L0.239259 30.1807C0.0814174 30.515 -0.000297448 30.8803 8.13561e-07 31.25C8.13561e-07 38.8139 6.18606 45 13.75 45C21.3139 45 27.5 38.8139 27.5 31.25C27.5003 30.8803 27.4186 30.515 27.2607 30.1807L26.7041 28.999L26.6992 28.9941C26.696 28.986 26.6928 28.9778 26.6895 28.9697L18.4375 11.5576L25.127 13.6182C25.38 14.7212 25.9998 15.7057 26.885 16.4108C27.7701 17.116 28.8683 17.4999 30 17.5C31.261 17.4985 32.4749 17.0207 33.3984 16.1621L42.7539 19.0381L33.3789 38.833C33.3392 38.9076 33.3034 38.9842 33.2715 39.0625L32.7393 40.1807C32.5814 40.515 32.4997 40.8802 32.5 41.25C32.5 48.8139 38.6861 55 46.25 55C53.8139 55 60 48.8139 60 41.25C60.0003 40.8802 59.9186 40.515 59.7607 40.1807L59.1992 38.999V38.9941C59.196 38.9876 59.1927 38.9811 59.1895 38.9746L48.6719 16.7725C48.5658 16.4306 48.3875 16.1155 48.1491 15.8484C47.9107 15.5814 47.6177 15.3687 47.29 15.2246C47.2245 15.1957 47.1577 15.1696 47.0898 15.1465C47.0785 15.1415 47.0671 15.1366 47.0557 15.1318C47.033 15.125 47.0102 15.1185 46.9873 15.1123L34.873 11.3818C34.62 10.2788 34.0002 9.29428 33.115 8.58917C32.2299 7.88405 31.1317 7.50007 30 7.5C28.739 7.50147 27.5251 7.97934 26.6016 8.83789L14.5703 5.13672L14.5557 5.13184C14.533 5.125 14.5102 5.11849 14.4873 5.11231C14.4309 5.09401 14.3739 5.07772 14.3164 5.06348C14.3132 5.06347 14.3099 5.06347 14.3066 5.06348C14.1244 5.01824 13.9377 4.99367 13.75 4.99024ZM13.75 13.3398L20.459 27.5H7.04102L13.75 13.3398ZM46.25 23.3398L52.959 37.5H39.541L46.25 23.3398ZM5.2002 32.5H22.2998C21.692 36.7456 18.1737 40 13.75 40C9.32631 40 5.80799 36.7456 5.2002 32.5ZM37.7002 42.5H54.7998C54.192 46.7456 50.6737 50 46.25 50C41.8263 50 38.308 46.7456 37.7002 42.5Z" fill="white"/>
</svg>
