<svg width="60" height="60" viewBox="0 0 60 60" fill="none" xmlns="http://www.w3.org/2000/svg">
<g clip-path="url(#clip0_18_355)">
<path d="M29.9609 4.90582e-05C29.3115 0.0104044 28.6916 0.273081 28.2324 0.732471C28.2324 0.732471 23.7138 5.24707 19.2041 11.6895C14.6944 18.1319 10 26.5278 10 35C10 46.0161 18.9839 55 30 55C41.0161 55 50 46.0161 50 35C50 26.5278 45.3056 18.1319 40.7959 11.6895C36.2862 5.24707 31.7676 0.732471 31.7676 0.732471C31.5308 0.495621 31.2489 0.308742 30.9386 0.182926C30.6282 0.0571102 30.2958 -0.00507912 29.9609 4.90582e-05ZM30 6.41606C31.2515 7.73123 33.3487 9.76722 36.7041 14.5606C40.9444 20.6182 45 28.4723 45 35C45 43.314 38.3139 50 30 50C21.6861 50 15 43.314 15 35C15 28.4723 19.0556 20.6182 23.2959 14.5606C26.6513 9.76722 28.7485 7.73123 30 6.41606ZM22.4609 32.4659C21.7987 32.4762 21.1677 32.7489 20.7063 33.224C20.245 33.6991 19.9909 34.3378 20 35C20 40.4934 24.5067 45 30 45C30.3313 45.0047 30.6602 44.9435 30.9676 44.82C31.275 44.6965 31.5548 44.5131 31.7908 44.2804C32.0267 44.0478 32.214 43.7707 32.3419 43.465C32.4698 43.1594 32.5356 42.8314 32.5356 42.5C32.5356 42.1687 32.4698 41.8407 32.3419 41.5351C32.214 41.2294 32.0267 40.9523 31.7908 40.7196C31.5548 40.487 31.275 40.3036 30.9676 40.1801C30.6602 40.0566 30.3313 39.9954 30 40C27.2083 40 25 37.7917 25 35C25.0046 34.6656 24.942 34.3336 24.816 34.0237C24.6899 33.7139 24.503 33.4325 24.2662 33.1962C24.0295 32.9599 23.7477 32.7735 23.4376 32.648C23.1275 32.5226 22.7954 32.4606 22.4609 32.4659Z" fill="white"/>
</g>
<defs>
<clipPath id="clip0_18_355">
<rect width="60" height="60" fill="white"/>
</clipPath>
</defs>
</svg>
