<svg width="60" height="60" viewBox="0 0 60 60" fill="none" xmlns="http://www.w3.org/2000/svg">
<path d="M30 7.5C15.1116 7.5 2.5 17.2661 2.5 30C2.5 34.767 4.49475 39.0784 7.5 42.6514V52.4658C7.50069 53.0598 7.71285 53.6342 8.09847 54.086C8.48408 54.5378 9.01797 54.8376 9.60449 54.9316C9.60449 54.9316 15.8677 55.6657 21.6455 51.25C24.3002 51.9539 27.0563 52.5 30 52.5C44.8884 52.5 57.5 42.7339 57.5 30C57.5 17.2661 44.8884 7.5 30 7.5ZM30 12.5C42.7266 12.5 52.5 20.6439 52.5 30C52.5 39.3561 42.7266 47.5 30 47.5C27.1161 47.5 24.3667 47.0589 21.8262 46.2793C21.4131 46.1525 20.9743 46.1348 20.5524 46.2281C20.1305 46.3214 19.74 46.5224 19.4189 46.8115C16.6222 49.3377 14.2293 49.8283 12.5 49.9316V41.9629C12.5004 41.3284 12.2595 40.7174 11.8262 40.2539C9.06389 37.3038 7.5 33.7969 7.5 30C7.5 20.6439 17.2734 12.5 30 12.5ZM20 27.5C19.337 27.5 18.7011 27.7634 18.2322 28.2322C17.7634 28.7011 17.5 29.337 17.5 30C17.5 30.663 17.7634 31.2989 18.2322 31.7678C18.7011 32.2366 19.337 32.5 20 32.5C20.663 32.5 21.2989 32.2366 21.7678 31.7678C22.2366 31.2989 22.5 30.663 22.5 30C22.5 29.337 22.2366 28.7011 21.7678 28.2322C21.2989 27.7634 20.663 27.5 20 27.5ZM30 27.5C29.337 27.5 28.7011 27.7634 28.2322 28.2322C27.7634 28.7011 27.5 29.337 27.5 30C27.5 30.663 27.7634 31.2989 28.2322 31.7678C28.7011 32.2366 29.337 32.5 30 32.5C30.663 32.5 31.2989 32.2366 31.7678 31.7678C32.2366 31.2989 32.5 30.663 32.5 30C32.5 29.337 32.2366 28.7011 31.7678 28.2322C31.2989 27.7634 30.663 27.5 30 27.5ZM40 27.5C39.337 27.5 38.7011 27.7634 38.2322 28.2322C37.7634 28.7011 37.5 29.337 37.5 30C37.5 30.663 37.7634 31.2989 38.2322 31.7678C38.7011 32.2366 39.337 32.5 40 32.5C40.663 32.5 41.2989 32.2366 41.7678 31.7678C42.2366 31.2989 42.5 30.663 42.5 30C42.5 29.337 42.2366 28.7011 41.7678 28.2322C41.2989 27.7634 40.663 27.5 40 27.5Z" fill="white"/>
</svg>
