<svg width="60" height="60" viewBox="0 0 60 60" fill="none" xmlns="http://www.w3.org/2000/svg">
<g clip-path="url(#clip0_18_366)">
<path d="M29.9609 -0.0341189C29.2987 -0.0237678 28.6677 0.248882 28.2063 0.723992C27.7449 1.1991 27.4909 1.83785 27.5 2.50006V5.12213C15.6873 6.29407 6.29397 15.6874 5.12203 27.5001H2.49996C2.16868 27.4954 1.83977 27.5566 1.53235 27.6801C1.22493 27.8036 0.945131 27.987 0.709207 28.2197C0.473282 28.4523 0.285942 28.7295 0.158073 29.0351C0.0302035 29.3407 -0.0356445 29.6687 -0.0356445 30.0001C-0.0356445 30.3314 0.0302035 30.6594 0.158073 30.965C0.285942 31.2707 0.473282 31.5478 0.709207 31.7805C0.945131 32.0131 1.22493 32.1965 1.53235 32.32C1.83977 32.4435 2.16868 32.5047 2.49996 32.5001H5.12203C6.29397 44.3128 15.6873 53.7061 27.5 54.878V57.5001C27.4953 57.8313 27.5565 58.1602 27.68 58.4677C27.8035 58.7751 27.9869 59.0549 28.2196 59.2908C28.4522 59.5267 28.7294 59.7141 29.035 59.8419C29.3406 59.9698 29.6686 60.0357 30 60.0357C30.3313 60.0357 30.6593 59.9698 30.9649 59.8419C31.2706 59.7141 31.5478 59.5267 31.7804 59.2908C32.013 59.0549 32.1964 58.7751 32.3199 58.4677C32.4434 58.1602 32.5046 57.8313 32.5 57.5001V54.878C44.3127 53.7061 53.706 44.3128 54.8779 32.5001H57.5C57.8312 32.5047 58.1601 32.4435 58.4676 32.32C58.775 32.1965 59.0548 32.0131 59.2907 31.7805C59.5266 31.5478 59.714 31.2707 59.8419 30.965C59.9697 30.6594 60.0356 30.3314 60.0356 30.0001C60.0356 29.6687 59.9697 29.3407 59.8419 29.0351C59.714 28.7295 59.5266 28.4523 59.2907 28.2197C59.0548 27.987 58.775 27.8036 58.4676 27.6801C58.1601 27.5566 57.8312 27.4954 57.5 27.5001H54.8779C53.706 15.6874 44.3127 6.29407 32.5 5.12213V2.50006C32.5045 2.16559 32.442 1.8336 32.3159 1.52374C32.1899 1.21389 32.0029 0.932485 31.7662 0.696182C31.5294 0.459879 31.2477 0.273487 30.9376 0.148044C30.6275 0.0226007 30.2954 -0.0393429 29.9609 -0.0341189ZM27.5 10.171V15.2003C23.849 15.7349 20.8366 17.4042 18.7548 19.7462C16.7902 21.9564 15.6403 24.6784 15.2099 27.5001H10.1709C11.3047 18.4723 18.4722 11.3048 27.5 10.171ZM32.5 10.171C41.5278 11.3048 48.6952 18.4723 49.8291 27.5001H44.7705C43.7083 21.2448 38.7552 16.2918 32.5 15.2296V10.171ZM29.7656 20.0196C29.9197 20.0356 30.075 20.0372 30.2295 20.0245C35.5947 20.1466 39.856 24.4095 39.9755 29.7755C39.9618 29.9265 39.9618 30.0785 39.9755 30.2296C39.8534 35.5948 35.5905 39.8561 30.2246 39.9756C30.1369 39.9678 30.0489 39.9645 29.9609 39.9659C29.8924 39.9663 29.824 39.9696 29.7558 39.9756C26.3615 39.9155 24.0795 38.7161 22.4951 36.9337C20.9219 35.1638 20.0732 32.7288 20.0195 30.2442C20.0361 30.0786 20.0361 29.9118 20.0195 29.7462C20.0753 27.265 20.9239 24.834 22.4951 23.0665C24.0812 21.2821 26.3652 20.0773 29.7656 20.0196ZM30 27.5001C29.3369 27.5001 28.701 27.7635 28.2322 28.2323C27.7634 28.7011 27.5 29.337 27.5 30.0001C27.5 30.6631 27.7634 31.299 28.2322 31.7678C28.701 32.2367 29.3369 32.5001 30 32.5001C30.663 32.5001 31.2989 32.2367 31.7677 31.7678C32.2366 31.299 32.5 30.6631 32.5 30.0001C32.5 29.337 32.2366 28.7011 31.7677 28.2323C31.2989 27.7635 30.663 27.5001 30 27.5001ZM10.1709 32.5001H15.2099C15.6403 35.3217 16.7902 38.0437 18.7548 40.254C20.8366 42.5959 23.849 44.2652 27.5 44.7999V49.8292C18.4722 48.6953 11.3047 41.5279 10.1709 32.5001ZM44.7705 32.5001H49.8291C48.6952 41.5279 41.5278 48.6953 32.5 49.8292V44.7706C38.7552 43.7084 43.7083 38.7553 44.7705 32.5001Z" fill="white"/>
</g>
<defs>
<clipPath id="clip0_18_366">
<rect width="60" height="60" fill="white"/>
</clipPath>
</defs>
</svg>
