<svg width="24" height="24" viewBox="0 0 24 24" fill="none" xmlns="http://www.w3.org/2000/svg">
<path d="M12 0C5.3832 0 0 5.3832 0 12C0 18.6168 5.3832 24 12 24C18.6168 24 24 18.6168 24 12C24 5.3832 18.6168 0 12 0ZM16.4484 11.6484C16.2144 11.8824 15.9072 12 15.6 12C15.2928 12 14.9856 11.8824 14.7516 11.6484L13.2 10.0968V16.8C13.2 17.4636 12.6636 18 12 18C11.3364 18 10.8 17.4636 10.8 16.8V10.0968L9.2484 11.6484C8.7792 12.1176 8.0208 12.1176 7.5516 11.6484C7.0824 11.1792 7.0824 10.4208 7.5516 9.9516L11.1504 6.3528C11.2608 6.2412 11.394 6.1536 11.5416 6.0924C11.8344 5.9712 12.1644 5.9712 12.4584 6.0924C12.606 6.1536 12.7392 6.2424 12.8496 6.3528L16.4484 9.9516C16.9176 10.4208 16.9176 11.1792 16.4484 11.6484Z" fill="white" fill-opacity="0.25"/>
</svg>
