<svg width="20" height="20" viewBox="0 0 20 20" fill="none" xmlns="http://www.w3.org/2000/svg">
<g clip-path="url(#clip0_19_1530)">
<path d="M5.02111 0.833266C4.90814 0.830454 4.79577 0.850646 4.69085 0.892617C4.58592 0.934587 4.49063 0.997458 4.41076 1.07741C2.99629 2.49188 2.98092 3.98946 3.08264 4.97552C2.62108 4.94843 2.02997 4.86821 1.50223 4.64837C1.35022 4.58534 1.18294 4.56873 1.0215 4.60062C0.860051 4.63252 0.711662 4.7115 0.595036 4.8276C0.478409 4.9437 0.398766 5.09174 0.366146 5.25304C0.333527 5.41434 0.34939 5.58168 0.411737 5.73398C0.987285 7.13227 1.7885 8.02185 2.46252 8.54974C2.4891 8.57055 2.48661 8.55923 2.51297 8.57903C2.05706 8.83191 1.62919 9.01198 1.62919 9.01198C1.48196 9.04955 1.3478 9.12666 1.24123 9.23497C1.13465 9.34328 1.05972 9.47866 1.02452 9.62647C0.98933 9.77429 0.995216 9.92892 1.04155 10.0736C1.08788 10.2183 1.17289 10.3476 1.28739 10.4475C3.15762 12.0721 4.78484 12.8953 5.18224 13.0908C5.2674 13.2615 5.31119 13.3637 5.39058 13.5237C5.02285 13.6005 4.68789 13.6999 4.39448 13.7792C3.85489 13.9252 3.47526 13.9767 3.24865 13.9143C3.02205 13.8519 2.76965 13.7066 2.41857 12.9736C2.34826 12.8208 2.23337 12.6928 2.08899 12.6066C1.94462 12.5203 1.77752 12.4797 1.60965 12.4902C1.47237 12.4986 1.33931 12.541 1.22235 12.6133C1.10539 12.6857 1.00817 12.7859 0.939353 12.905C0.870538 13.0241 0.83227 13.1584 0.827962 13.2959C0.823655 13.4334 0.853442 13.5698 0.914667 13.693C1.38775 14.6808 2.0469 15.3133 2.80594 15.5224C3.56499 15.7315 4.24476 15.5474 4.83068 15.3889C5.3138 15.2582 5.75136 15.1363 6.14741 15.0943C6.52082 15.9066 6.81571 16.6231 6.97098 17.2558C7.24374 18.3691 8.24835 19.1666 9.39937 19.1666H9.99995H10.6005C11.7516 19.1666 12.7562 18.3691 13.0289 17.2558C13.1842 16.6231 13.4791 15.9066 13.8525 15.0943C14.2485 15.1363 14.6861 15.2582 15.1692 15.3889C15.7552 15.5474 16.4349 15.7315 17.194 15.5224C17.953 15.3133 18.6122 14.6808 19.0852 13.693C19.1472 13.5679 19.1767 13.4292 19.1711 13.2897C19.1655 13.1502 19.1249 13.0144 19.0532 12.8947C18.9814 12.7749 18.8807 12.6752 18.7603 12.6045C18.6399 12.5338 18.5037 12.4945 18.3642 12.4902C18.2007 12.485 18.0392 12.5281 17.9 12.614C17.7608 12.7 17.65 12.825 17.5813 12.9736C17.2303 13.7066 16.9779 13.8519 16.7513 13.9143C16.5247 13.9767 16.145 13.9252 15.6054 13.7792C15.312 13.6999 14.9771 13.6005 14.6093 13.5237C14.6887 13.3637 14.7325 13.2615 14.8177 13.0908C15.2151 12.8952 16.8423 12.0729 18.7125 10.4475C18.8275 10.3477 18.9129 10.2183 18.9595 10.0734C19.0061 9.92845 19.0121 9.77353 18.9769 9.62542C18.9417 9.47731 18.8665 9.34168 18.7597 9.23325C18.6528 9.12482 18.5183 9.04773 18.3707 9.01035C18.3707 9.01035 17.9441 8.82988 17.4886 8.57741C17.5139 8.55833 17.5118 8.56974 17.5374 8.54974C18.2116 8.02188 19.0147 7.13283 19.5898 5.73398C19.6529 5.58144 19.6693 5.41359 19.6368 5.25173C19.6044 5.08987 19.5246 4.94128 19.4076 4.82482C19.2907 4.70835 19.1417 4.62925 18.9797 4.59755C18.8177 4.56585 18.6499 4.58297 18.4977 4.64674C17.97 4.86688 17.3787 4.94834 16.9173 4.97552C17.019 3.98946 17.0036 2.49188 15.5891 1.07741C15.4849 0.973052 15.3547 0.898253 15.2121 0.860652C15.0694 0.823051 14.9193 0.823995 14.7771 0.863388C14.6349 0.902782 14.5058 0.979212 14.4028 1.08487C14.2998 1.19053 14.2268 1.32163 14.191 1.46478C13.8012 3.02414 13.2302 4.0025 12.7783 4.58652C12.4232 5.04544 12.3027 5.0998 12.2168 5.15944C11.5829 5.0507 10.8348 5.0616 9.9967 5.33034C9.16071 5.0632 8.41516 5.05086 7.78316 5.15944C7.6972 5.0998 7.57672 5.04544 7.22163 4.58652C6.76974 4.0025 6.19871 3.02414 5.80887 1.46478C5.76475 1.28782 5.6638 1.13023 5.5215 1.01616C5.37921 0.902086 5.20343 0.837838 5.02111 0.833266ZM4.84045 3.69297C5.18565 4.4839 5.55284 5.1525 5.90327 5.6054C6.49305 6.36763 7.06376 6.73496 7.06376 6.73496C7.16082 6.79471 7.26911 6.83392 7.38193 6.85016C7.49475 6.86639 7.6097 6.85932 7.71968 6.82936C8.22603 6.69048 8.90471 6.6251 9.69071 6.94004C9.88924 7.01937 10.1107 7.01937 10.3092 6.94004C11.0957 6.62555 11.7745 6.69066 12.2802 6.82936C12.3902 6.85932 12.5052 6.86639 12.618 6.85016C12.7308 6.83392 12.8391 6.79471 12.9362 6.73496C12.9362 6.73496 13.5069 6.36763 14.0966 5.6054C14.4471 5.1525 14.8143 4.4839 15.1595 3.69297C15.3973 4.68056 15.2197 5.59564 15.2197 5.59564C15.1898 5.71124 15.1851 5.8319 15.2059 5.94947C15.2268 6.06704 15.2726 6.17876 15.3404 6.27707C15.4081 6.37538 15.4962 6.45799 15.5987 6.5193C15.7011 6.58061 15.8155 6.61918 15.9342 6.63242C15.9342 6.63242 16.4353 6.66446 17.1191 6.61777C16.9086 6.86132 16.6949 7.09054 16.5087 7.23626C16.0374 7.60528 15.7682 7.67571 15.7682 7.67571C15.6405 7.71394 15.5239 7.78221 15.4281 7.8748C15.3323 7.96739 15.2601 8.0816 15.2175 8.20786C15.175 8.33412 15.1633 8.46874 15.1835 8.60044C15.2037 8.73214 15.2552 8.85708 15.3336 8.96478C15.692 9.45697 16.1459 9.69546 16.5738 9.94785C15.1049 11.0324 13.8134 11.7447 13.8134 11.7447C13.6433 11.8244 13.5051 11.9592 13.4212 12.1272C13.1651 12.6395 12.9336 13.1027 12.7246 13.5318C12.1871 13.6673 11.6356 13.9222 11.1197 14.37C10.9881 14.4847 10.8957 14.6377 10.8556 14.8076C10.8154 14.9775 10.8296 15.1556 10.8961 15.317C10.9626 15.4784 11.0781 15.6149 11.2262 15.7072C11.3744 15.7995 11.5478 15.8431 11.722 15.8316C11.5997 16.1757 11.4957 16.5137 11.4111 16.8587C11.3172 17.242 10.9912 17.4999 10.6005 17.4999H9.99995H9.39937C9.00871 17.4999 8.68273 17.242 8.58882 16.8587C8.50417 16.5137 8.4002 16.1757 8.27795 15.8316C8.45214 15.8431 8.62551 15.7995 8.77367 15.7072C8.92182 15.6149 9.03728 15.4784 9.10378 15.317C9.17028 15.1556 9.18447 14.9775 9.14435 14.8076C9.10424 14.6377 9.01183 14.4847 8.88016 14.37C8.36432 13.9222 7.81279 13.6673 7.27534 13.5318C7.06628 13.1027 6.83477 12.6395 6.57873 12.1272C6.49482 11.9592 6.3566 11.8244 6.18648 11.7447C6.18648 11.7447 4.89502 11.032 3.42606 9.94785C3.85378 9.69548 4.30812 9.45674 4.66629 8.96478C4.74439 8.8571 4.79559 8.7323 4.8156 8.6008C4.8356 8.4693 4.82385 8.33492 4.78131 8.20889C4.73877 8.08286 4.66668 7.96885 4.57107 7.87638C4.47546 7.7839 4.3591 7.71566 4.23172 7.67734C4.23172 7.67734 3.96257 7.60709 3.49116 7.23789C3.30502 7.0921 3.09295 6.86137 2.88244 6.61777C3.5661 6.66429 4.06571 6.63242 4.06571 6.63242C4.18437 6.61918 4.2988 6.58061 4.40126 6.5193C4.50371 6.45799 4.5918 6.37538 4.65955 6.27707C4.7273 6.17876 4.77314 6.06704 4.79396 5.94947C4.81478 5.8319 4.8101 5.71124 4.78023 5.59564C4.78023 5.59564 4.60265 4.68056 4.84045 3.69297ZM6.82613 8.8248C6.82613 8.8248 6.06603 9.11337 6.06603 9.64837C6.06603 10.6575 8.07938 10.6331 8.07938 10.6331L8.34468 10.2538L6.82613 8.8248ZM13.1738 8.8248L11.6552 10.2538L11.9205 10.6331C11.9205 10.6331 13.9339 10.6575 13.9339 9.64837C13.9339 9.11337 13.1738 8.8248 13.1738 8.8248Z" fill="white" fill-opacity="0.25"/>
</g>
<defs>
<clipPath id="clip0_19_1530">
<rect width="20" height="20" fill="white"/>
</clipPath>
</defs>
</svg>
